<svg width="291" height="334" viewBox="0 0 291 334" fill="none" xmlns="http://www.w3.org/2000/svg">
<path opacity="0.78" d="M149.476 332.235L149.469 332.24L149.461 332.244C148.351 332.939 146.863 333.3 145.349 333.3C143.835 333.3 142.348 332.939 141.237 332.244L141.23 332.24L141.222 332.236L4.47647 253.146L4.46333 253.139L4.44975 253.132C3.3557 252.585 2.36467 251.539 1.64455 250.242C0.926048 248.949 0.5 247.447 0.5 246.033V88.1561C0.5 86.901 0.921194 85.4748 1.64455 84.1728C2.36597 82.8742 3.36591 81.7389 4.4838 81.038L141.524 1.95325L141.531 1.94885L141.539 1.94418C142.649 1.25007 144.137 0.888184 145.651 0.888184C147.165 0.888184 148.652 1.25007 149.763 1.94419L149.77 1.94872L149.778 1.95301L286.509 81.0334C286.511 81.0349 286.514 81.0365 286.516 81.038C287.634 81.739 288.634 82.8742 289.355 84.1728C290.079 85.4748 290.5 86.901 290.5 88.1561V246.033C290.5 247.288 290.079 248.714 289.355 250.016C288.634 251.314 287.634 252.45 286.516 253.151C286.514 253.152 286.511 253.154 286.509 253.155L149.476 332.235Z" stroke="#FCC969"/>
<path d="M106.257 88.1553L124.067 163.32L87.8431 156.377L87.5413 118.342L106.257 88.1553Z" fill="#185F93"/>
<path d="M52.5244 93.8921L37.1292 162.114L73.6551 184.15L71.2401 102.646L52.5244 93.8921Z" fill="#003768"/>
<path d="M133.425 172.075V171.472C130.708 153.661 119.841 156.076 93.2767 143.398L68.8255 143.7C44.3742 154.567 29.5827 158.491 28.979 174.188L25.9603 200.753H135.84L133.425 172.075Z" fill="#FF8B0D"/>
<path d="M29.2808 174.49L26.2621 201.054H80.5982V143.7L69.1272 144.002C44.676 154.869 29.5826 158.793 29.2808 174.49Z" fill="#F74D11"/>
<path d="M67.92 133.135C67.6181 137.965 64.5994 147.625 60.3733 150.945C65.2032 159.096 75.7685 168.152 80.2965 168.756C79.9947 150.644 80.2965 133.437 80.2965 133.437H67.92V133.135Z" fill="#D9C8AA"/>
<path d="M92.673 133.134C92.9749 137.964 95.9935 147.624 100.22 150.944C95.3898 159.095 84.6527 168.006 80.1247 168.61C80.4265 150.498 79.3274 133.134 79.3274 133.134L92.673 133.436V133.134Z" fill="#D9C8AA"/>
<path d="M58.864 86.6476C56.1472 91.4774 57.6565 98.1185 57.9584 104.76C56.4491 105.061 55.2416 106.269 55.2416 109.589C55.2416 114.419 57.3547 121.664 60.6752 122.872C60.9771 124.079 61.5808 124.985 62.1845 126.192C62.1845 126.192 62.1845 126.192 62.1845 126.494C63.392 128.909 64.5995 131.022 66.1088 132.833C66.7125 133.739 67.6181 134.644 68.2219 135.248C71.8443 139.172 76.0704 141.587 80.5984 142.191V74.271C73.0517 74.271 63.0901 78.799 58.864 86.6476Z" fill="#EADCC3"/>
<path d="M80.2968 74.2705V141.889C84.8248 141.587 89.0509 139.172 92.6733 134.946C93.277 134.04 94.1826 133.436 94.7864 132.531C96.2957 130.72 97.5032 128.607 98.7107 126.192C98.7107 126.192 98.7107 126.192 98.7107 125.89C99.3144 124.682 99.6163 123.777 100.22 122.569C103.541 121.362 105.654 114.117 105.654 109.287C105.654 105.967 104.748 105.061 102.937 104.457C103.239 97.8162 104.748 91.4769 102.031 86.3452C97.805 78.7985 88.1453 74.2705 80.2968 74.2705Z" fill="#EADCC3"/>
<path d="M80.5982 72.761C75.1646 70.9498 63.3918 73.0629 58.26 79.4021C50.7133 89.0618 51.0152 107.778 51.0152 107.778L60.675 106.57C60.675 106.57 63.3918 94.4954 74.259 90.5712C81.8057 87.5525 80.5982 72.761 80.5982 72.761Z" fill="#003768"/>
<path d="M69.4295 82.1183C71.2407 90.8724 88.749 92.0799 94.4845 95.0986C100.522 98.1172 100.22 106.57 100.22 106.57L105.352 105.06C105.352 105.06 111.389 87.8537 100.22 78.194C89.6546 68.8361 75.7687 71.8548 71.2407 73.0622C66.7127 73.9678 69.4295 82.1183 69.4295 82.1183Z" fill="#185F93"/>
<path d="M222.174 105.362C222.174 108.38 223.683 109.89 226.702 109.89H266.549C269.567 109.89 271.077 108.38 271.077 105.362V34.423C271.077 31.4044 269.567 29.895 266.549 29.895H226.702C223.683 29.895 222.174 31.4044 222.174 34.423V105.362Z" fill="white"/>
<path d="M227.608 91.7778C227.608 92.0797 227.91 92.3816 228.211 92.3816H265.643C265.945 92.3816 266.247 92.0797 266.247 91.7778V42.5735C266.247 42.2716 265.945 41.9697 265.643 41.9697H227.91C227.608 41.9697 227.306 42.2716 227.306 42.5735V91.7778H227.608Z" fill="#185F93"/>
<path d="M243.607 101.136C243.607 102.646 244.814 104.155 246.625 104.155C248.135 104.155 249.644 102.948 249.644 101.136C249.644 99.627 248.437 98.1177 246.625 98.1177C245.116 98.1177 243.607 99.3251 243.607 101.136Z" fill="#003768"/>
<path d="M244.814 101.136C244.814 100.231 245.72 99.3252 246.625 99.3252C247.531 99.3252 248.437 100.231 248.437 101.136C248.437 102.042 247.531 102.948 246.625 102.948C245.72 102.948 244.814 102.042 244.814 101.136ZM246.625 102.344C247.531 102.344 248.135 101.74 248.135 100.835C248.135 99.9289 247.531 99.3252 246.625 99.3252C245.72 99.3252 245.116 99.9289 245.116 100.835C245.418 101.74 246.022 102.344 246.625 102.344Z" fill="#A7C4C3"/>
<path d="M240.588 36.5361C240.588 36.8379 240.89 37.1398 241.192 37.1398H252.663C252.965 37.1398 253.266 36.8379 253.266 36.5361V35.9323C253.266 35.6305 252.965 35.3286 252.663 35.3286H241.192C240.89 35.3286 240.588 35.6305 240.588 35.9323V36.5361Z" fill="#003768"/>
<path d="M237.871 197.734V196.828C234.249 171.773 227.909 168.151 190.176 150.341L140.972 151.246C103.238 163.925 93.8804 172.377 90.5599 200.753L86.3337 238.184H241.493L237.871 197.734Z" fill="#003768"/>
<path d="M143.689 138.87L140.368 151.247L163.612 169.962L162.706 140.983L143.689 138.87Z" fill="#C1B093"/>
<path d="M182.328 139.172L185.648 151.851L162.405 170.265L163.31 141.285L182.328 139.172Z" fill="#C1B093"/>
<path d="M141.877 144.604C144.292 147.623 156.367 156.981 163.31 156.075C170.253 155.471 182.025 149.132 184.139 144C185.95 146.114 193.195 151.547 193.195 151.547L162.404 223.693L133.727 154.566L141.877 144.604Z" fill="white"/>
<path d="M141.273 139.171C142.179 140.378 143.085 141.586 144.292 142.793C143.085 141.586 142.179 140.378 141.273 139.171Z" fill="white"/>
<path d="M200.44 107.173C200.44 102.947 199.232 101.136 197.119 100.532C197.723 91.7778 198.93 82.7218 195.61 76.3826C189.572 64.3079 172.97 56.7612 161.801 56.7612C150.933 56.7612 137.048 63.1004 131.01 74.2695C127.388 81.2125 129.199 90.2685 129.501 99.6264C127.086 100.23 125.878 101.739 125.878 106.267C125.878 112.909 128.897 123.474 133.425 124.983C134.029 126.493 134.633 128.304 135.538 129.813V130.115C137.048 133.436 138.859 136.454 140.972 138.869C141.877 140.077 142.783 141.284 143.99 142.19C149.726 148.227 156.367 151.849 163.612 151.849C174.479 151.849 184.441 143.699 191.082 130.417C191.685 129.511 192.289 128.606 192.893 127.7C193.195 126.794 193.799 125.889 194.1 124.681C198.025 122.87 200.44 113.21 200.44 107.173Z" fill="#D2C3A8"/>
<path d="M183.535 72.7603C184.139 78.1939 173.875 78.1939 166.932 76.9865C159.99 75.779 156.065 77.2883 149.424 79.0995C142.783 80.9107 136.444 87.8537 135.538 91.1742C134.935 93.2873 135.538 102.947 135.538 102.947L129.803 99.9284C129.803 99.9284 127.086 85.7406 129.199 76.3827C131.312 67.6286 136.444 60.3838 152.745 57.0632C167.536 53.7427 178.102 55.8558 178.403 59.4782C179.611 59.78 180.517 58.8744 181.724 58.8744C185.045 58.8744 191.686 62.7987 194.704 67.6286C197.723 72.4585 200.742 81.5145 198.629 96.306C198.025 100.23 197.421 101.136 197.421 101.136L192.591 103.853C192.591 103.853 194.704 84.835 186.856 79.4014C184.441 77.8921 183.535 72.7603 183.535 72.7603Z" fill="#003768"/>
<path d="M186.856 79.7028C194.704 85.1364 192.591 104.154 192.591 104.154L197.421 101.437C197.421 101.437 198.327 100.532 198.628 96.6073C200.742 81.514 197.723 72.7598 194.704 67.9299C191.685 63.1001 185.044 59.1758 181.724 59.1758C181.12 59.1758 179.007 59.7795 178.705 59.7795C180.215 64.6094 183.535 71.5523 183.535 72.7598C183.535 72.4579 184.441 77.8916 186.856 79.7028Z" fill="#185F93"/>
<path d="M167.536 175.395H162.404V162.113H172.366L172.668 167.849L167.536 175.395Z" fill="#41AACE"/>
<path d="M168.14 173.283L176.894 257.504L163.008 268.673L162.706 268.371L162.102 173.283H168.14Z" fill="#41AACE"/>
<path d="M158.48 175.395H162.706V162.113H152.443V167.849L158.48 175.395Z" fill="#006E99"/>
<path d="M157.876 173.283L148.82 257.504L163.008 268.673L162.706 173.283H157.876Z" fill="#006E99"/>
<path d="M168.442 175.093H157.575V174.188H168.14L168.442 175.093Z" fill="#006E99"/>
<path d="M189.572 266.258C189.572 269.277 187.158 271.692 184.139 271.692H135.84C132.821 271.692 130.406 269.277 130.406 266.258V236.373C130.406 233.354 132.821 230.939 135.84 230.939H184.139C187.158 230.939 189.572 233.354 189.572 236.373V266.258Z" fill="white"/>
<path d="M183.837 241.505C183.837 238.487 181.422 236.072 178.403 236.072C175.385 236.072 172.97 238.487 172.97 241.505C172.97 244.524 175.385 246.939 178.403 246.939C181.422 247.241 183.837 244.524 183.837 241.505ZM182.026 244.524C181.724 244.222 181.12 244.222 180.818 243.92C180.818 243.317 181.12 242.713 181.12 241.807H183.233C183.233 242.713 182.931 243.92 182.026 244.524C182.327 244.524 182.327 244.524 182.026 244.524ZM182.327 238.789C182.931 239.694 183.233 240.6 183.233 241.505H181.12C181.12 240.902 181.12 239.996 180.818 239.392C181.422 239.09 181.724 239.09 182.327 238.789ZM180.818 241.505H178.705V239.694C179.309 239.694 179.913 239.694 180.516 239.392C180.516 239.996 180.516 240.6 180.818 241.505ZM178.403 239.09V236.676V236.374C178.705 236.374 178.705 236.676 179.007 236.676C179.611 236.977 179.913 237.883 180.214 238.789C179.611 239.09 179.007 239.09 178.403 239.09ZM177.498 236.977C177.799 236.676 177.799 236.676 178.101 236.676V239.09C177.498 239.09 176.894 239.09 176.29 238.789C176.29 238.487 176.592 238.185 176.592 237.883C176.894 237.581 177.196 237.279 177.498 236.977ZM178.101 239.694V241.505H175.988C175.988 240.902 175.988 239.996 176.29 239.392C176.592 239.392 177.498 239.694 178.101 239.694ZM175.385 241.505H173.271C173.271 240.6 173.573 239.694 174.177 238.789C174.479 239.09 175.083 239.09 175.686 239.392C175.686 239.996 175.385 240.6 175.385 241.505ZM175.385 241.807C175.385 242.411 175.385 243.317 175.686 243.92C175.083 244.222 174.479 244.222 174.177 244.524C173.573 243.618 173.271 242.713 173.271 241.807H175.385ZM175.988 241.807H178.101V243.618C177.498 243.618 176.894 243.618 176.29 243.92C175.988 243.317 175.988 242.713 175.988 241.807ZM178.101 243.92V246.335C177.799 246.335 177.799 246.033 177.498 246.033C176.894 245.732 176.592 244.826 176.29 243.92C176.894 244.222 177.498 244.222 178.101 243.92ZM179.309 246.335C179.007 246.637 179.007 246.637 178.705 246.637V245.732C178.705 245.43 178.705 244.826 178.705 244.222C179.309 244.222 179.913 244.222 180.516 244.524C180.516 244.826 180.214 245.128 180.214 245.43C179.611 245.732 179.309 246.033 179.309 246.335ZM178.403 243.618C178.403 243.015 178.403 242.411 178.403 241.807H180.516C180.516 242.411 180.516 243.317 180.214 243.92C179.913 243.618 179.309 243.618 178.403 243.618ZM182.026 238.487C181.724 238.789 181.12 238.789 180.818 239.09C180.818 238.789 180.516 238.487 180.516 238.185C180.214 237.883 180.214 237.581 179.913 237.279C180.516 236.977 181.12 237.581 182.026 238.487C182.026 238.185 182.026 238.185 182.026 238.487ZM176.894 236.676C176.29 237.279 175.988 237.883 175.686 238.789C175.385 238.789 174.781 238.487 174.479 238.487C174.479 238.487 174.479 238.487 174.177 238.487L174.479 238.185C175.385 237.581 175.988 236.977 176.894 236.676ZM174.479 244.826C175.083 244.524 175.385 244.524 175.686 244.222C175.686 244.524 175.988 244.826 175.988 245.43C176.29 245.732 176.29 246.033 176.592 246.335C175.988 246.335 175.385 245.732 174.479 244.826C174.781 245.128 174.479 245.128 174.479 244.826ZM179.611 246.335C180.214 245.732 180.516 245.128 180.818 244.222C181.422 244.222 181.724 244.524 182.026 244.826L181.724 245.128C181.12 245.732 180.516 246.335 179.611 246.335Z" fill="#41AACE"/>
<path d="M146.104 261.428H135.84V264.748H146.104V261.428Z" fill="#41AACE"/>
<path d="M158.782 261.428H148.518V264.748H158.782V261.428Z" fill="#41AACE"/>
<path d="M171.762 261.428H161.499V264.748H171.762V261.428Z" fill="#41AACE"/>
<path d="M184.743 261.428H174.479V264.748H184.743V261.428Z" fill="#41AACE"/>
<path d="M164.216 246.335H135.84V249.354H164.216V246.335Z" fill="#8EAFC1"/>
<path d="M155.16 250.56H135.84V253.579H155.16V250.56Z" fill="#8EAFC1"/>
<path d="M143.689 252.673H69.1277V304.292H143.689V252.673Z" fill="#8EAFC1"/>
<path d="M145.198 270.484H126.483C122.86 270.484 120.143 273.503 120.143 276.824V278.031C120.143 281.653 123.162 284.37 126.483 284.37H145.198V270.484Z" fill="#185F93"/>
<path d="M143.689 253.579C143.689 250.862 141.576 248.749 138.859 248.749H73.6557C73.0519 248.749 72.4482 248.749 71.8445 248.749C70.0333 248.749 69.1277 249.956 69.1277 252.975H135.237C137.953 252.975 140.066 255.088 140.066 257.805V268.672H143.689V253.579ZM140.066 299.161C140.066 301.878 137.953 303.991 135.237 303.991H69.1277C69.1277 304.896 69.1277 305.5 70.0333 306.708C71.2407 308.217 72.7501 307.915 74.5613 308.217H138.859C141.576 308.217 143.689 306.104 143.689 303.387V287.086H140.066V299.161ZM117.728 278.03V276.521C117.728 272.295 121.351 268.069 125.577 268.069H137.048V259.013C137.048 256.899 135.538 255.39 133.425 255.39H68.8258C68.8258 260.22 68.8258 293.425 68.8258 300.67H133.425C135.538 300.67 137.048 299.161 137.048 297.048V286.784H125.577C121.351 287.086 117.728 282.558 117.728 278.03Z" fill="#185F93"/>
</svg>
