<svg width="58" height="51" viewBox="0 0 58 51" fill="none" xmlns="http://www.w3.org/2000/svg">
<path d="M57.8607 13.3775L57.7539 13.2173L54.1338 9.44509C54.0823 9.36776 54.0494 9.27953 54.0379 9.18735C54.0263 9.09517 54.0363 9.00156 54.0671 8.91391C54.0979 8.82626 54.1487 8.74696 54.2153 8.68228C54.282 8.61759 54.3628 8.56929 54.4514 8.54117C55.0202 8.3668 55.5405 8.06217 55.971 7.65148C57.4834 6.21109 57.5475 3.84275 56.1062 2.40235C54.7334 0.897004 52.3695 0.858748 50.8571 2.30271C50.4282 2.71481 50.1026 3.22235 49.9069 3.78403C49.8748 3.87108 49.8229 3.94949 49.7554 4.0131C49.6878 4.07671 49.6064 4.12378 49.5176 4.15059C49.4288 4.17741 49.3349 4.18326 49.2435 4.16766C49.152 4.15207 49.0654 4.11546 48.9905 4.06072L45.3828 0.274224L45.2262 0.161235C45.1137 0.0556782 44.9645 -0.00209879 44.8102 5.82978e-05C44.6559 0.00221538 44.5084 0.0641374 44.3988 0.1728L40.2093 4.18616C40.0788 4.19843 39.948 4.16481 39.8395 4.09109C39.7311 4.01737 39.6517 3.90816 39.615 3.78225C39.2591 2.5527 38.236 1.49131 36.5011 1.1559C36.3206 1.12253 36.1354 1.12253 35.9549 1.1559C32.4023 1.77868 31.4877 5.47265 33.397 7.47266C33.7874 7.88319 34.272 8.19225 34.8089 8.37302C34.9374 8.41934 35.0445 8.51103 35.11 8.63082C35.1756 8.7506 35.1951 8.89022 35.1648 9.02338L30.9575 13.0608C30.8996 13.1142 30.8528 13.1785 30.8198 13.2501C30.7869 13.3216 30.7684 13.399 30.7655 13.4778C30.7626 13.5565 30.7754 13.635 30.803 13.7088C30.8306 13.7826 30.8725 13.8502 30.9264 13.9077L34.7315 17.8748L34.7992 17.9273L34.8223 17.9514C35.1452 18.2894 35.712 18.1106 35.8276 17.6462C36.1764 16.3054 37.284 15.1088 39.1346 14.7449C39.4804 14.7196 39.8281 14.7427 40.1675 14.8134C40.8767 14.9745 41.5228 15.3408 42.0252 15.8668C42.5275 16.3927 42.8639 17.0549 42.9923 17.7708C43.0499 18.1124 43.0583 18.4605 43.0172 18.8046C42.5679 20.6364 41.3268 21.6898 39.9682 21.9763C39.5002 22.0759 39.2956 22.6311 39.6186 22.9674L39.6417 22.9914L39.6915 23.0626L43.4825 27.0413C43.5376 27.0975 43.6032 27.1424 43.6757 27.1733C43.7481 27.2042 43.826 27.2205 43.9047 27.2212C43.9835 27.2219 44.0616 27.2071 44.1347 27.1776C44.2077 27.1481 44.2742 27.1045 44.3303 27.0493L48.5519 23.0243C48.6866 23.0008 48.8252 23.0272 48.9419 23.0984C49.0587 23.1696 49.1455 23.2808 49.1862 23.4113C49.3434 23.9561 49.6307 24.4544 50.0234 24.8633C51.9398 26.8607 55.6667 26.1089 56.4523 22.5928C56.4922 22.4132 56.4985 22.2277 56.471 22.0457C56.2138 20.2983 55.1987 19.2272 53.9887 18.817C53.8645 18.7751 53.7589 18.6911 53.6901 18.5794C53.6214 18.4678 53.5939 18.3356 53.6124 18.2058L57.8082 14.2022C57.9208 14.0976 57.9891 13.9538 57.9988 13.8003C58.0086 13.6469 57.9591 13.4956 57.8607 13.3775Z" fill="#FCC969"/>
<path d="M38.6354 50.2575H38.6666L38.7555 50.27L44.2502 50.294C44.3291 50.2932 44.407 50.2768 44.4796 50.2459C44.5521 50.215 44.6179 50.17 44.673 50.1137C44.7282 50.0573 44.7718 49.9907 44.8012 49.9175C44.8306 49.8443 44.8454 49.7661 44.8445 49.6872L44.8677 43.8544C44.9439 43.741 45.0588 43.6592 45.1909 43.6243C45.3231 43.5894 45.4634 43.6039 45.5856 43.6649C46.0871 43.9291 46.6453 44.0671 47.212 44.0671C49.9789 44.0671 52.0225 40.8642 50.0278 37.858C49.9257 37.7055 49.797 37.5726 49.6479 37.4656C48.2084 36.4407 46.7351 36.4309 45.5999 37.0208C45.4831 37.0802 45.3494 37.0974 45.2214 37.0693C45.0934 37.0412 44.9791 36.9697 44.8979 36.8669L44.921 31.0697C44.9238 30.9155 44.8669 30.7662 44.762 30.6531C44.6572 30.54 44.5127 30.4719 44.3588 30.4629L44.1684 30.4264H38.9406C38.8492 30.41 38.7629 30.3725 38.6885 30.317C38.6141 30.2614 38.5536 30.1894 38.5117 30.1065C38.4699 30.0236 38.4479 29.9321 38.4474 29.8393C38.447 29.7464 38.4681 29.6548 38.5091 29.5715C38.7773 29.0412 38.9181 28.4557 38.9201 27.8615C38.9299 25.7752 37.268 24.0848 35.2324 24.1248C33.1941 24.0705 31.526 25.7538 31.5233 27.8401C31.5224 28.4349 31.6613 29.0216 31.929 29.5528C31.9693 29.6365 31.9896 29.7284 31.9885 29.8213C31.9873 29.9142 31.9646 30.0055 31.9222 30.0882C31.8798 30.1708 31.8188 30.2425 31.7441 30.2977C31.6693 30.3528 31.5828 30.3899 31.4913 30.406L26.2617 30.382L26.0731 30.4167C25.9647 30.4228 25.8602 30.4587 25.7709 30.5204C25.6816 30.5821 25.611 30.6671 25.5669 30.7663C25.6004 30.8597 25.6178 30.958 25.6185 31.0572L25.6087 37.043L25.2813 36.9781C25.2057 37.0136 25.123 37.0312 25.0395 37.0295C24.956 37.0278 24.874 37.0068 24.8 36.9683L24.6985 36.9238C24.516 36.925 24.3338 36.9387 24.1532 36.9647L24.106 36.971L24.058 36.9629C23.871 36.9222 23.6807 36.8983 23.4895 36.8918C21.8124 36.8918 20.4245 38.1898 20.2145 39.8722C20.1942 40.0196 20.1835 40.1682 20.1825 40.3171C20.1933 40.9835 20.3687 41.637 20.6932 42.2192C20.7688 42.3607 20.8435 42.503 20.9378 42.6463C21.0196 42.7684 21.123 42.8746 21.243 42.9594C22.0126 43.5039 22.7688 43.7237 23.4725 43.7254C23.6579 43.7236 23.8428 43.7081 24.0259 43.6792L24.074 43.6694L24.122 43.6774C24.2742 43.7032 24.3934 43.7263 24.5037 43.7397C24.598 43.7029 24.6903 43.6613 24.7804 43.6151C24.8677 43.5708 24.9654 43.5512 25.0631 43.5582C25.1607 43.5653 25.2546 43.5988 25.3347 43.6552L25.6016 43.6027L25.5918 49.6783C25.5905 49.7552 25.5801 49.8317 25.5606 49.9061C25.6064 50.0076 25.6802 50.0939 25.7733 50.1549C25.8665 50.2159 25.9751 50.249 26.0864 50.2504H31.5829L31.6665 50.2388H31.7003C32.1683 50.2388 32.4281 49.7103 32.1763 49.302C31.4512 48.1231 31.3569 46.4959 32.3774 44.9087C32.5975 44.6409 32.8549 44.406 33.1416 44.2112C33.7493 43.8106 34.4615 43.5979 35.1894 43.5997C35.9172 43.6014 36.6284 43.8175 37.2342 44.221C37.5197 44.4181 37.7761 44.6544 37.9957 44.923C39.0073 46.5146 38.9032 48.1418 38.1737 49.318C37.9103 49.7255 38.1675 50.2575 38.6354 50.2575Z" fill="white"/>
<path d="M19.1843 29.6641L19.1718 29.6953L19.1665 29.7068L19.1353 29.8323C19.1378 29.9005 19.1624 29.966 19.2054 30.019C19.2484 30.072 19.3075 30.1095 19.3738 30.1259L24.5633 30.117C24.6319 30.1204 24.6998 30.1327 24.7653 30.1535C24.9416 30.1618 25.1111 30.2239 25.251 30.3314L25.2848 30.1677L25.308 24.3349C25.3844 24.2218 25.4993 24.1402 25.6314 24.1054C25.7634 24.0705 25.9036 24.0848 26.0259 24.1454C26.5272 24.4099 27.0855 24.5479 27.6523 24.5476C30.4201 24.5476 32.4628 21.3447 30.4681 18.3385C30.3663 18.1858 30.2376 18.0529 30.0882 17.9461C28.6496 16.9203 27.1754 16.9114 26.0402 17.5013C25.9235 17.5611 25.7896 17.5784 25.6616 17.5503C25.5335 17.5222 25.4192 17.4505 25.3382 17.3474L25.3631 11.5511C25.365 11.3968 25.3075 11.2478 25.2025 11.1348C25.0975 11.0219 24.953 10.9537 24.7991 10.9443L24.6087 10.9078H19.3809C19.2895 10.8916 19.2031 10.8543 19.1285 10.7989C19.054 10.7435 18.9934 10.6716 18.9514 10.5887C18.9095 10.5059 18.8874 10.4144 18.8869 10.3216C18.8864 10.2287 18.9075 10.137 18.9485 10.0537C19.2194 9.52026 19.3608 8.93049 19.3613 8.33219C19.3711 6.2441 17.7092 4.55548 15.6718 4.59552C13.6353 4.54124 11.9663 6.22364 11.9636 8.30995C11.9626 8.90504 12.1015 9.49203 12.3693 10.0235C12.4098 10.107 12.4304 10.1987 12.4293 10.2915C12.4283 10.3843 12.4057 10.4756 12.3633 10.5582C12.321 10.6408 12.26 10.7124 12.1852 10.7673C12.1104 10.8223 12.0239 10.8591 11.9325 10.8749L6.7029 10.8527L6.5134 10.8874C6.35906 10.8956 6.21391 10.9633 6.10842 11.0763C6.00292 11.1893 5.94527 11.3387 5.94756 11.4932V17.2895C5.86593 17.3921 5.75111 17.4631 5.62285 17.4902C5.49458 17.5173 5.36087 17.4989 5.24471 17.4381C4.11214 16.8438 2.63794 16.8456 1.19398 17.8643C1.04412 17.9705 0.914548 18.1028 0.811416 18.2548C-1.19927 21.2504 0.829209 24.4666 3.59702 24.4773C4.16373 24.4805 4.72265 24.3452 5.22514 24.0832C5.34716 24.0239 5.48653 24.0109 5.61742 24.0465C5.7483 24.0822 5.86181 24.1641 5.93688 24.2771L5.93155 30.1099C5.93289 30.1805 5.94643 30.2503 5.97158 30.3163C6.11221 30.213 6.28036 30.1538 6.45468 30.1463C6.52016 30.1256 6.58803 30.1133 6.65664 30.1099L11.8471 30.1188C11.9131 30.1027 11.972 30.0655 12.0149 30.0128C12.0578 29.9601 12.0823 29.8948 12.0846 29.827L12.0535 29.6997L12.0481 29.6855L12.041 29.6713L12.0339 29.6535C11.7606 29.0999 11.6167 28.4914 11.6131 27.8741V27.8438C11.619 27.4593 11.6789 27.0774 11.791 26.7095C12.2679 25.0556 13.7483 23.8287 15.5277 23.8287H15.622H15.7003C17.4796 23.8287 18.9583 25.0556 19.4369 26.7095C19.5491 27.078 19.609 27.4605 19.6149 27.8456V27.8536C19.6134 28.4823 19.466 29.1021 19.1843 29.6641Z" fill="white"/>
<path d="M20.9868 37.2252C21.6876 36.5935 22.5966 36.2422 23.5402 36.2386V36.5313V36.2386C23.7549 36.2442 23.9687 36.2692 24.1789 36.3133C24.3748 36.2866 24.5721 36.2717 24.7697 36.2688C24.8667 36.2688 24.9636 36.2688 25.0615 36.283L25.0686 31.0046C25.0708 30.931 25.0456 30.8593 24.998 30.8032C24.9503 30.7472 24.8836 30.7108 24.8106 30.7012H24.7911H24.7466L24.703 30.6852L24.614 30.6683L19.3595 30.6771L19.3337 30.6727C19.1399 30.6367 18.9633 30.5381 18.831 30.392C18.6987 30.2459 18.6181 30.0604 18.6015 29.864L18.5864 29.7848C18.5876 29.6551 18.618 29.5274 18.6754 29.4111L18.6878 29.3809L18.694 29.3711C18.9362 28.8872 19.0623 28.3535 19.0624 27.8124V27.8044C19.0571 27.4758 19.0056 27.1497 18.9093 26.8355C18.501 25.4138 17.2439 24.3809 15.7501 24.3809H15.5775C14.8999 24.3823 14.2405 24.6005 13.6958 25.0036C13.0791 25.4534 12.6299 26.0957 12.4191 26.8293C12.3673 27.009 12.3281 27.1921 12.3017 27.3773C12.2789 27.5156 12.2664 27.6554 12.2643 27.7955V27.8053C12.2643 28.346 12.391 28.8793 12.6344 29.3622L12.6415 29.3755L12.6469 29.3898L12.654 29.4067C12.71 29.5222 12.7403 29.6484 12.7429 29.7768L12.7296 29.8489C12.7143 30.0464 12.6343 30.2333 12.5019 30.3807C12.3695 30.528 12.1921 30.6276 11.9974 30.6638L11.9725 30.6683L6.71801 30.6594L6.6753 30.6674L6.62904 30.6763L6.58633 30.6923H6.54007C6.46315 30.698 6.39135 30.733 6.33952 30.7901C6.28769 30.8472 6.25979 30.9221 6.2616 30.9992L6.27139 36.9032L6.20288 36.9877C6.12096 37.0875 6.01808 37.1681 5.90154 37.2238C5.785 37.2794 5.65765 37.3088 5.5285 37.3097C5.38988 37.3097 5.25336 37.2758 5.13081 37.211C4.67118 36.973 4.16083 36.8497 3.64326 36.8516C2.93151 36.8516 2.16638 37.0811 1.39058 37.6318C1.27037 37.7164 1.1669 37.8226 1.08542 37.945C0.551609 38.7412 0.330078 39.5375 0.330078 40.2733C0.330078 42.1665 1.81585 43.6923 3.63436 43.695H3.6397C4.15714 43.696 4.66705 43.5711 5.12547 43.3311C5.24446 43.2691 5.37654 43.2365 5.51071 43.2359C5.65058 43.2383 5.78792 43.2736 5.91159 43.339C6.03525 43.4044 6.14176 43.498 6.22245 43.6123L6.27939 43.6923L6.28829 49.6203C6.28614 49.6997 6.31556 49.7767 6.3701 49.8344C6.42464 49.8921 6.49985 49.9258 6.57922 49.9281L12.0534 49.9192L12.1424 49.9059H12.1967C12.233 49.9069 12.2691 49.9002 12.3026 49.886C12.336 49.8719 12.3661 49.8508 12.3906 49.824C12.4417 49.764 12.4695 49.6876 12.4689 49.6087L12.4173 49.4264C12.0194 48.7817 11.8093 48.0389 11.8106 47.2813C11.8106 46.4539 12.057 45.5696 12.6059 44.7119L12.6166 44.6959L12.6273 44.6834C12.8662 44.3938 13.1448 44.1392 13.4547 43.9272L13.4618 43.9228L13.468 43.9174C14.1286 43.5076 14.8859 43.2802 15.6629 43.2582H15.6718C16.4475 43.2812 17.2033 43.5093 17.8622 43.9192H17.8693L17.8773 43.9254C18.187 44.1374 18.4652 44.392 18.7038 44.6817L18.7145 44.6959L18.7252 44.7101C19.2732 45.5678 19.5206 46.4521 19.5188 47.2813C19.5208 48.0388 19.3109 48.7818 18.9129 49.4264L18.8604 49.6043C18.8597 49.6833 18.8879 49.7598 18.9396 49.8196C18.9643 49.8464 18.9945 49.8676 19.0281 49.8817C19.0617 49.8958 19.098 49.9026 19.1344 49.9014H19.1869H19.2074L19.2732 49.9112L24.7492 49.9201C24.8286 49.9178 24.9038 49.8841 24.9584 49.8264C25.0129 49.7687 25.0423 49.6917 25.0402 49.6123L25.0499 44.2591C24.9226 44.2766 24.7942 44.2858 24.6656 44.2866C24.4789 44.2779 24.2934 44.2523 24.1113 44.2101C23.9177 44.2409 23.722 44.2573 23.5259 44.2591C22.7252 44.2591 21.8738 44.0046 21.0428 43.4406L20.9485 43.3836C20.7697 43.2553 20.6154 43.0959 20.493 42.913C20.1988 42.4753 19.9732 41.9953 19.8239 41.4895C19.7812 41.3418 19.7492 41.1941 19.7216 41.0446C19.6686 40.781 19.6406 40.5129 19.638 40.2439C19.638 39.6742 19.7581 39.1109 19.9905 38.5908C20.2229 38.0706 20.5624 37.6053 20.9868 37.2252Z" fill="white"/>
</svg>
