<svg width="111" height="111" viewBox="0 0 111 111" fill="none" xmlns="http://www.w3.org/2000/svg">
<mask id="mask0" mask-type="alpha" maskUnits="userSpaceOnUse" x="0" y="0" width="111" height="111">
<circle cx="55.5" cy="55.5" r="55.5" fill="white"/>
</mask>
<g mask="url(#mask0)">
<path fill-rule="evenodd" clip-rule="evenodd" d="M52.7494 51.2992C55.7231 47.8086 57.7358 43.531 57.3995 38.7377C56.4305 24.9269 37.2054 27.9651 33.4657 34.9356C29.726 41.9061 30.1704 59.5873 35.0036 60.8331C36.9311 61.33 41.0372 60.1129 45.2162 57.594L42.5931 76.1515H58.0815L52.7494 51.2992Z" fill="#D2C3A8"/>
<path fill-rule="evenodd" clip-rule="evenodd" d="M42.2936 26.9017C44.3349 26.5669 49.8313 26.3368 50.8449 26.3369C51.4927 26.3369 52.1946 26.4849 52.5783 25.8901C52.8924 25.4031 52.7774 24.5793 52.8711 24.0141C52.98 23.3575 53.1346 22.7094 53.2911 22.063C53.7362 20.2234 54.4093 18.4732 55.351 16.8301C57.1182 13.7473 59.707 11.3325 62.9752 9.92739C66.5843 8.3759 70.6683 8.02064 74.5504 8.33534C78.7047 8.67203 82.4653 10.0434 86.3877 11.334C90.1255 12.5638 94.0405 13.0479 97.9498 12.4473C101.889 11.8423 104.865 9.70749 108.187 7.68128C111.588 5.60693 115.475 4.25023 119.496 4.56211C123.249 4.85333 126.708 6.40303 129.812 8.47322C132.715 10.4101 135.111 12.7405 136.464 16.0203C137.919 19.5484 137.918 23.421 135.525 26.539C132.056 31.0585 125.617 32.2273 120.26 32.1111C117.161 32.0441 114.118 31.4784 111.193 30.4495C107.291 29.0772 103.92 26.7513 100.27 24.8642C98.5568 23.9786 96.7863 23.2513 94.9304 22.7274C93.1295 22.2188 91.3557 21.9855 89.7251 23.0735C88.0002 24.2244 86.4545 25.3549 84.4812 26.0754C82.5881 26.7666 80.5829 27.1532 78.5661 27.1376C74.6419 27.1073 70.7736 25.8846 66.9623 25.0656C63.8544 24.3979 60.5289 23.7324 57.3604 24.3743C56.0382 24.6422 54.1069 25.1952 53.6294 26.5693C61.6668 28.026 64.8235 37.9661 62.5577 45.2631C61.3347 49.2016 53.9835 53.8056 51.1253 51.7351C49.3145 50.4233 50.4138 48.7013 51.1253 47.5645C52.4878 45.3875 52.9539 42.591 50.4328 41.0753C48.2582 39.7681 45.9717 42.8724 45.9284 42.869C45.3308 42.8219 40.1662 39.9011 36.6079 35.639C33.0977 35.847 32.5651 33.5325 33.4033 31.6396C34.2415 29.7467 39.4731 27.3645 42.2936 26.9017Z" fill="#191847"/>
<path fill-rule="evenodd" clip-rule="evenodd" d="M3.87228 112.044L-19.5117 101.774C-23.608 97.6925 -27.5636 94.5901 -31.3784 92.4671C-32.5191 92.1039 -34.468 91.9942 -32.3887 95.0312C-30.3094 98.0682 -28.2589 101.356 -29.0898 102.421C-29.9206 103.485 -32.3273 102.31 -33.2781 104.041C-33.912 105.195 -29.8551 106.575 -21.1075 108.182L-3.59438 121.609L3.87228 112.044ZM98.4105 114.872L85.1862 117.496C98.4855 142.281 105.618 155.417 106.583 156.904C108.754 160.25 106.728 166.382 105.98 169.612C110.675 170.704 108.823 163.638 114.764 165.114C120.187 166.46 124.785 169.916 129.842 165.255C130.464 164.682 130.919 162.891 128.799 161.972C123.518 159.684 115.716 155.398 114.451 153.734C112.726 151.465 107.379 138.511 98.4105 114.872Z" fill="#B28B67"/>
<path fill-rule="evenodd" clip-rule="evenodd" d="M49.2435 65.3949L43.6631 64.4377C31.5084 76.2283 26.5483 104.555 18.4481 108.304C10.7896 111.849 -0.0667416 108.419 -12.9713 103.787L-16.9232 112.617C-5.19821 125.302 19.7806 136.018 29.9055 129.9C46.0932 120.119 49.8302 85.1823 49.2435 65.3949Z" fill="#DB2721"/>
<path fill-rule="evenodd" clip-rule="evenodd" d="M73.5699 135.524C51.1945 135.524 34.7357 135.524 24.1933 135.524C21.9371 135.524 22.3622 132.266 22.6884 130.622C26.4526 111.648 41.1467 91.1956 41.1467 64.1872L55.3892 61.9539C67.1696 80.9003 71.2435 104.227 73.5699 135.524Z" fill="#DDE3E9"/>
<path fill-rule="evenodd" clip-rule="evenodd" d="M78.4947 116.314C88.5605 134.47 97.0213 147.542 103.877 155.529L114.227 153.502C107.56 112.156 88.2538 81.6398 56.3081 61.9539H56.1455L50.6688 61.9539C37.8828 105.539 34.3579 134.579 40.0942 149.076H84.5408C83.8376 138.469 81.5829 127.251 78.4947 116.314H78.4947Z" fill="#FF4133"/>
</g>
</svg>
