<svg width="110" height="110" viewBox="0 0 110 110" fill="none" xmlns="http://www.w3.org/2000/svg">
<mask id="mask0" mask-type="alpha" maskUnits="userSpaceOnUse" x="0" y="0" width="110" height="110">
<circle cx="55" cy="55" r="55" fill="white"/>
</mask>
<g mask="url(#mask0)">
<path fill-rule="evenodd" clip-rule="evenodd" d="M60.5881 43.1494C63.535 39.6904 65.5295 35.4512 65.1962 30.7011C64.2359 17.0147 45.1841 20.0256 41.4781 26.9333C37.7721 33.841 38.2125 51.3629 43.0021 52.5975C44.9122 53.0899 48.9813 51.8838 53.1227 49.3876L50.5232 67.7778H65.8721L60.5881 43.1494Z" fill="#D2C3A8"/>
<path fill-rule="evenodd" clip-rule="evenodd" d="M52.3553 32.2124C51.7678 40.3966 50.2136 44.4887 47.6928 44.4887C43.9113 44.4887 40.703 42.0881 39.0438 42.0881C37.8343 42.0881 38.1044 43.6017 38.9061 44.7239C39.5675 45.6498 42.7887 46.5422 42.7887 47.9776C42.7887 49.413 40.2437 48.3025 40.2437 49.1538C40.2437 50.562 39.7964 53.2096 42.2405 53.2096C44.7139 53.2096 51.8056 52.3083 53.021 48.6373C53.8053 46.2681 54.3124 41.3588 54.5424 33.9092C54.6924 33.8914 54.8451 33.8822 55 33.8822C57.1192 33.8822 58.8372 35.6002 58.8372 37.7194C58.8372 38.7953 58.3944 39.7677 57.6812 40.4645C58.5691 41.7177 59.5641 43.0269 60.7044 44.3778C64.988 41.8078 68.1666 34.2845 63.9787 27.0573C62.8212 23.5168 60.2006 21.6257 57.1057 20.7476C54.5987 19.6989 51.9961 19.5807 49.7992 20.2094C45.4927 20.5787 41.6471 21.8919 40.5572 22.6718C40.5572 26.749 41.3472 27.9587 48.095 27.852C49.7531 28.7277 51.0277 30.2355 52.3553 32.2124Z" fill="#191847"/>
<path fill-rule="evenodd" clip-rule="evenodd" d="M57.1134 57.1178L51.5833 56.1692C31.0649 73.8942 22.6372 107.946 -2.51331 125.985L3.54021 133.488C47.1718 128.086 57.9862 86.5509 57.1134 57.1178Z" fill="#69A1AC"/>
<path fill-rule="evenodd" clip-rule="evenodd" d="M81.2207 126.615C59.0469 126.615 42.7363 126.615 32.289 126.615C30.053 126.615 30.4743 123.386 30.7976 121.757C34.5279 102.955 49.0896 82.6863 49.0896 55.9213L63.2039 53.708C74.8781 72.4837 78.9153 95.6005 81.2207 126.615Z" fill="#DDE3E9"/>
<path fill-rule="evenodd" clip-rule="evenodd" d="M80.8275 72.1635C82.8774 71.5742 84.5007 70.1999 85.6975 68.0405C90.8562 58.732 88.9932 53.607 83.4801 51.9224C77.967 50.2378 73.0504 53.7078 64.2666 53.7078C63.7889 53.7078 63.3513 53.7377 62.9539 53.7976L58.5354 54.0498C45.8583 97.014 42.362 125.679 48.0466 140.045H86.5597C88.8415 145.366 91.0251 149.843 93.1103 153.475H103.604C104.592 121.541 96.9998 94.4375 80.8275 72.1635Z" fill="#89C5CC"/>
</g>
</svg>
