<svg width="110" height="110" viewBox="0 0 110 110" fill="none" xmlns="http://www.w3.org/2000/svg">
<mask id="mask0" mask-type="alpha" maskUnits="userSpaceOnUse" x="0" y="0" width="110" height="110">
<circle cx="55" cy="55" r="55" fill="white"/>
</mask>
<g mask="url(#mask0)">
<path fill-rule="evenodd" clip-rule="evenodd" d="M58.6695 46.3599C61.6165 42.9008 63.611 38.6616 63.2777 33.9115C62.3174 20.2252 43.2655 23.236 39.5596 30.1437C35.8536 37.0514 36.2939 54.5733 41.0836 55.8079C42.9937 56.3003 47.0628 55.0942 51.2042 52.598L48.6047 70.9883H63.9536L58.6695 46.3599Z" fill="#D2C3A8"/>
<path fill-rule="evenodd" clip-rule="evenodd" d="M53.8937 38.9263C54.3957 38.5813 54.9953 38.3718 55.6395 38.3718C57.4055 38.3718 58.8372 39.9466 58.8372 41.5695C58.8372 43.2578 58.0399 44.5631 56.9014 45.1169C57.5095 46.3058 58.1209 47.1686 58.8372 47.3253C61.6012 47.0457 65.2325 40.1756 65.2325 34.5346C65.2325 28.3602 60.3196 23.0229 51.1628 23.0229C42.9326 23.0229 39.8119 26.4165 39.6511 29.4183C43.178 30.3876 49.3406 30.7608 58.1977 30.6974V31.3369L50.5232 31.9764L49.2442 35.8136C51.2791 35.6617 52.7333 37.0575 53.8937 38.9263Z" fill="#191847"/>
<path fill-rule="evenodd" clip-rule="evenodd" d="M11.5823 111.363L-8.81773 126.343C-14.3506 127.836 -18.9732 129.694 -22.6854 131.916C-23.5623 132.715 -24.6222 134.333 -20.9855 134.053C-17.3488 133.774 -13.5109 133.643 -13.0092 134.884C-12.5074 136.124 -14.7081 137.607 -13.6938 139.281C-13.0175 140.397 -9.82276 137.599 -4.10945 130.888L16.092 122.511L11.5823 111.363ZM103.899 105.123L92.6365 107.163C105.709 133.103 112.71 146.818 113.641 148.309C115.735 151.664 113.621 157.709 112.823 160.897C117.458 162.062 115.745 155.024 121.608 156.59C126.959 158.019 131.457 161.524 136.549 156.991C137.175 156.434 137.657 154.666 135.572 153.718C130.378 151.358 122.719 146.974 121.494 145.303C119.824 143.024 113.959 129.63 103.899 105.123Z" fill="#B28B67"/>
<path fill-rule="evenodd" clip-rule="evenodd" d="M6.82991 112.992C4.2052 112.803 1.35015 113.238 -1.71085 114.269C-3.21707 114.777 -4.02669 116.409 -3.51919 117.916C-3.22443 118.79 -2.55021 119.43 -1.74165 119.713C-2.32735 120.141 -2.91824 120.566 -3.51439 120.988L1.63206 131.494C23.2886 120.697 43.6437 112.555 52.919 94.7289C56.0321 88.7458 54.9784 68.4227 55.2755 61.0292L48.4357 58.2241C38.9012 77.9325 25.9977 96.8404 6.82991 112.992Z" fill="#69A1AC"/>
<path fill-rule="evenodd" clip-rule="evenodd" d="M79.3023 129.768C59.1964 131.976 43.3708 131.976 31.8256 129.768C30.3953 129.494 30.4581 123.328 31.1214 121.644C41.4513 95.4196 48.2463 76.2222 48.2463 58.0073C50.1417 58.9974 53.4588 59.1458 58.1977 58.4524C70.9332 77.2234 76.7873 98.761 79.3023 129.768Z" fill="#191847"/>
<path fill-rule="evenodd" clip-rule="evenodd" d="M83.0381 132.868C83.7209 132.226 84.0769 131.263 83.9019 130.27L83.5688 128.381C83.343 127.101 82.3031 126.168 81.0753 126.022C80.8606 125.063 80.6756 124.11 80.5227 123.164C79.2316 115.172 81.4375 107.336 81.3339 99.6407C91.6177 108.415 100.843 123.565 109.01 145.092L121.089 141.538C120.628 139.825 120.151 138.134 119.657 136.464C121.051 135.672 122.68 132.042 121.507 131.435C120.297 130.807 119.014 130.366 117.663 130.106C106.588 96.7481 88.4767 72.3523 63.3295 56.9185L59.875 56.9185L56.0562 56.9185C58.1977 85.2375 28.6194 147.064 38.8897 199.866C57.8729 204.105 84.9738 190.916 111.354 201.453C110.372 180.189 90.7096 155.209 83.0381 132.868V132.868Z" fill="#89C5CC"/>
<path fill-rule="evenodd" clip-rule="evenodd" d="M60.6882 57.5576L63.9877 67.7041L57.3433 75.3105L63.3481 81.2879L48.8207 106.162L66.5861 81.3376L60.6882 75.3105L66.5861 68.5886L60.6882 57.5576Z" fill="black" fill-opacity="0.1"/>
</g>
</svg>
