<svg width="180" height="171" viewBox="0 0 180 171" fill="none" xmlns="http://www.w3.org/2000/svg">
<ellipse cx="129" cy="120.5" rx="13" ry="13.5" fill="#FCC969"/>
<ellipse cx="55.5" cy="61" rx="34.5" ry="34" fill="#C7EEFF"/>
<path d="M28.7568 98.73H20.598V99.7057H28.7568V98.73Z" fill="#171550"/>
<path d="M25.2254 95.071H24.2512V103.365H25.2254V95.071Z" fill="#171550"/>
<path d="M13.6089 135.541L13 134.809L17.5056 131.394L18.1144 132.126L13.6089 135.541ZM22.62 128.833L22.0111 128.101L26.5167 124.686L27.1256 125.418L22.62 128.833ZM31.6312 122.125L31.0223 121.393L35.5279 117.978L36.1367 118.71L31.6312 122.125ZM40.6423 115.417L40.0334 114.685L44.539 111.27L45.1479 112.002L40.6423 115.417ZM49.6534 108.587L49.0446 107.855L53.5502 104.44L54.159 105.172L49.6534 108.587ZM58.6646 101.879L58.0557 101.147L62.5613 97.7319L63.1702 98.4637L58.6646 101.879Z" fill="#FCC969"/>
<path d="M62.9266 102.367L61.9524 102.123L62.8048 98.2197L58.9081 97.9757V97L64.0225 97.3659L62.9266 102.367Z" fill="#FCC969"/>
<path d="M158.8 27.1669L155.776 22.1544L153.795 23.3497C152.411 21.7632 150.673 20.5327 148.852 19.637L149.43 17.2942L143.742 15.8827L143.165 18.2254C141.138 18.1664 139.029 18.442 137.067 19.1982L135.807 17.1096L130.802 20.1294L132 22.1135C130.416 23.4963 129.189 25.2339 128.297 27.0545L125.955 26.4733L124.552 32.1629L126.894 32.7441C126.838 34.7723 127.116 36.8835 127.875 38.8475L125.894 40.0428L128.918 45.0554L130.899 43.86C132.283 45.4465 134.021 46.677 135.842 47.5728L135.264 49.9155L140.952 51.3271L141.529 48.9843C143.556 49.0434 145.665 48.7678 147.627 48.0116L148.824 49.9957L153.828 46.9759L152.631 44.9918C154.215 43.609 155.442 41.8714 156.334 40.0508L158.676 40.632L160.079 34.9424L157.737 34.3612C157.793 32.333 157.515 30.2218 156.756 28.2578L158.737 27.0625L158.8 27.1669ZM147.337 42.346C142.645 45.177 136.456 43.6409 133.62 38.9417C130.785 34.2425 132.311 28.0509 137.003 25.2199C141.695 22.3888 147.884 23.9249 150.719 28.6241C153.555 33.3234 152.133 39.452 147.337 42.346Z" fill="#7FCAE0"/>
<path d="M140.973 31.7988C139.826 32.4908 139.559 33.934 140.189 34.9783C140.882 36.127 142.324 36.3962 143.367 35.7671C144.514 35.075 144.781 33.6319 144.151 32.5876C143.562 31.376 142.119 31.1068 140.973 31.7988Z" fill="#7FCAE0"/>
<path d="M118.741 31.2533L116.914 28.225L115.767 28.917C114.928 27.9985 113.881 27.2059 112.751 26.748L113.081 25.4092L109.736 24.5789L109.406 25.9177C108.194 25.7944 106.899 26.0058 105.731 26.4261L105.037 25.2774L102.014 27.1018L102.707 28.2505C101.79 29.0885 101 30.1353 100.544 31.2652L99.2055 30.9331L98.3805 34.2799L99.7187 34.612C99.5973 35.8249 99.8103 37.1208 100.232 38.2909L99.085 38.9829L100.912 42.0113L102.059 41.3193C102.898 42.2378 103.945 43.0304 105.075 43.4883L104.745 44.827L108.09 45.6573L108.42 44.3186C109.632 44.4419 110.927 44.2305 112.096 43.8102L112.789 44.9589L115.812 43.1345L115.119 41.9858C116.036 41.1478 116.826 40.101 117.282 38.9711L118.621 39.3032L119.446 35.9564L118.107 35.6243C118.229 34.4114 118.016 33.1155 117.594 31.9454L118.741 31.2533ZM112.021 40.1514C109.206 41.8501 105.63 40.8738 103.992 38.1587C102.354 35.4436 103.261 31.7621 105.972 30.1264C108.787 28.4278 112.363 29.404 114.001 32.1191C115.64 34.8342 114.836 38.4528 112.021 40.1514Z" fill="#7FCAE0"/>
<path d="M108.24 33.886C107.615 34.2634 107.409 35.0999 107.787 35.7264C108.165 36.3528 109.001 36.5604 109.626 36.183C110.252 35.8056 110.458 34.9691 110.08 34.3426C109.702 33.7161 108.866 33.5086 108.24 33.886Z" fill="#7FCAE0"/>
<path d="M142.763 62.3426L139.801 57.4345L137.82 58.6298C136.436 57.0433 134.761 55.9173 132.941 55.0215L133.477 52.8461L127.957 51.4761L127.421 53.6515C125.394 53.5924 123.389 53.8051 121.427 54.5613L120.23 52.5772L115.33 55.534L116.527 57.5182C114.944 58.901 113.821 60.5756 112.928 62.3963L110.754 61.8566L109.392 67.3788L111.567 67.9185C111.511 69.9467 111.726 71.9535 112.484 73.9175L110.504 75.1128L113.465 80.0209L115.446 78.8256C116.83 80.4121 118.505 81.5381 120.326 82.4339L119.789 84.6093L125.309 85.9793L125.846 83.8039C127.872 83.863 129.877 83.6503 131.839 82.8941L133.036 84.8782L137.936 81.9213L136.739 79.9372C138.323 78.5544 139.445 76.8797 140.338 75.0591L142.513 75.5988L143.874 70.0766L141.699 69.5369C141.755 67.5087 141.54 65.5019 140.782 63.5379L142.763 62.3426ZM131.695 76.9982C127.107 79.7664 121.085 78.2718 118.313 73.677C115.54 69.0822 117.025 63.0579 121.613 60.2898C126.2 57.5217 132.222 59.0162 134.995 63.611C137.726 68.3732 136.282 74.2301 131.695 76.9982Z" fill="#7FCAE0"/>
<path d="M125.52 66.7644C124.477 67.3935 124.043 68.7951 124.736 69.9438C125.366 70.9881 126.767 71.4246 127.914 70.7326C128.957 70.1035 129.391 68.7019 128.698 67.5532C127.9 66.4674 126.562 66.1353 125.52 66.7644Z" fill="#7FCAE0"/>
<path d="M121.829 115.926H47.9403C44.8245 115.926 42.1538 113.408 42.1538 110.149V51.1973C42.1538 48.0868 44.6761 45.4207 47.9403 45.4207H121.829C124.945 45.4207 127.615 47.9387 127.615 51.1973V110.149C127.615 113.408 125.093 115.926 121.829 115.926Z" fill="#FAFBFC" stroke="#192657" stroke-width="3" stroke-miterlimit="10"/>
<path d="M42.1538 97.2627H127.615" stroke="#192657" stroke-width="3" stroke-miterlimit="10"/>
<path d="M88.2971 107.039C88.2971 108.964 86.8134 110.445 84.8846 110.445C82.9558 110.445 81.472 108.964 81.472 107.039C81.472 105.113 82.9558 103.632 84.8846 103.632C86.8134 103.632 88.2971 105.113 88.2971 107.039Z" fill="#192657"/>
<path d="M95.1222 115.926H74.647V127.035H95.1222V115.926Z" fill="#FAFBFC" stroke="#192657" stroke-width="3" stroke-miterlimit="10"/>
<path d="M104.47 136.218H65.2997C63.3709 136.218 61.8872 134.737 61.8872 132.811V130.589C61.8872 128.664 63.5193 127.183 65.2997 127.183H104.321C106.25 127.183 107.734 128.664 107.734 130.589V132.811C107.882 134.737 106.398 136.218 104.47 136.218Z" fill="#FAFBFC" stroke="#192657" stroke-width="3" stroke-miterlimit="10"/>
</svg>
