<svg width="179" height="171" viewBox="0 0 179 171" fill="none" xmlns="http://www.w3.org/2000/svg">
<ellipse cx="128" cy="120.5" rx="13" ry="13.5" fill="#FCC969"/>
<ellipse cx="54.5" cy="61" rx="34.5" ry="34" fill="#C7EEFF"/>
<path d="M27.7569 98.73H19.5981V99.7057H27.7569V98.73Z" fill="#171550"/>
<path d="M24.2255 95.071H23.2513V103.365H24.2255V95.071Z" fill="#171550"/>
<path d="M12.6089 135.541L12 134.809L16.5056 131.394L17.1144 132.126L12.6089 135.541ZM21.62 128.833L21.0111 128.101L25.5167 124.686L26.1256 125.418L21.62 128.833ZM30.6312 122.125L30.0223 121.393L34.5279 117.978L35.1367 118.71L30.6312 122.125ZM39.6423 115.417L39.0334 114.685L43.539 111.27L44.1479 112.002L39.6423 115.417ZM48.6534 108.587L48.0446 107.855L52.5502 104.44L53.159 105.172L48.6534 108.587ZM57.6646 101.879L57.0557 101.147L61.5613 97.7319L62.1702 98.4637L57.6646 101.879Z" fill="#FCC969"/>
<path d="M61.9267 102.367L60.9525 102.123L61.8049 98.2197L57.9082 97.9757V97L63.0226 97.3659L61.9267 102.367Z" fill="#FCC969"/>
<path d="M157.8 27.1669L154.776 22.1544L152.795 23.3497C151.411 21.7632 149.673 20.5327 147.852 19.637L148.43 17.2942L142.742 15.8827L142.165 18.2254C140.138 18.1664 138.029 18.442 136.067 19.1982L134.807 17.1096L129.802 20.1294L131 22.1135C129.416 23.4963 128.189 25.2339 127.297 27.0545L124.955 26.4733L123.552 32.1629L125.894 32.7441C125.838 34.7723 126.116 36.8835 126.875 38.8475L124.894 40.0428L127.918 45.0554L129.899 43.86C131.283 45.4466 133.021 46.677 134.842 47.5728L134.264 49.9155L139.952 51.3271L140.529 48.9843C142.556 49.0434 144.665 48.7678 146.627 48.0116L147.824 49.9957L152.828 46.9759L151.631 44.9918C153.215 43.609 154.442 41.8714 155.334 40.0508L157.676 40.632L159.079 34.9424L156.737 34.3612C156.793 32.333 156.515 30.2218 155.756 28.2578L157.737 27.0625L157.8 27.1669ZM146.337 42.346C141.645 45.177 135.456 43.6409 132.62 38.9417C129.785 34.2425 131.311 28.0509 136.003 25.2199C140.695 22.3888 146.884 23.9249 149.719 28.6241C152.555 33.3234 151.133 39.452 146.337 42.346Z" fill="#7FCAE0"/>
<path d="M139.973 31.7988C138.826 32.4908 138.559 33.934 139.189 34.9783C139.882 36.127 141.325 36.3962 142.367 35.7671C143.514 35.075 143.781 33.6319 143.151 32.5876C142.562 31.376 141.12 31.1068 139.973 31.7988Z" fill="#7FCAE0"/>
<path d="M117.741 31.2534L115.914 28.225L114.767 28.917C113.928 27.9986 112.881 27.2059 111.751 26.748L112.081 25.4093L108.736 24.579L108.406 25.9177C107.194 25.7944 105.899 26.0058 104.73 26.4261L104.037 25.2774L101.014 27.1018L101.707 28.2505C100.79 29.0885 99.9996 30.1353 99.5436 31.2652L98.2054 30.9331L97.3804 34.2799L98.7186 34.612C98.5972 35.8249 98.8102 37.1208 99.2318 38.2909L98.0849 38.983L99.9123 42.0114L101.059 41.3193C101.898 42.2378 102.945 43.0304 104.075 43.4883L103.745 44.8271L107.09 45.6574L107.42 44.3186C108.632 44.4419 109.927 44.2305 111.096 43.8102L111.789 44.9589L114.812 43.1345L114.119 41.9858C115.036 41.1478 115.826 40.101 116.282 38.9711L117.621 39.3032L118.446 35.9564L117.107 35.6243C117.229 34.4114 117.016 33.1155 116.594 31.9454L117.741 31.2534ZM111.021 40.1514C108.206 41.8501 104.63 40.8738 102.992 38.1587C101.354 35.4436 102.261 31.7621 104.972 30.1264C107.787 28.4278 111.363 29.404 113.001 32.1191C114.64 34.8343 113.836 38.4528 111.021 40.1514Z" fill="#7FCAE0"/>
<path d="M107.24 33.886C106.615 34.2634 106.409 35.0999 106.787 35.7264C107.165 36.3528 108.001 36.5604 108.626 36.183C109.252 35.8056 109.458 34.9691 109.08 34.3426C108.702 33.7162 107.866 33.5086 107.24 33.886Z" fill="#7FCAE0"/>
<path d="M141.763 62.3423L138.801 57.4342L136.82 58.6296C135.436 57.043 133.761 55.917 131.941 55.0212L132.477 52.8458L126.957 51.4758L126.421 53.6512C124.394 53.5922 122.389 53.8048 120.427 54.5611L119.23 52.5769L114.33 55.5338L115.527 57.5179C113.944 58.9007 112.821 60.5754 111.928 62.396L109.754 61.8563L108.392 67.3785L110.567 67.9182C110.511 69.9464 110.726 71.9532 111.484 73.9172L109.504 75.1125L112.465 80.0206L114.446 78.8253C115.83 80.4118 117.505 81.5379 119.326 82.4336L118.789 84.6091L124.309 85.9791L124.846 83.8036C126.872 83.8627 128.877 83.65 130.839 82.8938L132.036 84.8779L136.936 81.9211L135.739 79.9369C137.323 78.5542 138.445 76.8795 139.338 75.0589L141.513 75.5986L142.874 70.0764L140.699 69.5367C140.755 67.5085 140.54 65.5017 139.782 63.5377L141.763 62.3423ZM130.695 76.998C126.107 79.7661 120.085 78.2715 117.313 73.6767C114.54 69.0819 116.025 63.0577 120.613 60.2896C125.2 57.5214 131.222 59.016 133.995 63.6108C136.726 68.3729 135.282 74.2298 130.695 76.998Z" fill="#7FCAE0"/>
<path d="M124.52 66.7641C123.477 67.3933 123.043 68.7949 123.736 69.9436C124.366 70.9879 125.767 71.4244 126.914 70.7324C127.957 70.1033 128.391 68.7016 127.698 67.5529C126.9 66.4671 125.562 66.135 124.52 66.7641Z" fill="#7FCAE0"/>
<path d="M68.1987 128.731C68.1987 131.99 65.5603 134.629 62.3011 134.629C59.042 134.629 56.4036 131.99 56.4036 128.731C56.4036 125.472 59.042 122.833 62.3011 122.833C65.5603 122.989 68.1987 125.472 68.1987 128.731Z" fill="#FAFBFC" stroke="#192657" stroke-width="3" stroke-miterlimit="10" stroke-linecap="round" stroke-linejoin="round"/>
<path d="M107.154 130.749C109.897 130.749 112.12 128.525 112.12 125.782C112.12 123.039 109.897 120.816 107.154 120.816C104.411 120.816 102.188 123.039 102.188 125.782C102.188 128.525 104.411 130.749 107.154 130.749Z" fill="#FAFBFC" stroke="#192657" stroke-width="3" stroke-miterlimit="10" stroke-linecap="round" stroke-linejoin="round"/>
<path d="M108.55 95.2081H61.2145L53.9202 64.6338H116L108.55 95.2081Z" fill="#FAFBFC" stroke="#192657" stroke-width="3" stroke-miterlimit="10" stroke-linecap="round" stroke-linejoin="round"/>
<path d="M62.9219 127.955L70.0611 120.816H109.792C113.207 120.816 115.845 118.022 115.845 114.763C115.845 111.349 113.051 108.71 109.792 108.71H64.3187L48.7988 43.3713H33.8997" stroke="#192657" stroke-width="3" stroke-miterlimit="10" stroke-linecap="round" stroke-linejoin="round"/>
<path d="M56.5588 74.4111H96.1347" stroke="#192657" stroke-width="3" stroke-miterlimit="10" stroke-linecap="round" stroke-linejoin="round"/>
<path d="M58.7317 84.6543H84.9604" stroke="#192657" stroke-width="3" stroke-miterlimit="10" stroke-linecap="round" stroke-linejoin="round"/>
</svg>
