<svg width="180" height="171" viewBox="0 0 180 171" fill="none" xmlns="http://www.w3.org/2000/svg">
<ellipse cx="129" cy="120.5" rx="13" ry="13.5" fill="#FCC969"/>
<ellipse cx="55.5" cy="61" rx="34.5" ry="34" fill="#C7EEFF"/>
<path d="M28.7569 98.73H20.5981V99.7057H28.7569V98.73Z" fill="#171550"/>
<path d="M25.2255 95.071H24.2513V103.365H25.2255V95.071Z" fill="#171550"/>
<path d="M13.6089 135.541L13 134.809L17.5056 131.394L18.1144 132.126L13.6089 135.541ZM22.62 128.833L22.0111 128.101L26.5167 124.686L27.1256 125.418L22.62 128.833ZM31.6312 122.125L31.0223 121.393L35.5279 117.978L36.1367 118.71L31.6312 122.125ZM40.6423 115.417L40.0334 114.685L44.539 111.27L45.1479 112.002L40.6423 115.417ZM49.6534 108.587L49.0446 107.855L53.5502 104.44L54.159 105.172L49.6534 108.587ZM58.6646 101.879L58.0557 101.147L62.5613 97.7319L63.1702 98.4637L58.6646 101.879Z" fill="#FCC969"/>
<path d="M62.9267 102.367L61.9525 102.123L62.8049 98.2197L58.9082 97.9757V97L64.0226 97.3659L62.9267 102.367Z" fill="#FCC969"/>
<path d="M158.8 27.1669L155.776 22.1544L153.795 23.3497C152.411 21.7632 150.673 20.5327 148.852 19.637L149.43 17.2942L143.742 15.8827L143.165 18.2254C141.138 18.1664 139.029 18.442 137.067 19.1982L135.807 17.1096L130.802 20.1294L132 22.1135C130.416 23.4963 129.189 25.2339 128.297 27.0545L125.955 26.4733L124.552 32.1629L126.894 32.7441C126.838 34.7723 127.116 36.8835 127.875 38.8475L125.894 40.0428L128.918 45.0554L130.899 43.86C132.283 45.4466 134.021 46.677 135.842 47.5728L135.264 49.9155L140.952 51.3271L141.529 48.9843C143.556 49.0434 145.665 48.7678 147.627 48.0116L148.824 49.9957L153.828 46.9759L152.631 44.9918C154.215 43.609 155.442 41.8714 156.334 40.0508L158.676 40.632L160.079 34.9424L157.737 34.3612C157.793 32.333 157.515 30.2218 156.756 28.2578L158.737 27.0625L158.8 27.1669ZM147.337 42.346C142.645 45.177 136.456 43.6409 133.62 38.9417C130.785 34.2425 132.311 28.0509 137.003 25.2199C141.695 22.3888 147.884 23.9249 150.719 28.6241C153.555 33.3234 152.133 39.452 147.337 42.346Z" fill="#7FCAE0"/>
<path d="M140.973 31.7988C139.826 32.4908 139.559 33.934 140.189 34.9783C140.882 36.127 142.325 36.3962 143.367 35.7671C144.514 35.075 144.781 33.6319 144.151 32.5876C143.562 31.376 142.12 31.1068 140.973 31.7988Z" fill="#7FCAE0"/>
<path d="M118.741 31.2534L116.914 28.225L115.767 28.917C114.928 27.9986 113.881 27.2059 112.751 26.748L113.081 25.4093L109.736 24.579L109.406 25.9177C108.194 25.7944 106.899 26.0058 105.73 26.4261L105.037 25.2774L102.014 27.1018L102.707 28.2505C101.79 29.0885 101 30.1353 100.544 31.2652L99.2054 30.9331L98.3804 34.2799L99.7186 34.612C99.5972 35.8249 99.8102 37.1208 100.232 38.2909L99.0849 38.983L100.912 42.0114L102.059 41.3193C102.898 42.2378 103.945 43.0304 105.075 43.4883L104.745 44.8271L108.09 45.6574L108.42 44.3186C109.632 44.4419 110.927 44.2305 112.096 43.8102L112.789 44.9589L115.812 43.1345L115.119 41.9858C116.036 41.1478 116.826 40.101 117.282 38.9711L118.621 39.3032L119.446 35.9564L118.107 35.6243C118.229 34.4114 118.016 33.1155 117.594 31.9454L118.741 31.2534ZM112.021 40.1514C109.206 41.8501 105.63 40.8738 103.992 38.1587C102.354 35.4436 103.261 31.7621 105.972 30.1264C108.787 28.4278 112.363 29.404 114.001 32.1191C115.64 34.8343 114.836 38.4528 112.021 40.1514Z" fill="#7FCAE0"/>
<path d="M108.24 33.886C107.615 34.2634 107.409 35.0999 107.787 35.7264C108.165 36.3528 109.001 36.5604 109.626 36.183C110.252 35.8056 110.458 34.9691 110.08 34.3426C109.702 33.7162 108.866 33.5086 108.24 33.886Z" fill="#7FCAE0"/>
<path d="M142.763 62.3423L139.801 57.4342L137.82 58.6296C136.436 57.043 134.761 55.917 132.941 55.0212L133.477 52.8458L127.957 51.4758L127.421 53.6512C125.394 53.5922 123.389 53.8048 121.427 54.5611L120.23 52.5769L115.33 55.5338L116.527 57.5179C114.944 58.9007 113.821 60.5754 112.928 62.396L110.754 61.8563L109.392 67.3785L111.567 67.9182C111.511 69.9464 111.726 71.9532 112.484 73.9172L110.504 75.1125L113.465 80.0206L115.446 78.8253C116.83 80.4118 118.505 81.5379 120.326 82.4336L119.789 84.6091L125.309 85.9791L125.846 83.8036C127.872 83.8627 129.877 83.65 131.839 82.8938L133.036 84.8779L137.936 81.9211L136.739 79.9369C138.323 78.5542 139.445 76.8795 140.338 75.0589L142.513 75.5986L143.874 70.0764L141.699 69.5367C141.755 67.5085 141.54 65.5017 140.782 63.5377L142.763 62.3423ZM131.695 76.998C127.107 79.7661 121.085 78.2715 118.313 73.6767C115.54 69.0819 117.025 63.0577 121.613 60.2896C126.2 57.5214 132.222 59.016 134.995 63.6108C137.726 68.3729 136.282 74.2298 131.695 76.998Z" fill="#7FCAE0"/>
<path d="M125.52 66.7641C124.477 67.3933 124.043 68.7949 124.736 69.9436C125.366 70.9879 126.767 71.4244 127.914 70.7324C128.957 70.1033 129.391 68.7016 128.698 67.5529C127.9 66.4671 126.562 66.135 125.52 66.7641Z" fill="#7FCAE0"/>
<path d="M50.4417 105.586C47.9747 105.586 46.0559 103.683 46.0559 101.236V84.1058C46.0559 81.6587 47.9747 79.7554 50.4417 79.7554C52.9087 79.7554 54.8275 81.6587 54.8275 84.1058V101.1C54.8275 103.547 52.9087 105.586 50.4417 105.586Z" fill="#FAFBFC" stroke="#192657" stroke-width="3" stroke-miterlimit="10" stroke-linecap="round" stroke-linejoin="round"/>
<path d="M118.558 105.586C116.091 105.586 114.173 103.683 114.173 101.236V84.1058C114.173 81.6587 116.091 79.7554 118.558 79.7554C121.025 79.7554 122.944 81.6587 122.944 84.1058V101.1C122.944 103.547 120.888 105.586 118.558 105.586Z" fill="#FAFBFC" stroke="#192657" stroke-width="3" stroke-miterlimit="10" stroke-linecap="round" stroke-linejoin="round"/>
<path d="M50.4417 79.7553C50.4417 61.1299 65.6548 46.0393 84.4315 46.0393C103.208 46.0393 118.421 61.1299 118.421 79.7553" stroke="#192657" stroke-width="3" stroke-miterlimit="10" stroke-linecap="round" stroke-linejoin="round"/>
<path d="M115.68 105.586L111.431 116.734C107.731 126.387 97.3146 131.553 87.3096 128.562" stroke="#192657" stroke-width="3" stroke-miterlimit="10" stroke-linecap="round" stroke-linejoin="round"/>
<path d="M89.6396 126.795C89.6396 129.65 87.3097 131.961 84.4315 131.961C81.5533 131.961 79.2234 129.65 79.2234 126.795C79.2234 123.94 81.5533 121.628 84.4315 121.628C87.3097 121.628 89.6396 123.94 89.6396 126.795Z" fill="#FAFBFC" stroke="#192657" stroke-width="3" stroke-miterlimit="10" stroke-linecap="round" stroke-linejoin="round"/>
</svg>
