<svg width="180" height="171" viewBox="0 0 180 171" fill="none" xmlns="http://www.w3.org/2000/svg">
<ellipse cx="129" cy="120.5" rx="13" ry="13.5" fill="#FCC969"/>
<ellipse cx="55.5" cy="61" rx="34.5" ry="34" fill="#C7EEFF"/>
<path d="M28.7568 98.73H20.598V99.7057H28.7568V98.73Z" fill="#171550"/>
<path d="M25.2254 95.071H24.2512V103.365H25.2254V95.071Z" fill="#171550"/>
<path d="M13.6089 135.541L13 134.809L17.5056 131.394L18.1144 132.126L13.6089 135.541ZM22.62 128.833L22.0111 128.101L26.5167 124.686L27.1256 125.418L22.62 128.833ZM31.6312 122.125L31.0223 121.393L35.5279 117.978L36.1367 118.71L31.6312 122.125ZM40.6423 115.417L40.0334 114.685L44.539 111.27L45.1479 112.002L40.6423 115.417ZM49.6534 108.587L49.0446 107.855L53.5502 104.44L54.159 105.172L49.6534 108.587ZM58.6646 101.879L58.0557 101.147L62.5613 97.7319L63.1702 98.4637L58.6646 101.879Z" fill="#FCC969"/>
<path d="M62.9266 102.367L61.9524 102.123L62.8048 98.2197L58.9081 97.9757V97L64.0225 97.3659L62.9266 102.367Z" fill="#FCC969"/>
<path d="M158.8 27.1671L155.776 22.1546L153.795 23.35C152.411 21.7634 150.673 20.533 148.852 19.6372L149.43 17.2944L143.742 15.8829L143.165 18.2257C141.138 18.1666 139.029 18.4422 137.067 19.1984L135.807 17.1099L130.802 20.1297L132 22.1138C130.416 23.4966 129.189 25.2342 128.297 27.0548L125.955 26.4736L124.552 32.1631L126.894 32.7443C126.838 34.7725 127.116 36.8837 127.875 38.8477L125.894 40.0431L128.918 45.0556L130.899 43.8603C132.283 45.4468 134.021 46.6773 135.842 47.573L135.264 49.9158L140.952 51.3273L141.529 48.9845C143.556 49.0436 145.665 48.768 147.627 48.0118L148.824 49.9959L153.828 46.9761L152.631 44.992C154.215 43.6092 155.442 41.8716 156.334 40.051L158.676 40.6322L160.079 34.9427L157.737 34.3615C157.793 32.3333 157.515 30.2221 156.756 28.2581L158.737 27.0627L158.8 27.1671ZM147.337 42.3462C142.645 45.1772 136.456 43.6412 133.62 38.9419C130.785 34.2427 132.311 28.0511 137.003 25.2201C141.695 22.3891 147.884 23.9251 150.719 28.6244C153.555 33.3236 152.133 39.4522 147.337 42.3462Z" fill="#7FCAE0"/>
<path d="M140.973 31.7991C139.826 32.4911 139.559 33.9342 140.189 34.9785C140.882 36.1272 142.324 36.3964 143.367 35.7673C144.514 35.0753 144.781 33.6321 144.151 32.5879C143.562 31.3762 142.119 31.107 140.973 31.7991Z" fill="#7FCAE0"/>
<path d="M118.741 31.2536L116.914 28.2252L115.767 28.9173C114.928 27.9988 113.881 27.2062 112.751 26.7482L113.081 25.4095L109.736 24.5792L109.406 25.9179C108.194 25.7947 106.899 26.0061 105.73 26.4263L105.037 25.2776L102.014 27.1021L102.707 28.2508C101.79 29.0888 101 30.1356 100.544 31.2655L99.2054 30.9333L98.3804 34.2801L99.7186 34.6122C99.5972 35.8251 99.8102 37.1211 100.232 38.2912L99.0849 38.9832L100.912 42.0116L102.059 41.3196C102.898 42.238 103.945 43.0306 105.075 43.4886L104.745 44.8273L108.09 45.6576L108.42 44.3189C109.632 44.4422 110.927 44.2308 112.096 43.8105L112.789 44.9592L115.812 43.1347L115.119 41.986C116.036 41.1481 116.826 40.1012 117.282 38.9714L118.621 39.3035L119.446 35.9567L118.107 35.6246C118.229 34.4117 118.016 33.1158 117.594 31.9457L118.741 31.2536ZM112.021 40.1517C109.206 41.8503 105.63 40.8741 103.992 38.1589C102.354 35.4438 103.261 31.7624 105.972 30.1266C108.787 28.428 112.363 29.4043 114.001 32.1194C115.64 34.8345 114.836 38.4531 112.021 40.1517Z" fill="#7FCAE0"/>
<path d="M108.24 33.8862C107.615 34.2636 107.409 35.1002 107.787 35.7266C108.165 36.3531 109.001 36.5606 109.626 36.1832C110.252 35.8058 110.458 34.9693 110.08 34.3429C109.702 33.7164 108.866 33.5089 108.24 33.8862Z" fill="#7FCAE0"/>
<path d="M142.763 62.3426L139.801 57.4345L137.82 58.6298C136.436 57.0433 134.761 55.9173 132.941 55.0215L133.477 52.8461L127.957 51.4761L127.421 53.6515C125.394 53.5924 123.389 53.8051 121.427 54.5613L120.23 52.5772L115.33 55.5341L116.527 57.5182C114.944 58.901 113.821 60.5756 112.928 62.3963L110.754 61.8566L109.392 67.3788L111.567 67.9185C111.511 69.9467 111.726 71.9535 112.485 73.9175L110.504 75.1128L113.465 80.0209L115.446 78.8256C116.83 80.4121 118.505 81.5381 120.326 82.4339L119.789 84.6093L125.309 85.9793L125.846 83.8039C127.872 83.863 129.877 83.6503 131.839 82.8941L133.036 84.8782L137.937 81.9213L136.739 79.9372C138.323 78.5544 139.446 76.8797 140.338 75.0591L142.513 75.5988L143.874 70.0766L141.699 69.5369C141.756 67.5087 141.54 65.5019 140.782 63.5379L142.763 62.3426ZM131.695 76.9982C127.107 79.7663 121.085 78.2718 118.313 73.677C115.54 69.0822 117.025 63.0579 121.613 60.2898C126.2 57.5217 132.222 59.0162 134.995 63.611C137.726 68.3732 136.282 74.2301 131.695 76.9982Z" fill="#7FCAE0"/>
<path d="M125.52 66.7644C124.477 67.3935 124.043 68.7952 124.736 69.9439C125.366 70.9882 126.767 71.4247 127.914 70.7327C128.957 70.1035 129.391 68.7019 128.698 67.5532C127.9 66.4674 126.562 66.1352 125.52 66.7644Z" fill="#7FCAE0"/>
<path d="M48.6976 87.6782V144H48.965C53.5098 144 57.3863 140.656 58.0547 136.107L65.1393 86.6079" fill="#FAFBFC"/>
<path d="M48.6976 87.6782V144H48.965C53.5098 144 57.3863 140.656 58.0547 136.107L65.1393 86.6079" stroke="#192657" stroke-width="3" stroke-miterlimit="10"/>
<path d="M96.9993 76.6412C98.3344 70.4293 94.3853 64.3104 88.1785 62.9741C81.9718 61.6379 75.8579 65.5903 74.5227 71.8021C73.1875 78.0139 77.1367 84.1328 83.3434 85.4691C89.5501 86.8054 95.6641 82.853 96.9993 76.6412Z" fill="#FAFBFC" stroke="#192657" stroke-width="3" stroke-miterlimit="10"/>
<path d="M79.4422 49.5503V98.9157C79.4422 95.7049 78.1054 92.8955 76.1004 90.755C74.0953 88.6145 71.1545 87.4104 67.9464 87.4104H47.4945C40.1426 87.4104 34.261 81.5241 34.261 74.1661C34.261 70.554 35.7314 67.2094 38.1375 64.8014C40.5436 62.3933 43.8854 60.9217 47.4945 60.9217H68.08C74.3626 60.9217 79.4422 55.838 79.4422 49.5503Z" fill="#FAFBFC" stroke="#192657" stroke-width="3" stroke-miterlimit="10"/>
<path d="M55.6486 60.9219V86.6079" stroke="#192657" stroke-width="3" stroke-miterlimit="10"/>
<path d="M82.6503 104.133C80.9125 104.133 79.4421 102.662 79.4421 100.922V46.4734C79.4421 44.7343 80.9125 43.2627 82.6503 43.2627C84.388 43.2627 85.8584 44.7343 85.8584 46.4734V101.056C85.7247 102.795 84.388 104.133 82.6503 104.133Z" fill="#FAFBFC" stroke="#192657" stroke-width="3" stroke-miterlimit="10"/>
<path d="M123.955 40.7208L133.98 33.0952" stroke="#192657" stroke-width="3" stroke-miterlimit="10" stroke-linecap="round" stroke-linejoin="round"/>
<path d="M100.295 58.7813L114.999 47.5437" stroke="#192657" stroke-width="3" stroke-miterlimit="10" stroke-linecap="round" stroke-linejoin="round"/>
<path d="M114.598 62.6609L103.369 68.4135" stroke="#192657" stroke-width="3" stroke-miterlimit="10" stroke-linecap="round" stroke-linejoin="round"/>
<path d="M141.065 49.1489L124.623 57.5772" stroke="#192657" stroke-width="3" stroke-miterlimit="10" stroke-linecap="round" stroke-linejoin="round"/>
<path d="M123.955 106.541L133.98 114.3" stroke="#192657" stroke-width="3" stroke-miterlimit="10" stroke-linecap="round" stroke-linejoin="round"/>
<path d="M100.295 88.6145L114.999 99.7184" stroke="#192657" stroke-width="3" stroke-miterlimit="10" stroke-linecap="round" stroke-linejoin="round"/>
<path d="M114.598 84.7348L103.369 78.9822" stroke="#192657" stroke-width="3" stroke-miterlimit="10" stroke-linecap="round" stroke-linejoin="round"/>
<path d="M141.065 98.1128L124.623 89.8184" stroke="#192657" stroke-width="3" stroke-miterlimit="10" stroke-linecap="round" stroke-linejoin="round"/>
<path d="M110.588 73.7646H117.271" stroke="#192657" stroke-width="3" stroke-miterlimit="10" stroke-linecap="round" stroke-linejoin="round"/>
<path d="M124.623 73.7646H138.926" stroke="#192657" stroke-width="3" stroke-miterlimit="10" stroke-linecap="round" stroke-linejoin="round"/>
<path d="M147.615 73.7646H153.497" stroke="#192657" stroke-width="3" stroke-miterlimit="10" stroke-linecap="round" stroke-linejoin="round"/>
</svg>
