<svg width="180" height="171" viewBox="0 0 180 171" fill="none" xmlns="http://www.w3.org/2000/svg">
<ellipse cx="129" cy="120.5" rx="13" ry="13.5" fill="#FCC969"/>
<ellipse cx="55.5" cy="61" rx="34.5" ry="34" fill="#C7EEFF"/>
<path d="M28.7569 98.73H20.5981V99.7057H28.7569V98.73Z" fill="#171550"/>
<path d="M25.2255 95.071H24.2513V103.365H25.2255V95.071Z" fill="#171550"/>
<path d="M13.6089 135.541L13 134.809L17.5056 131.394L18.1144 132.126L13.6089 135.541ZM22.62 128.833L22.0111 128.101L26.5167 124.686L27.1256 125.418L22.62 128.833ZM31.6312 122.125L31.0223 121.393L35.5279 117.978L36.1367 118.71L31.6312 122.125ZM40.6423 115.417L40.0334 114.685L44.539 111.27L45.1479 112.002L40.6423 115.417ZM49.6534 108.587L49.0446 107.855L53.5502 104.44L54.159 105.172L49.6534 108.587ZM58.6646 101.879L58.0557 101.147L62.5613 97.7319L63.1702 98.4637L58.6646 101.879Z" fill="#FCC969"/>
<path d="M62.9267 102.367L61.9525 102.123L62.8049 98.2197L58.9082 97.9757V97L64.0226 97.3659L62.9267 102.367Z" fill="#FCC969"/>
<path d="M158.8 27.1669L155.776 22.1544L153.795 23.3497C152.411 21.7632 150.673 20.5327 148.852 19.637L149.43 17.2942L143.742 15.8827L143.165 18.2254C141.138 18.1664 139.029 18.442 137.067 19.1982L135.807 17.1096L130.802 20.1294L132 22.1135C130.416 23.4963 129.189 25.2339 128.297 27.0545L125.955 26.4733L124.552 32.1629L126.894 32.7441C126.838 34.7723 127.116 36.8835 127.875 38.8475L125.894 40.0428L128.918 45.0554L130.899 43.86C132.283 45.4466 134.021 46.677 135.842 47.5728L135.264 49.9155L140.952 51.3271L141.529 48.9843C143.556 49.0434 145.665 48.7678 147.627 48.0116L148.824 49.9957L153.828 46.9759L152.631 44.9918C154.215 43.609 155.442 41.8714 156.334 40.0508L158.676 40.632L160.079 34.9424L157.737 34.3612C157.793 32.333 157.515 30.2218 156.756 28.2578L158.737 27.0625L158.8 27.1669ZM147.337 42.346C142.645 45.177 136.456 43.6409 133.62 38.9417C130.785 34.2425 132.311 28.0509 137.003 25.2199C141.695 22.3888 147.884 23.9249 150.719 28.6241C153.555 33.3234 152.133 39.452 147.337 42.346Z" fill="#7FCAE0"/>
<path d="M140.973 31.7988C139.826 32.4908 139.559 33.934 140.189 34.9783C140.882 36.127 142.325 36.3962 143.367 35.7671C144.514 35.075 144.781 33.6319 144.151 32.5876C143.562 31.376 142.12 31.1068 140.973 31.7988Z" fill="#7FCAE0"/>
<path d="M118.741 31.2534L116.914 28.225L115.767 28.917C114.928 27.9986 113.881 27.2059 112.751 26.748L113.081 25.4093L109.736 24.579L109.406 25.9177C108.194 25.7944 106.899 26.0058 105.73 26.4261L105.037 25.2774L102.014 27.1018L102.707 28.2505C101.79 29.0885 101 30.1353 100.544 31.2652L99.2054 30.9331L98.3804 34.2799L99.7186 34.612C99.5972 35.8249 99.8102 37.1208 100.232 38.2909L99.0849 38.983L100.912 42.0114L102.059 41.3193C102.898 42.2378 103.945 43.0304 105.075 43.4883L104.745 44.8271L108.09 45.6574L108.42 44.3186C109.632 44.4419 110.927 44.2305 112.096 43.8102L112.789 44.9589L115.812 43.1345L115.119 41.9858C116.036 41.1478 116.826 40.101 117.282 38.9711L118.621 39.3032L119.446 35.9564L118.107 35.6243C118.229 34.4114 118.016 33.1155 117.594 31.9454L118.741 31.2534ZM112.021 40.1514C109.206 41.8501 105.63 40.8738 103.992 38.1587C102.354 35.4436 103.261 31.7621 105.972 30.1264C108.787 28.4278 112.363 29.404 114.001 32.1191C115.64 34.8343 114.836 38.4528 112.021 40.1514Z" fill="#7FCAE0"/>
<path d="M108.24 33.886C107.615 34.2634 107.409 35.0999 107.787 35.7264C108.165 36.3528 109.001 36.5604 109.626 36.183C110.252 35.8056 110.458 34.9691 110.08 34.3426C109.702 33.7162 108.866 33.5086 108.24 33.886Z" fill="#7FCAE0"/>
<path d="M142.763 62.3423L139.801 57.4342L137.82 58.6296C136.436 57.043 134.761 55.917 132.941 55.0212L133.477 52.8458L127.957 51.4758L127.421 53.6512C125.394 53.5922 123.389 53.8048 121.427 54.5611L120.23 52.5769L115.33 55.5338L116.527 57.5179C114.944 58.9007 113.821 60.5754 112.928 62.396L110.754 61.8563L109.392 67.3785L111.567 67.9182C111.511 69.9464 111.726 71.9532 112.484 73.9172L110.504 75.1125L113.465 80.0206L115.446 78.8253C116.83 80.4118 118.505 81.5379 120.326 82.4336L119.789 84.6091L125.309 85.9791L125.846 83.8036C127.872 83.8627 129.877 83.65 131.839 82.8938L133.036 84.8779L137.936 81.9211L136.739 79.9369C138.323 78.5542 139.445 76.8795 140.338 75.0589L142.513 75.5986L143.874 70.0764L141.699 69.5367C141.755 67.5085 141.54 65.5017 140.782 63.5377L142.763 62.3423ZM131.695 76.998C127.107 79.7661 121.085 78.2715 118.313 73.6767C115.54 69.0819 117.025 63.0577 121.613 60.2896C126.2 57.5214 132.222 59.016 134.995 63.6108C137.726 68.3729 136.282 74.2298 131.695 76.998Z" fill="#7FCAE0"/>
<path d="M125.52 66.7641C124.477 67.3933 124.043 68.7949 124.736 69.9436C125.366 70.9879 126.767 71.4244 127.914 70.7324C128.957 70.1033 129.391 68.7016 128.698 67.5529C127.9 66.4671 126.562 66.135 125.52 66.7641Z" fill="#7FCAE0"/>
<path d="M105.209 101.898C105.209 118.302 91.804 131.707 75.4001 131.707C58.9962 131.707 45.5908 118.302 45.5908 101.898C45.5908 85.4938 58.9962 59.0359 75.4001 59.0359C91.804 59.0359 105.209 85.4938 105.209 101.898Z" fill="#FAFBFC" stroke="#192657" stroke-width="3" stroke-miterlimit="10"/>
<path d="M91.804 57.6248L94.979 42.2792C95.6845 39.1043 93.0387 36.2821 90.2165 37.3404L79.8097 40.6917C77.164 41.5737 74.1654 41.5737 71.5196 40.6917L60.5837 37.164C57.7615 36.2821 55.1157 39.1043 55.8212 42.1028L58.9962 57.6248" fill="#FAFBFC"/>
<path d="M91.804 57.6248L94.979 42.2792C95.6845 39.1043 93.0387 36.2821 90.2165 37.3404L79.8097 40.6917C77.164 41.5737 74.1654 41.5737 71.5196 40.6917L60.5837 37.164C57.7615 36.2821 55.1157 39.1043 55.8212 42.1028L58.9962 57.6248" stroke="#192657" stroke-width="3" stroke-miterlimit="10"/>
<path d="M90.0398 67.8552H60.7597C57.9376 67.8552 55.6445 65.5621 55.6445 62.74C55.6445 59.9178 57.9376 57.6248 60.7597 57.6248H90.0398C92.862 57.6248 95.155 59.9178 95.155 62.74C95.155 65.5621 92.862 67.8552 90.0398 67.8552Z" fill="#FAFBFC" stroke="#192657" stroke-width="3" stroke-miterlimit="10"/>
<path d="M79.3087 104.934C79.3087 104.026 78.9882 103.262 78.3473 102.641C77.7161 102.02 76.6462 101.458 75.1374 100.955C73.0369 100.314 71.5035 99.4804 70.5371 98.4548C69.5806 97.4193 69.1023 96.1078 69.1023 94.5201C69.1023 92.9029 69.5707 91.5765 70.5075 90.5411C71.4542 89.5056 72.751 88.8893 74.3978 88.6921V85.4526H76.6018V88.7069C78.2585 88.9337 79.5454 89.6289 80.4625 90.7925C81.3895 91.9562 81.853 93.5488 81.853 95.5703H79.1312C79.1312 94.1799 78.8009 93.0754 78.1402 92.2569C77.4795 91.4385 76.587 91.0292 75.4628 91.0292C74.2893 91.0292 73.3919 91.3349 72.7707 91.9463C72.1494 92.5479 71.8388 93.391 71.8388 94.4757C71.8388 95.4816 72.1642 96.2853 72.8151 96.8868C73.4758 97.4785 74.5556 98.0209 76.0545 98.514C77.5633 98.9972 78.7368 99.5346 79.575 100.126C80.4231 100.708 81.0443 101.389 81.4388 102.168C81.8431 102.947 82.0453 103.859 82.0453 104.904C82.0453 106.571 81.5423 107.912 80.5365 108.928C79.5405 109.943 78.1402 110.545 76.3356 110.732V113.557H74.1463V110.732C72.3121 110.564 70.8724 109.914 69.8271 108.78C68.7916 107.636 68.2739 106.087 68.2739 104.135H71.0104C71.0104 105.506 71.3704 106.561 72.0903 107.3C72.8101 108.04 73.8308 108.41 75.1522 108.41C76.444 108.41 77.4597 108.099 78.1993 107.478C78.9389 106.857 79.3087 106.009 79.3087 104.934Z" fill="#192657"/>
<path fill-rule="evenodd" clip-rule="evenodd" d="M73.9435 84.9983H77.0563V88.32C78.6297 88.6131 79.8949 89.3387 80.8187 90.5104C81.8289 91.779 82.3074 93.4832 82.3074 95.5704V96.0248H78.6769V95.5704C78.6769 94.2502 78.3637 93.2573 77.7867 92.5424C77.2188 91.839 76.4606 91.4837 75.4629 91.4837C74.3662 91.4837 73.5997 91.7682 73.0895 92.2703L73.0869 92.2728C72.5753 92.7682 72.2933 93.4809 72.2933 94.4758C72.2933 95.3724 72.5779 96.0476 73.121 96.5508C73.7119 97.0788 74.7195 97.5963 76.195 98.0818C77.7243 98.5718 78.9445 99.1256 79.8347 99.7534C80.7324 100.37 81.409 101.104 81.8432 101.96C82.2862 102.815 82.4997 103.801 82.4997 104.904C82.4997 106.669 81.9637 108.132 80.8601 109.247C79.8514 110.275 78.4814 110.894 76.79 111.134V114.012H73.692V111.138C71.9584 110.906 70.5465 110.231 69.493 109.088L69.4902 109.085C68.3607 107.837 67.8196 106.169 67.8196 104.135V103.681H71.4649V104.135C71.4649 105.427 71.8029 106.354 72.4159 106.984C73.028 107.612 73.9173 107.955 75.1523 107.955C76.3735 107.955 77.2735 107.662 77.9071 107.13C78.5316 106.605 78.8544 105.891 78.8544 104.934C78.8544 104.147 78.5821 103.501 78.0311 102.967L78.0285 102.965C77.4726 102.418 76.4836 101.883 74.9992 101.388C72.8644 100.735 71.2483 99.8721 70.2064 98.7665L70.2034 98.7632C69.1593 97.633 68.6479 96.2066 68.6479 94.5202C68.6479 92.8093 69.1464 91.3684 70.1706 90.2363L70.1722 90.2345C71.1246 89.1929 72.3925 88.554 73.9435 88.2979V84.9983ZM74.8523 85.9071V89.0954L74.4519 89.1433C72.8929 89.33 71.704 89.9064 70.8438 90.8469C69.9949 91.7855 69.5567 92.9971 69.5567 94.5202C69.5567 96.0083 70.0014 97.2044 70.8694 98.1449C71.7596 99.0887 73.208 99.8908 75.2701 100.52L75.2812 100.523C76.8105 101.033 77.9592 101.622 78.6648 102.316C79.3949 103.024 79.7632 103.906 79.7632 104.934C79.7632 106.126 79.3465 107.108 78.4917 107.826C77.6462 108.536 76.5147 108.864 75.1523 108.864C73.7444 108.864 72.5924 108.468 71.7647 107.617C71.0261 106.859 70.6426 105.833 70.5692 104.589H68.7385C68.813 106.238 69.2999 107.519 70.1627 108.473C71.1172 109.508 72.4435 110.12 74.1878 110.28L74.6008 110.317V113.103H75.8812V110.323L76.2887 110.28C78.0176 110.101 79.3087 109.531 80.2121 108.609L80.2137 108.608C81.1213 107.691 81.5909 106.472 81.5909 104.904C81.5909 103.918 81.4004 103.08 81.0355 102.377L81.0334 102.373C80.6791 101.673 80.1144 101.047 79.318 100.501L79.313 100.498C78.5272 99.943 77.4019 99.4227 75.916 98.9468L75.9126 98.9457C74.3933 98.4459 73.2426 97.8797 72.512 97.2254L72.5067 97.2206C71.7498 96.5211 71.3844 95.5895 71.3844 94.4758C71.3844 93.3019 71.7233 92.3289 72.4533 91.6212C73.1856 90.9014 74.2133 90.5749 75.4629 90.5749C76.7136 90.5749 77.7403 91.0381 78.4938 91.9716C79.1596 92.7963 79.5079 93.8562 79.574 95.116H81.3903C81.3254 93.3838 80.8838 92.0507 80.1072 91.0757L80.1057 91.0739C79.271 90.0148 78.0966 89.3702 76.5402 89.1571L76.1475 89.1034V85.9071H74.8523Z" fill="#192657"/>
</svg>
