<svg width="366" height="336" viewBox="0 0 366 336" fill="none" xmlns="http://www.w3.org/2000/svg">
<g clip-path="url(#clip0)">
<path d="M305.674 307.851C305.674 310.437 249.068 312.625 179.253 312.625C109.439 312.625 52.8326 310.536 52.8326 307.851C52.8326 305.264 109.439 303.076 179.253 303.076C249.068 303.176 305.674 305.264 305.674 307.851Z" fill="#172943"/>
<path d="M132.181 334.209H91.6625V336H132.181V334.209Z" fill="#172943"/>
<path d="M365.359 318.494H300.808V320.284H365.359V318.494Z" fill="#172943"/>
<path d="M64.5511 318.494H0V320.284H64.5511V318.494Z" fill="#172943"/>
<path d="M77.8585 271.247C77.8585 271.247 79.8447 270.948 80.3413 272.54C80.8378 274.131 78.0571 274.032 78.0571 274.032L77.8585 271.247Z" fill="#F1FAE3"/>
<path d="M47.6685 258.217L61.6711 267.666L78.3551 270.849L78.5537 274.927L61.5718 274.231L45.0864 267.766L47.6685 258.217Z" fill="#0B1032"/>
<path d="M164.357 23.9717V19.1973H162.47C162.172 17.5063 161.477 15.9149 160.583 14.5223L161.974 13.1298L158.597 9.74791L157.207 11.1404C155.816 10.2452 154.227 9.54897 152.539 9.25057V7.26123H147.772V9.15111C146.084 9.44951 144.495 10.1458 143.105 11.041L141.714 9.64844L138.338 13.0303L139.728 14.4229C138.835 15.8154 138.139 17.4069 137.841 19.0978H135.955V23.8722H137.841C138.139 25.5632 138.835 27.1547 139.728 28.5472L138.338 29.9397L141.714 33.3216L143.105 31.9291C144.495 32.8243 146.084 33.5206 147.772 33.819V35.7088H152.539V33.819C154.227 33.5206 155.816 32.8243 157.207 31.9291L158.597 33.3216L161.974 29.9397L160.583 28.5472C161.477 27.1547 162.172 25.5632 162.47 23.8722H164.357V23.9717ZM149.957 29.7408C145.488 29.7408 141.814 26.0605 141.814 21.5845C141.814 17.1085 145.488 13.4282 149.957 13.4282C154.426 13.4282 158.101 17.1085 158.101 21.5845C158.101 26.0605 154.525 29.7408 149.957 29.7408Z" fill="white"/>
<path d="M149.957 19.6948C148.865 19.6948 148.07 20.59 148.07 21.5847C148.07 22.6788 148.964 23.4746 149.957 23.4746C151.05 23.4746 151.844 22.5794 151.844 21.5847C151.943 20.4906 151.05 19.6948 149.957 19.6948Z" fill="white"/>
<path d="M134.664 9.94671V7.06217H133.571C133.372 6.0675 132.975 5.07282 132.379 4.27709L133.174 3.48135L131.188 1.49201L130.393 2.28774C129.599 1.69094 128.606 1.29307 127.613 1.09414V0H124.733V1.09414C123.739 1.29307 122.746 1.69094 121.952 2.28774L121.157 1.49201L119.171 3.48135L119.966 4.27709C119.37 5.07282 118.973 6.0675 118.774 7.06217H117.682V9.94671H118.774C118.973 10.9414 119.37 11.9361 119.966 12.7318L119.171 13.5275L121.157 15.5169L121.952 14.7211C122.746 15.3179 123.739 15.7158 124.733 15.9147V17.0089H127.613V15.9147C128.606 15.7158 129.599 15.3179 130.393 14.7211L131.188 15.5169L133.174 13.5275L132.379 12.7318C132.975 11.9361 133.372 10.9414 133.571 9.94671H134.664ZM126.222 13.3286C123.541 13.3286 121.455 11.1403 121.455 8.55417C121.455 5.96803 123.64 3.77975 126.222 3.77975C128.904 3.77975 130.989 5.96803 130.989 8.55417C130.989 11.1403 128.904 13.3286 126.222 13.3286Z" fill="white"/>
<path d="M126.222 7.36035C125.626 7.36035 125.13 7.85769 125.13 8.45449C125.13 9.05129 125.626 9.54863 126.222 9.54863C126.818 9.54863 127.315 9.05129 127.315 8.45449C127.315 7.85769 126.818 7.36035 126.222 7.36035Z" fill="white"/>
<path d="M138.338 41.776V37.101H136.451C136.153 35.4101 135.458 33.9181 134.564 32.5255L135.855 31.2325L132.578 27.9501L131.287 29.2431C129.897 28.3479 128.407 27.6517 126.719 27.3533V25.4634H122.051V27.3533C120.363 27.6517 118.873 28.3479 117.483 29.2431L116.192 27.9501L112.915 31.2325L114.206 32.5255C113.312 33.9181 112.617 35.4101 112.319 37.101H110.432V41.776H112.319C112.617 43.4669 113.312 44.9589 114.206 46.3515L112.915 47.6446L116.192 50.927L117.483 49.6339C118.873 50.5291 120.363 51.2254 122.051 51.5238V53.4136H126.719V51.5238C128.407 51.2254 129.897 50.5291 131.287 49.6339L132.578 50.927L135.855 47.6446L134.564 46.3515C135.458 44.9589 136.153 43.4669 136.451 41.776H138.338ZM124.435 47.3461C120.065 47.3461 116.49 43.7653 116.49 39.3888C116.49 35.0122 120.065 31.4314 124.435 31.4314C128.804 31.4314 132.379 35.0122 132.379 39.3888C132.28 43.8648 128.804 47.3461 124.435 47.3461Z" fill="white"/>
<path d="M124.435 37.5981C123.442 37.5981 122.548 38.3939 122.548 39.488C122.548 40.4827 123.342 41.3779 124.435 41.3779C125.428 41.3779 126.321 40.5822 126.321 39.488C126.222 38.3939 125.428 37.5981 124.435 37.5981Z" fill="white"/>
<path d="M254.53 167.403L256.516 171.78L258.204 170.984C259.197 172.377 260.488 173.57 261.978 174.465L261.283 176.256L265.752 177.947L266.447 176.156C268.135 176.455 269.824 176.355 271.512 175.957L272.306 177.648L276.676 175.659L275.881 173.968C277.272 172.973 278.463 171.68 279.357 170.188L281.145 170.885L282.833 166.409L281.046 165.712C281.343 164.021 281.244 162.33 280.847 160.64L282.535 159.844L280.549 155.467L278.861 156.263C277.868 154.87 276.577 153.677 275.087 152.782L275.782 150.991L271.313 149.3L270.618 151.091C268.93 150.792 267.242 150.892 265.553 151.29L264.759 149.599L260.389 151.588L261.184 153.279C259.793 154.274 258.602 155.567 257.708 157.059L255.92 156.362L254.232 160.838L256.02 161.535C255.722 163.226 255.821 164.917 256.218 166.608L254.53 167.403ZM265.057 156.164C269.128 154.274 273.995 156.064 275.881 160.142C277.768 164.22 275.981 169.094 271.909 170.984C267.837 172.874 262.971 171.084 261.084 167.005C259.297 162.828 260.985 158.053 265.057 156.164Z" fill="white"/>
<path d="M269.327 165.215C270.32 164.817 270.717 163.624 270.221 162.729C269.724 161.833 268.632 161.336 267.738 161.833C266.745 162.231 266.348 163.425 266.844 164.32C267.242 165.315 268.334 165.713 269.327 165.215Z" fill="white"/>
<path d="M287.302 167.602L288.494 170.188L289.487 169.691C290.083 170.487 290.877 171.183 291.672 171.68L291.274 172.775L293.956 173.769L294.353 172.675C295.346 172.874 296.339 172.775 297.332 172.576L297.829 173.57L300.411 172.377L299.914 171.382C300.709 170.785 301.404 169.99 301.9 169.194L302.993 169.592L303.986 166.906L302.894 166.508C303.092 165.514 302.993 164.519 302.794 163.524L303.787 163.027L302.596 160.441L301.603 160.938C301.007 160.142 300.212 159.446 299.418 158.949L299.815 157.855L297.134 156.86L296.736 157.954C295.743 157.755 294.75 157.855 293.757 158.053L293.261 157.059L290.679 158.252L291.175 159.247C290.381 159.844 289.685 160.64 289.189 161.435L288.096 161.037L287.103 163.723L288.196 164.121C287.997 165.116 288.096 166.11 288.295 167.105L287.302 167.602ZM293.559 160.938C295.942 159.844 298.822 160.839 299.914 163.226C301.007 165.613 300.014 168.498 297.63 169.592C295.247 170.686 292.367 169.691 291.274 167.304C290.083 164.917 291.175 162.132 293.559 160.938Z" fill="white"/>
<path d="M296.041 166.309C296.637 166.011 296.836 165.414 296.538 164.817C296.24 164.22 295.644 164.021 295.048 164.32C294.452 164.618 294.254 165.215 294.552 165.812C294.85 166.409 295.545 166.607 296.041 166.309Z" fill="white"/>
<path d="M270.618 140.248L272.604 144.526L274.293 143.73C275.286 145.122 276.477 146.217 277.967 147.112L277.371 148.902L281.741 150.494L282.337 148.703C283.926 149.002 285.614 148.902 287.302 148.504L288.097 150.195L292.367 148.206L291.572 146.515C292.963 145.52 294.055 144.327 294.949 142.835L296.736 143.431L298.325 139.055L296.538 138.458C296.836 136.867 296.736 135.176 296.339 133.485L298.027 132.689L296.041 128.412L294.353 129.208C293.36 127.815 292.168 126.721 290.679 125.826L291.274 124.035L286.905 122.444L286.309 124.234C284.72 123.936 283.032 124.035 281.343 124.433L280.549 122.742L276.279 124.732L277.073 126.423C275.683 127.417 274.59 128.611 273.697 130.103L271.909 129.506L270.32 133.883L272.108 134.479C271.81 136.071 271.909 137.762 272.306 139.453L270.618 140.248ZM280.847 129.307C284.819 127.417 289.487 129.208 291.374 133.186C293.261 137.165 291.473 141.84 287.501 143.73C283.528 145.62 278.861 143.829 276.974 139.851C275.186 135.872 276.875 131.097 280.847 129.307Z" fill="white"/>
<path d="M285.018 138.16C285.912 137.762 286.309 136.668 285.912 135.673C285.514 134.778 284.422 134.38 283.429 134.778C282.535 135.176 282.138 136.27 282.535 137.264C282.932 138.16 284.025 138.558 285.018 138.16Z" fill="white"/>
<path d="M92.1591 191.574L93.1522 188.888L92.0598 188.49C92.2584 187.496 92.2584 186.501 92.0598 185.506L93.0529 185.009L91.9605 182.423L90.9674 182.92C90.3715 182.125 89.6763 181.428 88.7826 180.831L89.1798 179.737L86.4984 178.743L86.1012 179.837C85.1081 179.638 84.115 179.638 83.1219 179.837L82.6254 178.842L80.0433 179.936L80.5399 180.931C79.7454 181.528 79.0502 182.224 78.4544 183.119L77.362 182.721L76.3689 185.407L77.4613 185.805C77.2627 186.8 77.2627 187.794 77.4613 188.789L76.4682 189.286L77.5606 191.872L78.5537 191.375C79.1496 192.171 79.8447 192.867 80.7385 193.464L80.3413 194.558L83.0226 195.553L83.4199 194.458C84.413 194.657 85.406 194.657 86.3991 194.458L86.8957 195.453L89.4777 194.359L88.9812 193.364C89.7757 192.768 90.4708 192.071 91.0667 191.176L92.1591 191.574ZM83.1219 191.574C80.6392 190.579 79.4475 187.794 80.4406 185.308C81.4337 182.821 84.2143 181.627 86.6971 182.622C89.1798 183.617 90.3715 186.402 89.3784 188.888C88.3853 191.375 85.6047 192.569 83.1219 191.574Z" fill="white"/>
<path d="M85.3067 186.103C84.7109 185.904 84.115 186.203 83.8171 186.7C83.6185 187.297 83.9164 187.894 84.413 188.192C85.0088 188.391 85.6047 188.093 85.9026 187.595C86.1012 186.899 85.8033 186.302 85.3067 186.103Z" fill="white"/>
<path d="M84.115 218.131L85.8033 213.755L84.115 213.058C84.4129 211.368 84.4129 209.677 84.0157 208.085L85.704 207.389L83.8171 203.112L82.1288 203.808C81.235 202.416 80.0433 201.321 78.5537 200.327L79.2488 198.636L74.8792 196.945L74.1841 198.636C72.4958 198.337 70.8075 198.337 69.2186 198.735L68.5234 197.044L64.2531 198.934L64.9483 200.625C63.558 201.52 62.4656 202.714 61.4725 204.206L59.7842 203.51L58.0959 207.886L59.7842 208.582C59.4863 210.273 59.4863 211.964 59.8835 213.556L58.1953 214.252L60.0821 218.529L61.7704 217.833C62.6642 219.225 63.8559 220.32 65.3455 221.314L64.6504 223.005L69.02 224.696L69.7151 223.005C71.4034 223.304 73.0917 223.304 74.6806 222.906L75.3758 224.597L79.6461 222.707L78.9509 221.016C80.3413 220.121 81.4337 218.927 82.4267 217.435L84.115 218.131ZM69.1193 218.231C65.0476 216.639 63.0614 212.064 64.6504 207.986C66.2393 203.908 70.8076 201.918 74.8792 203.51C78.9509 205.101 80.9371 209.677 79.3482 213.755C77.7592 217.833 73.191 219.822 69.1193 218.231Z" fill="white"/>
<path d="M72.6944 209.08C71.7013 208.682 70.7082 209.179 70.311 210.174C69.9137 211.169 70.4103 212.163 71.4034 212.561C72.3965 212.959 73.3896 212.462 73.7868 211.467C74.184 210.572 73.6875 209.478 72.6944 209.08Z" fill="white"/>
<path d="M274.293 249.861C274.293 249.861 272.306 249.663 271.909 251.254C271.512 252.845 274.293 252.647 274.293 252.647V249.861Z" fill="#F1FAE3"/>
<path d="M303.092 244.988L288.394 249.364H273.895V252.945L288.494 254.736L306.469 252.945L303.092 244.988Z" fill="#0B1032"/>
<path d="M186.006 77.7832C177.962 75.4955 172.6 83.9502 164.754 80.9662V68.7317V41.2788H56.0105V150.195H83.3206H95.6349C98.6142 142.337 90.1729 136.966 92.457 128.909C94.6418 121.051 103.083 118.565 110.432 118.366C110.035 118.366 109.638 118.366 109.24 118.366H111.624C111.227 118.366 110.829 118.366 110.432 118.366C117.781 118.565 126.222 121.051 128.407 128.909C130.691 136.966 122.25 142.337 125.229 150.195H137.544H164.854V122.842V110.508C172.699 107.524 178.062 115.979 186.106 113.691C193.951 111.503 196.434 103.048 196.633 95.6873C196.335 88.4262 193.852 79.9715 186.006 77.7832Z" fill="#161183"/>
<path d="M287.6 198.934H260.29H247.976C244.996 191.077 253.438 185.705 251.153 177.649C248.969 169.791 240.527 167.304 233.178 167.105C225.83 167.304 217.388 169.791 215.203 177.649C212.919 185.705 221.361 191.077 218.381 198.934H206.067H178.757V226.288V238.622C186.602 241.606 191.965 233.151 200.009 235.439C207.855 237.627 210.337 246.082 210.536 253.442C210.536 253.045 210.536 252.647 210.536 252.249V254.537C210.536 254.139 210.536 253.741 210.536 253.343C210.337 260.704 207.855 269.158 200.009 271.347C191.965 273.634 186.602 265.18 178.757 268.164V280.498V307.851H287.501V198.934H287.6Z" fill="#5060D8"/>
<path d="M158.101 60.6749L163.96 87.4315L166.542 99.467C174.785 100.661 178.26 91.3107 186.602 91.8081C194.746 92.3054 198.917 99.9644 200.704 107.126C200.605 106.728 200.605 106.33 200.506 105.932L201.002 108.22C200.903 107.822 200.804 107.424 200.704 107.126C201.995 114.387 201.399 123.14 194.249 126.92C186.9 130.799 179.849 123.737 172.798 128.313L175.38 140.348L181.24 167.105L207.954 161.236L219.97 158.65C221.162 150.394 211.827 146.913 212.323 138.558C212.82 130.401 220.467 126.224 227.617 124.433C227.22 124.533 226.823 124.533 226.425 124.632L228.71 124.135C228.312 124.234 227.915 124.334 227.617 124.433C234.867 123.041 243.606 123.737 247.38 130.899C251.253 138.259 244.202 145.321 248.77 152.384L260.786 149.797L287.501 143.929L264.262 37.499L158.101 60.6749Z" fill="#A6DCEA"/>
<path d="M200.208 235.439C192.164 233.151 186.801 241.606 178.956 238.622V226.288V198.934H151.645H139.331C136.352 191.077 144.793 185.705 142.509 177.649C140.324 169.791 131.883 167.304 124.534 167.105C117.185 167.304 108.744 169.791 106.559 177.649C104.275 185.705 112.716 191.077 109.737 198.934H97.5219H70.2118V307.851H178.956V280.498V268.164C186.801 265.18 192.164 273.634 200.208 271.347C208.053 269.158 210.536 260.704 210.735 253.343C210.536 246.082 208.053 237.627 200.208 235.439Z" fill="#E5F5F9"/>
<path d="M100.104 140.846H98.4156V335.205H100.104V140.846Z" fill="#0A0747"/>
<path d="M126.222 140.846H124.534V335.205H126.222V140.846Z" fill="#0A0747"/>
<path d="M125.428 149.3H98.4156V150.991H125.428V149.3Z" fill="#0A0747"/>
<path d="M125.428 163.624H98.4156V165.314H125.428V163.624Z" fill="#0A0747"/>
<path d="M125.428 177.947H98.4156V179.638H125.428V177.947Z" fill="#0A0747"/>
<path d="M125.428 192.27H98.4156V193.961H125.428V192.27Z" fill="#0A0747"/>
<path d="M125.428 206.593H98.4156V208.284H125.428V206.593Z" fill="#0A0747"/>
<path d="M125.428 220.817H98.4156V222.508H125.428V220.817Z" fill="#0A0747"/>
<path d="M125.428 235.141H98.4156V236.832H125.428V235.141Z" fill="#0A0747"/>
<path d="M125.428 249.464H98.4156V251.155H125.428V249.464Z" fill="#0A0747"/>
<path d="M125.428 263.787H98.4156V265.478H125.428V263.787Z" fill="#0A0747"/>
<path d="M125.428 278.11H98.4156V279.801H125.428V278.11Z" fill="#0A0747"/>
<path d="M125.428 292.434H98.4156V294.125H125.428V292.434Z" fill="#0A0747"/>
<path d="M125.428 306.657H98.4156V308.348H125.428V306.657Z" fill="#0A0747"/>
<path d="M125.428 320.98H98.4156V322.671H125.428V320.98Z" fill="#0A0747"/>
<path d="M33.1693 42.8706H24.728V43.6663H33.1693V42.8706Z" fill="white"/>
<path d="M29.3955 39.0908H28.6011V47.5455H29.3955V39.0908Z" fill="white"/>
<path d="M26.7142 156.362H20.0604V157.158H26.7142V156.362Z" fill="white"/>
<path d="M23.8341 153.378H23.0397V160.142H23.8341V153.378Z" fill="white"/>
<path d="M210.039 7.55957H203.386V8.35531H210.039V7.55957Z" fill="white"/>
<path d="M207.159 4.57568H206.365V11.3394H207.159V4.57568Z" fill="white"/>
<path d="M309.547 104.64H301.106V105.435H309.547V104.64Z" fill="white"/>
<path d="M305.774 100.86H304.979V109.315H305.774V100.86Z" fill="white"/>
<path d="M53.4285 178.245C50.9458 178.245 48.9596 176.256 48.9596 173.769C48.9596 171.282 50.9458 169.293 53.4285 169.293C55.9113 169.293 57.8974 171.282 57.8974 173.769C57.8974 176.256 55.9113 178.245 53.4285 178.245ZM53.4285 170.089C51.4423 170.089 49.7541 171.78 49.7541 173.769C49.7541 175.758 51.4423 177.449 53.4285 177.449C55.4147 177.449 57.103 175.758 57.103 173.769C57.103 171.78 55.514 170.089 53.4285 170.089Z" fill="white"/>
<path d="M324.245 173.57C324.245 175.261 322.855 176.654 321.167 176.654C319.478 176.654 318.088 175.261 318.088 173.57C318.088 171.879 319.478 170.487 321.167 170.487C322.855 170.487 324.245 171.879 324.245 173.57Z" fill="white"/>
<path d="M288.99 162.032L288.792 161.236C288.792 161.236 290.48 160.839 293.062 159.844L293.36 160.54C290.679 161.734 289.09 162.032 288.99 162.032ZM297.63 158.75L297.332 158.053C298.623 157.357 300.014 156.661 301.305 155.865L301.702 156.561C300.312 157.258 299.021 158.053 297.63 158.75ZM305.575 153.975L305.178 153.378C306.369 152.483 307.66 151.588 308.753 150.593L309.249 151.19C307.958 152.085 306.767 153.08 305.575 153.975ZM312.626 148.107L312.129 147.51C313.222 146.515 314.314 145.421 315.307 144.327L315.903 144.824C314.811 146.018 313.718 147.112 312.626 148.107ZM318.982 141.442L318.386 140.945C319.379 139.751 320.273 138.558 321.167 137.364L321.762 137.862C320.869 139.055 319.876 140.249 318.982 141.442ZM324.444 133.982L323.848 133.585C324.642 132.291 325.437 130.998 326.231 129.705L326.927 130.103C326.033 131.396 325.238 132.689 324.444 133.982ZM329.012 126.025L328.317 125.627C329.012 124.334 329.707 122.942 330.303 121.549L330.998 121.847C330.402 123.339 329.707 124.732 329.012 126.025ZM332.885 117.67L332.19 117.371C332.786 115.979 333.282 114.586 333.779 113.094L334.474 113.393C333.977 114.885 333.481 116.277 332.885 117.67ZM335.964 109.016L335.269 108.817C335.765 107.425 336.162 105.933 336.56 104.441L337.255 104.64C336.857 106.132 336.46 107.624 335.964 109.016ZM338.446 100.164L337.751 99.9646C338.049 98.4726 338.446 96.9806 338.744 95.4886L339.539 95.6876C339.042 97.1796 338.744 98.771 338.446 100.164ZM340.234 91.2115L339.439 91.1121C339.638 89.9185 339.837 88.7249 340.035 87.5312L340.83 87.6307C340.631 88.8243 340.433 90.0179 340.234 91.2115Z" fill="white"/>
<path d="M291.97 164.021L287.898 161.833L290.182 157.755L290.778 158.153L288.891 161.535L292.268 163.325L291.97 164.021Z" fill="white"/>
<path d="M198.42 26.3589C198.42 28.0498 197.03 29.4424 195.342 29.4424C193.653 29.4424 192.263 28.0498 192.263 26.3589C192.263 24.6679 193.653 23.2754 195.342 23.2754C197.03 23.2754 198.42 24.6679 198.42 26.3589Z" fill="white"/>
<path d="M16.2867 227.282L15.7902 226.685L19.4646 223.9L19.9612 224.497L16.2867 227.282ZM23.6356 221.811L23.1391 221.215L26.8135 218.43L27.3101 219.026L23.6356 221.811ZM30.9845 216.341L30.488 215.744L34.1624 212.959L34.6589 213.556L30.9845 216.341ZM38.3334 210.87L37.8368 210.273L41.5113 207.488L42.0078 208.085L38.3334 210.87ZM45.6823 205.3L45.1857 204.703L48.8602 201.918L49.3567 202.515L45.6823 205.3ZM53.0312 199.829L52.5346 199.232L56.2091 196.447L56.7056 197.044L53.0312 199.829Z" fill="white"/>
<path d="M56.5069 200.227L55.7125 200.028L56.4076 196.845L53.2297 196.646V195.851L57.4007 196.149L56.5069 200.227Z" fill="white"/>
<path d="M12.6123 79.4744C11.7186 78.1813 10.9241 76.8882 10.1296 75.5952L10.8248 75.1973C11.6192 76.4904 12.4137 77.7834 13.3075 79.0765L12.6123 79.4744ZM8.04411 71.4175C7.44825 70.025 6.8524 68.533 6.35585 67.1405L7.05101 66.9415C7.54756 68.3341 8.14342 69.8261 8.73927 71.1191L8.04411 71.4175ZM5.06483 62.6644C4.66759 61.1724 4.46897 59.6804 4.27035 58.089H4.96552C5.16414 59.581 5.46206 61.073 5.75999 62.565L5.06483 62.6644ZM3.7738 53.6129C3.7738 52.9167 3.7738 52.3199 3.7738 51.6236C3.7738 50.7284 3.7738 49.8332 3.87311 48.938H4.66759C4.66759 49.8332 4.56828 50.6289 4.56828 51.5241C4.56828 52.2204 4.56828 52.8172 4.56828 53.5135L3.7738 53.6129ZM5.06483 44.462L4.27035 44.3625C4.46897 42.8705 4.7669 41.279 5.16414 39.787L5.95861 39.9859C5.56137 41.4779 5.26344 42.9699 5.06483 44.462ZM7.24963 35.7088L6.55447 35.4104C7.05101 33.9184 7.64687 32.5259 8.34204 31.1334L8.93789 31.4318C8.34204 32.8243 7.74618 34.2168 7.24963 35.7088ZM11.1227 27.4531L10.4275 27.0552C11.222 25.7621 12.0165 24.4691 13.0096 23.176L13.6054 23.6733C12.7116 24.8669 11.9172 26.16 11.1227 27.4531ZM16.4854 20.0925L15.8895 19.5952C16.8826 18.4016 17.975 17.3074 19.0675 16.3127L19.564 16.9096C18.4716 17.9042 17.4785 18.9984 16.4854 20.0925ZM23.0398 13.9255L22.5433 13.3287C23.735 12.4335 25.026 11.5383 26.317 10.7426L26.7143 11.4389C25.5226 12.1351 24.3308 13.0303 23.0398 13.9255ZM77.7593 11.8367C76.6669 11.1405 75.5745 10.4442 74.4821 9.84738L74.8793 9.15111C75.9717 9.74792 77.1634 10.4442 78.1565 11.1405L77.7593 11.8367ZM30.786 9.05165L30.488 8.35538C31.8784 7.65911 33.2687 7.06231 34.659 6.4655L34.957 7.16177C33.5666 7.75857 32.077 8.45485 30.786 9.05165ZM70.4104 7.85804C69.0201 7.26124 67.6297 6.7639 66.1401 6.26657L66.3387 5.5703C67.8284 6.06763 69.2187 6.56497 70.7083 7.16177L70.4104 7.85804ZM39.2273 5.8687L39.0286 5.17243C40.5183 4.77456 42.0079 4.37669 43.4976 4.17776L43.6962 4.87403C42.2065 5.07296 40.7169 5.47083 39.2273 5.8687ZM61.7705 5.17243C60.2808 4.87403 58.7912 4.57563 57.3016 4.47616L57.4009 3.68042C58.8905 3.87936 60.4795 4.07829 61.9691 4.37669L61.7705 5.17243ZM48.1651 4.27723L48.0658 3.48149C49.3568 3.38202 50.5485 3.28255 51.8396 3.38202C52.1375 3.38202 52.3361 3.38202 52.634 3.38202V4.17776C52.3361 4.17776 52.1375 4.17776 51.8396 4.17776C50.6478 4.17776 49.3568 4.17776 48.1651 4.27723Z" fill="white"/>
<path d="M74.6807 12.6325L74.5814 11.8367L77.8586 11.3394L76.8655 8.25592L77.5607 7.95752L78.8517 11.9362L74.6807 12.6325Z" fill="white"/>
<path d="M183.226 120.454C183.226 120.454 185.113 119.46 184.616 116.874C184.616 116.874 182.829 119.062 178.558 119.659C174.288 120.156 173.096 126.522 176.771 129.207C180.445 131.893 181.736 126.422 181.736 126.422L182.431 123.14L183.226 120.454Z" fill="#0B1032"/>
<path d="M183.226 120.454C180.544 120.454 181.14 121.946 181.14 121.946L181.835 124.93L180.247 125.527L179.055 124.333C177.168 123.935 178.062 126.223 178.062 126.223L175.976 128.213L175.38 130.102L180.445 134.578L182.332 130.998L185.907 129.903L184.914 126.323L186.602 125.825L183.226 120.454Z" fill="#D2C3A8"/>
<path d="M155.121 195.95L155.717 197.641L159.193 198.934H150.553L150.95 195.95H155.121Z" fill="#0B1032"/>
<path d="M161.775 163.623L160.583 178.444L150.553 196.248H155.618L166.045 183.815L172.898 164.518L161.775 163.623Z" fill="#0B1032"/>
<path d="M187.397 195.95L187.993 197.641L191.369 198.934H182.829V196.646L187.397 195.95Z" fill="#0B1032"/>
<path d="M170.713 167.005L179.849 180.334L182.431 196.746H187.893L186.602 177.25L180.644 161.335L170.713 167.005Z" fill="#0B1032"/>
<path d="M179.849 167.403L160.981 164.717L168.627 135.971C169.62 132.49 172.103 129.506 175.38 128.014L181.538 134.877L182.332 143.928L179.849 167.403Z" fill="#0B1032"/>
<path d="M179.452 138.458C179.452 138.458 179.353 137.264 179.551 135.573L181.339 135.673C181.339 135.673 181.538 136.966 181.24 138.557L181.339 139.95C181.339 139.95 181.835 144.227 182.133 147.808C182.431 151.389 181.637 163.325 181.637 163.325L179.75 166.706L177.565 163.822C177.565 163.822 178.161 150.394 179.452 140.646V138.458Z" fill="#FE300C"/>
<path d="M206.365 130.898C206.365 130.898 208.152 129.904 209.146 131.296C210.139 132.589 207.457 133.485 207.457 133.485L206.365 130.898Z" fill="#D2C3A8"/>
<path d="M175.38 132.49L190.972 132.59L206.663 130.302L208.252 134.082L192.263 138.359L176.175 142.238L175.38 132.49Z" fill="#0B1032"/>
<path d="M105.169 128.113C105.169 128.113 104.275 140.049 108.942 153.676H111.326C111.326 153.676 110.035 135.076 110.432 128.113H105.169Z" fill="white"/>
<path d="M108.942 153.677V164.121C108.942 164.121 112.22 164.718 112.22 161.933C112.22 159.147 111.326 153.677 111.326 153.677H108.942Z" fill="#0B1032"/>
<path d="M120.363 128.113C120.363 128.113 121.257 140.049 116.589 153.676H114.206C114.206 153.676 115.497 135.076 115.1 128.113H120.363Z" fill="white"/>
<path d="M116.49 153.677V164.121C116.49 164.121 113.213 164.718 113.213 161.933C113.213 159.147 114.106 153.677 114.106 153.677H116.49Z" fill="#0B1032"/>
<path d="M109.935 73.9039C106.261 74.1029 104.871 75.9927 104.473 79.5736C104.076 82.9554 105.864 85.3426 109.34 85.641C109.34 85.641 114.404 86.4368 114.106 77.2858C114.106 77.2858 114.007 73.6055 109.935 73.9039Z" fill="#0B1032"/>
<path d="M108.644 76.7887C108.644 78.3802 107.353 79.7727 105.665 79.7727C103.977 79.7727 102.686 78.4796 102.686 76.7887C102.686 75.1972 103.977 73.8047 105.665 73.8047C107.353 73.8047 108.644 75.1972 108.644 76.7887Z" fill="#0B1032"/>
<path d="M113.213 74.9985L117.086 80.2703L115.993 80.8671L117.086 82.6575L114.007 85.1442L114.206 87.1335H109.34V85.6415C109.34 85.6415 112.021 85.8405 111.922 81.3644C111.922 81.3644 109.538 77.6841 111.922 78.1815C111.922 78.1815 114.504 76.9879 113.213 74.9985Z" fill="#D2C3A8"/>
<path d="M106.46 95.0903L90.7687 79.8718L91.8611 64.6533H95.039L95.7342 78.0814L110.73 90.6142L106.46 95.0903Z" fill="#0B1032"/>
<path d="M118.079 101.158L121.555 90.4154L119.072 87.2324H112.418H105.764L103.282 90.4154L106.758 101.158L102.388 117.57H112.418H122.448L118.079 101.158Z" fill="#0B1032"/>
<path d="M112.418 117.57H102.785V133.683H112.418H122.051V117.57H112.418Z" fill="#0B1032"/>
<path d="M92.0598 64.6535C92.0598 64.6535 91.7618 62.8631 93.3508 62.6642C94.9397 62.4652 94.6418 64.6535 94.6418 64.6535H92.0598Z" fill="#D2C3A8"/>
<path d="M116.689 95.0903L132.379 79.8718L131.386 64.6533H128.208L127.414 78.0814L112.518 90.6142L116.689 95.0903Z" fill="#0B1032"/>
<path d="M131.088 64.6535C131.088 64.6535 131.386 62.8631 129.797 62.6642C128.208 62.4652 128.506 64.6535 128.506 64.6535H131.088Z" fill="#D2C3A8"/>
<path d="M70.5096 256.625C70.5096 256.625 72.6944 257.421 74.3826 255.133C74.3826 255.133 71.3041 255.332 67.8282 252.248C64.3524 249.264 58.3938 252.845 58.8904 257.719C59.3869 262.593 64.7496 259.609 64.7496 259.609L67.8282 257.719L70.5096 256.625Z" fill="#0B1032"/>
<path d="M70.5096 256.625C68.5234 254.536 67.7289 256.028 67.7289 256.028L65.8421 258.714L64.1538 257.819L64.2531 256.028C63.26 254.238 61.969 256.526 61.969 256.526L58.8904 256.227L56.9042 257.122L56.1097 264.682L61.0752 262.593L64.4517 264.682L66.8352 261.996L68.4241 263.09L70.5096 256.625Z" fill="#D2C3A8"/>
<path d="M31.2825 284.575L17.5778 268.263L47.4699 255.829C51.1443 254.337 55.216 254.536 58.6918 256.426L56.805 266.174L49.6547 272.838L31.2825 284.575Z" fill="#0B1032"/>
<path d="M52.8326 267.268C52.8326 267.268 53.1305 265.975 54.0243 264.383L55.7126 265.08C55.7126 265.08 55.4146 266.472 54.5208 267.964L54.0243 269.456C54.0243 269.456 52.9319 273.932 51.8395 277.612C50.7471 281.293 45.3844 293.03 45.3844 293.03L42.1072 295.715L41.0148 291.936C41.0148 291.936 46.7747 278.607 51.7402 269.357L52.8326 267.268Z" fill="#FE300C"/>
<path d="M11.6192 316.106L12.3143 317.996L15.9888 319.389H6.65369V316.902L11.6192 316.106Z" fill="#0B1032"/>
<path d="M41.6105 316.106L42.3057 317.996L45.9801 319.389H36.645L36.7443 316.902L41.6105 316.106Z" fill="#0B1032"/>
<path d="M25.2245 277.712L40.0216 294.124L36.2478 317.001H42.2064L49.6546 291.041L31.2824 263.389L25.2245 277.712Z" fill="#0B1032"/>
<path d="M73.3896 287.261C73.3896 287.261 75.2765 287.957 74.9785 289.548C74.6806 291.14 72.1979 289.847 72.1979 289.847L73.3896 287.261Z" fill="#D2C3A8"/>
<path d="M52.634 261.797L60.678 276.518L74.0848 287.062L72.3965 290.842L57.5994 282.387L45.9802 268.959L52.634 261.797Z" fill="#0B1032"/>
<path d="M28.5018 272.241L28.2038 269.755C28.2038 269.755 25.7211 266.97 21.0536 268.362C16.386 269.755 16.684 274.529 16.684 274.529L22.146 299.595L6.25647 317.101L11.0233 318.891L32.3748 302.579L28.5018 272.241Z" fill="#0B1032"/>
<path d="M289.189 245.087C289.189 245.087 286.905 245.783 285.514 243.297C285.514 243.297 288.593 243.694 292.267 241.009C296.041 238.323 301.603 242.401 300.709 247.176C299.815 251.95 294.75 248.668 294.75 248.668L291.771 246.579L289.189 245.087Z" fill="#0B1032"/>
<path d="M289.189 245.087C291.274 243.197 291.969 244.689 291.969 244.689L293.658 247.574L295.346 246.778L295.445 244.988C296.538 243.297 297.63 245.684 297.63 245.684H300.709L302.596 246.778L302 254.039L298.027 251.851L294.452 253.641L292.267 250.757L290.579 251.652L289.189 245.087Z" fill="#D2C3A8"/>
<path d="M327.423 280.994L341.028 265.577L312.725 246.38C309.448 244.192 305.376 243.495 301.603 244.589L301.404 254.536L307.065 262.494L327.423 280.994Z" fill="#0B1032"/>
<path d="M304.284 257.819C304.284 257.819 304.284 256.526 303.887 254.636L302 254.835C302 254.835 301.9 256.327 302.397 258.018L302.496 259.51C302.496 259.51 302.397 264.185 302.397 267.964C302.397 271.844 304.483 284.575 304.483 284.575L306.866 288.057L308.852 284.675C308.852 284.675 306.866 270.252 304.483 260.007L304.284 257.819Z" fill="#FE300C"/>
<path d="M345.994 316.106L345.299 317.996L341.624 319.389H350.959V316.803L345.994 316.106Z" fill="#0B1032"/>
<path d="M342.022 269.755L346.292 298.6L351.456 317.002L346.689 318.892L338.744 299.595L329.409 269.755H342.022Z" fill="#0B1032"/>
<path d="M320.074 316.106L319.379 317.996L315.704 319.389H324.94V316.803L320.074 316.106Z" fill="#0B1032"/>
<path d="M338.248 278.806L329.409 290.145L325.437 317.001H319.478L320.372 286.763L330.402 263.389L338.248 278.806Z" fill="#0B1032"/>
<path d="M275.981 261.897C275.981 261.897 273.995 261.698 273.597 263.389C273.299 264.98 275.981 264.781 275.981 264.781V261.897Z" fill="#D2C3A8"/>
<path d="M305.078 250.657L290.877 258.913L275.484 261.499L275.583 265.677L292.764 264.284L309.746 260.405L305.078 250.657Z" fill="#0B1032"/>
<path d="M340.433 265.676C340.433 265.676 341.823 266.074 342.617 273.634C343.312 280.597 331.395 272.341 331.395 272.341V267.268L335.765 264.781L340.433 265.676Z" fill="#0B1032"/>
</g>
<defs>
<clipPath id="clip0">
<rect width="365.359" height="336" fill="white"/>
</clipPath>
</defs>
</svg>
