<svg width="431" height="277" viewBox="0 0 431 277" fill="none" xmlns="http://www.w3.org/2000/svg">
<path d="M315.587 35.071C315.678 33.8047 315.738 32.5384 315.678 31.2419C315.648 29.9756 315.527 28.7395 315.346 27.5335L308.894 26.4782L306.693 20.3879L311.004 15.4734C309.708 13.3026 308.14 11.3127 306.391 9.50366L300.542 12.4282L295.176 8.78006L295.779 2.26762C293.548 1.33296 291.196 0.639509 288.754 0.187256L285.708 6.00624L279.226 6.15699L275.879 0.488758C273.377 1.06161 270.995 1.90582 268.764 2.99122L269.729 9.47351L264.573 13.4232L258.573 10.8303C256.915 12.7297 255.498 14.8101 254.292 17.0412L258.875 21.7145L257.036 27.9254L250.644 29.3726C250.523 30.6691 250.493 31.9655 250.523 33.3223C250.553 34.5283 250.674 35.7343 250.855 36.9102L257.307 37.9956L259.478 44.1161L255.136 49.0305C256.433 51.2014 258 53.2214 259.749 55.0304L265.598 52.1059L270.965 55.754L270.362 62.2665C272.653 63.2313 275.065 63.9549 277.598 64.4071L280.613 58.5882L287.095 58.4073L290.442 64.0453C292.944 63.4725 295.326 62.5981 297.557 61.5127L296.593 55.0304L301.718 51.0506L307.718 53.6134C309.376 51.7139 310.793 49.6336 311.969 47.4024L307.386 42.7593L309.195 36.5182L315.587 35.071ZM283.116 48.3974C274.221 48.3974 267.015 41.1915 267.015 32.2972C267.015 23.4029 274.221 16.197 283.116 16.197C292.01 16.197 299.216 23.4029 299.216 32.2972C299.216 41.1915 292.01 48.3974 283.116 48.3974Z" fill="#9BC4FB"/>
<path d="M260.262 104.145L233.368 123.773L209.941 113.642L206.504 119.944L224.262 132.064L234.212 135.773L260.262 123.23V104.145Z" fill="#192657"/>
<path d="M296.201 63.774L296.774 55.5732L290.141 50.4175L287.337 54.0656L290.352 59.4324L289.266 62.2062L292.221 66.6383L296.201 63.774Z" fill="#D2C3A8"/>
<path d="M243.8 156.938L243.257 203.49L248.202 263.429H254.955L263.035 208.133L272.261 152.748L243.8 156.938Z" fill="#FCC969"/>
<path d="M254.925 266.293L247.629 269.941L243.981 266.293L247.629 262.645H254.925V266.293Z" fill="white"/>
<path d="M290.05 156.938L290.171 183.862L285.618 263.429H278.894L267.588 210.636L261.558 152.747L290.05 156.938Z" fill="#FCC969"/>
<path d="M278.925 266.293L286.221 269.941L289.869 266.293L286.221 262.645H278.925V266.293Z" fill="white"/>
<path d="M297.075 173.159C297.226 177.441 297.135 183.139 295.326 183.35C294.995 183.38 294.663 183.229 294.362 183.109C291.226 181.601 288.995 179.43 285.92 177.983C282.693 176.446 279.015 175.632 275.427 175.089C270.061 174.245 264.633 173.732 259.237 173.672C254.593 173.642 249.8 175.752 245.398 176.898C243.709 177.35 242.352 178.586 240.935 179.551C238.855 180.968 237.951 181.541 238.252 178.616C238.704 173.883 239.187 169.119 239.76 164.386C240.935 154.949 242.503 145.542 245.187 136.406C246.212 132.909 247.388 129.472 248.563 126.035C250.011 121.844 251.428 117.653 252.875 113.462C254.654 108.246 257.669 104.598 262.975 102.759C267.528 101.191 273.226 100.769 277.658 102.97C282.603 105.412 284.955 113.763 287.337 118.226C289.447 122.145 292.1 132.788 292.884 137.009C293.819 142.074 294.693 147.14 295.387 152.145C296.14 157.722 296.683 163.27 296.834 168.787C296.864 169.39 296.985 171.109 297.075 173.159Z" fill="#192657"/>
<path d="M272.684 103.693L263.578 103.784C263.578 103.784 253.779 137.974 253.448 143.883C253.086 149.672 250.614 173.129 250.614 173.129C250.614 173.129 260.714 173.37 272.352 174.787C283.719 177.229 284.683 175.782 284.683 175.782C284.683 175.782 278.533 151.119 278.352 144.034C278.141 136.798 277.206 112.859 277.206 112.859L272.684 103.693Z" fill="white"/>
<path d="M271.357 104.236H266.865C265.809 104.236 265.237 105.442 265.87 106.256L267.709 108.668L262.794 153.893L268.824 159.833L272.985 152.778L271.839 108.668L272.563 105.804C272.774 105.02 272.171 104.236 271.357 104.236Z" fill="#FB4505"/>
<path d="M267.136 103.874C267.257 103.964 267.377 104.055 267.498 104.085C267.769 104.175 268.101 104.145 268.372 104.115C269.578 103.964 270.784 103.844 271.99 103.693C271.598 99.9846 273.739 99.1705 275.849 96.7887C277.99 94.3766 277.327 91.1204 277.206 88.1959C277.176 87.3818 277.146 86.5376 276.784 85.7838C276.181 84.4874 274.764 83.7638 273.377 83.3417C269.85 82.2563 265.84 82.5276 262.764 84.5175C261.95 85.0602 261.166 85.7235 260.714 86.5979C260.021 87.9547 260.201 89.5526 260.382 91.03C260.684 93.3214 261.347 95.5827 262.674 97.5424C263.88 99.3514 266.201 100.226 266.473 102.397C266.563 102.879 266.744 103.512 267.136 103.874Z" fill="#D2C3A8"/>
<path d="M260.533 88.3164C260.744 89.251 261.166 90.1857 260.955 91.1204C259.478 90.6078 258.513 89.1003 258.001 87.5928C257.759 86.8993 257.578 86.1757 257.639 85.422C257.699 84.6984 258.031 83.9446 258.604 83.5225C259.418 82.9497 260.865 83.1607 261.106 84.216C261.347 85.2712 260.232 86.8993 260.533 88.3164Z" fill="#6E694F"/>
<path d="M252.724 80.1457C252.754 79.0302 253.176 78.0352 254.171 77.3719C255.016 76.799 256.01 76.3166 256.523 75.382C256.915 74.6584 256.975 73.784 257.397 73.0604C258.121 71.764 259.689 71.372 261.076 70.9499C264.513 69.8645 266.352 68.568 269.97 69.9851C272.563 70.98 275.879 71.1308 278.261 72.578C279.256 73.181 280.1 74.176 280.794 75.2614C283.206 79.0301 283.779 84.3667 282.211 88.2863C281.849 89.1606 281.397 89.9747 280.945 90.7586C279.98 92.3264 278.955 94.2258 277.266 94.9796C277.146 94.256 276.603 93.8339 276.452 93.1103C276.332 92.5977 276.362 92.055 276.392 91.5123C276.482 89.432 277.146 86.1757 275.065 85.1205C272.442 83.824 267.528 84.9999 265.025 86.0853C262.794 87.0501 259.026 88.3164 256.644 87.2913C254.443 86.3868 252.634 82.5276 252.724 80.1457Z" fill="#6E694F"/>
<path d="M275.608 102.487L298.764 95.673L290.171 66.7288L297.256 61.6636L314.291 95.1604L309.588 106.768L287.457 118.165L275.608 102.487Z" fill="#192657"/>
<path d="M202.223 118.135L204.665 113.582H210.544L213.68 118.165L206.956 121.12L202.223 118.135Z" fill="#D2C3A8"/>
<path d="M208.705 121.813L206.082 116.024C203.941 116.205 201.77 116.507 199.63 116.899C197.489 117.29 195.348 117.773 193.268 118.376L192.846 124.707C192.364 131.913 184.163 135.773 178.314 131.582L173.128 127.873C169.57 130.346 166.253 133.18 163.208 136.315L166.012 142.014C169.208 148.496 164.053 155.943 156.847 155.219L150.515 154.586C148.646 158.536 147.168 162.636 146.113 166.827L151.42 170.355C157.419 174.365 156.666 183.41 150.093 186.365L144.304 188.988C144.485 191.128 144.787 193.299 145.178 195.44C145.57 197.58 146.053 199.721 146.656 201.801L152.987 202.224C160.193 202.706 164.053 210.907 159.862 216.756L156.183 221.912C158.656 225.469 161.49 228.786 164.625 231.831L170.324 229.027C176.806 225.831 184.253 230.987 183.53 238.193L182.896 244.524C186.846 246.394 190.946 247.871 195.137 248.926L198.665 243.62C202.675 237.62 211.72 238.374 214.675 244.946L217.298 250.735C219.438 250.554 221.609 250.253 223.75 249.861C225.891 249.469 228.031 248.986 230.112 248.383L230.534 242.052C231.016 234.846 239.217 230.987 245.066 235.178L250.252 238.886C253.81 236.414 257.126 233.58 260.171 230.444L257.367 224.746C254.171 218.263 259.327 210.816 266.533 211.54L272.865 212.173C274.734 208.223 276.211 204.123 277.266 199.932L271.96 196.374C265.96 192.364 266.714 183.319 273.287 180.365L279.075 177.742C278.895 175.601 278.593 173.43 278.201 171.289C277.809 169.149 277.327 167.008 276.724 164.928L270.392 164.506C263.186 164.023 259.327 155.822 263.518 149.973L267.226 144.787C264.754 141.23 261.92 137.913 258.784 134.868L253.086 137.672C246.604 140.868 239.157 135.712 239.88 128.506L240.513 122.175C236.564 120.305 232.463 118.828 228.272 117.773L224.745 123.079C220.705 129.109 211.69 128.386 208.705 121.813ZM238.915 178.405C241.659 193.45 231.679 207.831 216.634 210.575C201.589 213.319 187.208 203.339 184.464 188.294C181.721 173.249 191.7 158.868 206.745 156.124C221.79 153.41 236.202 163.39 238.915 178.405Z" fill="#4A658D"/>
<path d="M218.112 213.048C201.74 216.575 185.58 206.143 182.052 189.772C178.525 173.4 188.957 157.24 205.328 153.682C221.7 150.124 237.86 160.586 241.388 176.958C244.915 193.329 234.483 209.49 218.112 213.048ZM206.564 159.561C193.419 162.395 185.067 175.39 187.901 188.505C190.735 201.651 203.73 210.003 216.845 207.168C229.991 204.334 238.343 191.34 235.508 178.224C232.674 165.079 219.71 156.727 206.564 159.561Z" fill="#A5A6A9"/>
<path d="M148.193 153.229L149.701 158.023L152.173 160.073L152.987 159.35L152.203 157.481L157.389 160.948L159.892 159.32L156.093 152.837L150.123 149.43L148.193 153.229Z" fill="#D2C3A8"/>
<path d="M108.033 104.266L119.732 106.467L135.741 136.104L154.646 150.697L149.158 156.848L128.867 144.938L107.521 113.281L108.033 104.266Z" fill="white"/>
<path d="M115.45 261.921L121.119 265.931L123.018 269.006C123.018 269.006 120.908 269.941 119.732 270.182C118.556 270.423 109.36 269.006 109.36 269.006V263.579L115.45 261.921Z" fill="black"/>
<path d="M96.0035 264.514L99.0788 267.589C99.0788 267.589 101.672 271.84 100.496 271.84C99.32 271.84 92.9583 272.534 92.4759 271.84C91.9935 271.147 88.4659 268.765 87.9835 268.313C87.5011 267.83 87.7423 263.7 87.7423 263.7L96.0035 264.514Z" fill="black"/>
<path d="M106.858 181.752L102.848 222.062L96.0035 264.514H87.7424L86.8077 220.193C86.8077 220.193 80.1144 183.772 79.3907 171.742L106.858 181.752Z" fill="#C7EEFF"/>
<path d="M124.646 182.445L117.561 263.579H109.089L106.496 222.062L101.611 185.309L120.154 163.571L124.646 182.445Z" fill="#C7EEFF"/>
<path d="M126.335 144.787C125.008 140.084 123.953 135.32 123.048 130.526C122.264 126.335 121.963 121.843 120.124 117.954C118.285 114.064 114.787 111.109 112.104 107.793C110.958 106.376 109.752 104.929 108.064 104.265C106.888 103.813 105.621 103.753 104.355 103.723C100.556 103.602 96.7573 103.512 92.9584 103.391C91.5715 103.361 90.1243 103.331 88.858 103.873C86.9585 104.718 85.9033 106.677 84.9686 108.486C82.5867 113.13 82.1345 118.315 81.9234 123.562C81.9234 123.622 83.0088 137.732 80.5365 148.918C78.0642 160.043 78.9386 189.651 81.2903 188.415C84.2149 186.877 87.5917 186.063 90.878 185.49C95.5212 184.646 100.255 184.133 104.988 183.982L113.31 184.616H118.345C121.36 184.947 121.119 185.972 124.224 185.761C126.214 185.611 127.571 149.189 126.335 144.787Z" fill="white"/>
<path d="M100.466 105.863C98.3553 105.773 96.2448 105.682 94.1343 105.592C94.0137 103.904 94.0438 102.215 94.1946 100.527C92.4157 100.014 90.3354 99.2002 89.9133 97.3911C89.7927 96.8183 89.853 96.2153 89.9133 95.6424C90.1846 93.2304 90.4861 90.8184 90.7575 88.4365C90.8479 87.5923 90.9685 86.7481 91.3605 86.0245C92.0841 84.7281 93.5614 84.1251 95.0086 83.7934C98.6568 82.9492 102.727 83.5221 105.712 85.7833C106.496 86.3863 107.25 87.1099 107.642 88.0446C108.245 89.4616 107.943 91.0898 107.642 92.5973C107.37 93.9842 107.069 95.3711 106.797 96.758C106.466 98.356 105.983 100.195 104.476 100.858C103.692 101.22 102.727 101.19 102.034 101.672C100.767 102.547 101.039 104.446 100.466 105.863Z" fill="#D2C3A8"/>
<path d="M112.164 75.2912C111.682 75.2007 111.229 75.1103 110.717 74.8992C109.179 74.2359 108.124 72.9093 106.496 72.2762C103.21 71.0099 99.079 71.1908 95.8529 72.5475C92.7474 73.844 88.5566 74.3565 85.7827 76.1052C84.637 76.8288 83.7325 77.9142 83.0692 79.1202C80.7175 83.2207 81.019 88.708 83.7928 92.5371C84.426 93.4114 85.1496 94.1652 85.9033 94.9189C87.4711 96.4566 89.3706 98.3561 91.451 98.8385C91.3907 96.9993 89.4008 91.3311 90.7274 89.7331C92.4761 87.6528 95.9132 87.6829 98.3855 87.9241C101.34 88.1955 103.752 87.2608 106.677 87.4115C108.184 87.4718 109.873 87.7734 111.018 86.8387C112.345 85.7231 115.149 82.1956 115.812 80.6579C116.385 79.3012 115.993 77.6429 114.998 76.5575C114.094 75.5625 113.159 75.4721 112.164 75.2912Z" fill="#3B3631"/>
<path d="M113.852 147.652C113.852 146.988 113.732 146.355 113.491 145.752C112.375 143.039 100.586 109.12 100.586 109.12C100.586 109.12 100.104 107.371 99.8929 105.803L96.1241 105.562L96.7573 109.421L98.5362 110.929C98.5362 110.929 105.772 148.285 105.802 148.948L111.169 155.581L113.852 147.652Z" fill="#FB4505"/>
<path d="M150.274 78.5776L149.611 75.5023C148.555 75.3515 147.47 75.2912 146.384 75.2309C145.299 75.2008 144.214 75.2008 143.158 75.2912L142.284 78.3062C141.289 81.7434 136.917 82.7685 134.535 80.1153L132.425 77.7635C130.435 78.5776 128.536 79.6027 126.727 80.8087L127.48 83.8539C128.355 87.3211 125.068 90.3965 121.661 89.3111L118.676 88.3463C117.35 90.0648 116.204 91.904 115.269 93.8336L117.47 96.0949C119.943 98.6576 118.646 102.969 115.149 103.723L112.074 104.386C111.923 105.441 111.863 106.527 111.802 107.612C111.772 108.698 111.772 109.783 111.863 110.838L114.878 111.713C118.315 112.708 119.34 117.079 116.687 119.461L114.335 121.572C115.149 123.562 116.174 125.461 117.38 127.27L120.425 126.516C123.892 125.642 126.968 128.928 125.882 132.335L124.918 135.32C126.636 136.647 128.475 137.793 130.405 138.727L132.666 136.526C135.229 134.054 139.54 135.35 140.294 138.848L140.957 141.923C142.013 142.074 143.098 142.134 144.184 142.194C145.269 142.225 146.354 142.225 147.41 142.134L148.284 139.119C149.279 135.682 153.651 134.657 156.033 137.31L158.143 139.662C160.133 138.848 162.032 137.823 163.841 136.617L163.088 133.572C162.213 130.104 165.5 127.029 168.907 128.114L171.892 129.079C173.218 127.361 174.364 125.521 175.299 123.592L173.098 121.331C170.625 118.768 171.922 114.456 175.419 113.703L178.494 113.039C178.645 111.984 178.705 110.899 178.766 109.813C178.796 108.728 178.796 107.642 178.705 106.587L175.69 105.713C172.253 104.718 171.228 100.346 173.881 97.9642L176.233 95.8536C175.419 93.8637 174.394 91.9643 173.188 90.1553L170.143 90.909C166.676 91.7834 163.6 88.497 164.686 85.09L165.65 82.1052C163.932 80.7786 162.093 79.6328 160.163 78.6982L157.902 80.8992C155.339 83.4016 151.028 82.075 150.274 78.5776ZM158.987 109.18C158.746 116.748 152.415 122.687 144.847 122.446C137.279 122.205 131.34 115.873 131.581 108.306C131.822 100.738 138.153 94.7984 145.721 95.0396C153.319 95.2808 159.228 101.612 158.987 109.18Z" fill="#96CDFF"/>
<g opacity="0.29">
<path opacity="0.29" d="M145.299 123.772C137.008 123.772 130.254 117.019 130.254 108.728C130.254 100.436 137.008 93.6826 145.299 93.6826C153.59 93.6826 160.344 100.436 160.344 108.728C160.344 117.019 153.59 123.772 145.299 123.772ZM145.299 96.6373C138.636 96.6373 133.239 102.064 133.239 108.697C133.239 115.361 138.666 120.757 145.299 120.757C151.962 120.757 157.359 115.33 157.359 108.697C157.359 102.064 151.962 96.6373 145.299 96.6373Z" fill="#394860"/>
</g>
<path d="M123.651 117.14L124.586 122.205L117.712 126.004L115.058 118.858L117.38 116.235L123.651 117.14Z" fill="#D2C3A8"/>
<path d="M88.8579 103.904L79.0893 108.728L70.9487 135.169L81.9234 138.848L119.491 125.009L116.053 117.652L87.9233 123.109L88.8579 103.904Z" fill="white"/>
<path d="M334.763 100.044L332.532 98.145L329.637 99.0797L327.979 101.522L328.733 103.602L331.084 104.959L330.18 105.2L330.331 105.924L334.039 107.612C334.944 106.678 337.928 105.954 338.411 105.472L335.939 103.331L334.763 100.044Z" fill="#D2C3A8"/>
<path d="M406.008 269.248L406.068 270.031L406.339 272.685L401.063 275.941L397.988 273.559L400.52 270.604L400.731 270.454L400.852 270.785L406.008 269.248Z" fill="black"/>
<path d="M383.938 211.962C389.938 212.354 395.516 212.505 399.887 212.565L399.737 233.097L406.279 269.157L406.008 269.247L400.882 270.785L400.762 270.483L383.546 227.972L382.943 219.319L383.938 211.962Z" fill="#C7EEFF"/>
<path d="M382.611 214.856L382.913 219.319L381.375 230.595L379.626 271.267H379.596L379.566 270.664L374.32 270.815L366.059 227.64L365.606 210.002C371.275 210.907 377.244 211.51 382.852 211.902L382.611 214.856Z" fill="#C7EEFF"/>
<path d="M382.882 211.872C383.244 211.902 383.576 211.932 383.938 211.932L382.943 219.289L382.641 214.826L382.882 211.872Z" fill="#8BA092"/>
<path d="M373.988 270.815H374.35L379.596 270.634L379.626 271.237L379.687 273.318L374.199 276.152L371.305 273.559L373.988 270.815Z" fill="black"/>
<path d="M393.465 116.265C393.646 115.813 393.827 115.331 394.008 114.848L393.978 114.818C391.535 112.949 390.39 109.723 390.541 106.647C390.631 104.657 391.174 102.728 391.988 100.889C392.591 99.8334 393.345 98.8686 394.219 98.0546C395.787 96.5471 397.927 95.3712 400.038 95.4315C400.882 95.4617 400.52 96.125 401.545 95.6124C401.696 95.5521 401.847 95.4014 401.998 95.2205C402.148 95.3712 402.239 95.4918 402.269 95.522C403.264 96.5471 404.349 97.0295 405.525 97.7832C407.334 98.8988 408.299 101.311 407.847 103.572C407.666 104.507 407.274 105.472 407.515 106.376C407.726 107.16 408.329 107.703 408.751 108.366C408.992 108.758 409.143 109.21 409.203 109.693C407.244 113.25 403.505 116.145 399.676 116.476V116.506C399.616 116.748 399.586 116.959 399.495 117.17C399.224 118.165 398.53 119.19 397.505 119.28C397.023 119.31 396.571 119.13 396.148 118.949C395.274 118.587 394.4 118.225 393.525 117.893C393.344 117.833 393.133 117.743 393.073 117.562C393.013 117.411 393.073 117.23 393.133 117.079C393.254 116.778 393.345 116.537 393.465 116.265Z" fill="#D2C3A8"/>
<path d="M374.531 91.3913C376.611 91.2707 378.45 92.4767 380.139 93.6526C380.44 91.6023 382.4 90.2154 384.299 89.6426C386.199 89.0999 388.159 89.0999 390.028 88.3763C392.259 87.5019 394.43 85.6025 396.631 86.2055C398.621 86.7783 399.857 89.1903 401.093 91.3008C401.123 91.2707 401.153 91.2405 401.184 91.2104C402.118 90.2154 403.173 89.2808 404.379 88.7682C408.329 87.1401 407.877 92.0546 410.922 91.8134C411.646 91.7531 412.279 91.1802 412.972 90.8787C414.269 90.3059 415.746 90.7581 416.892 91.4817C418.068 92.2053 419.093 93.14 420.359 93.6827C421.475 94.1651 422.741 94.2857 423.766 94.8887C425.334 95.8234 425.002 97.5118 425.274 99.0796C425.575 100.798 426.057 103.09 426.992 104.507C427.655 105.532 428.681 106.195 429.555 107.039C430.429 107.883 431.153 109.029 430.972 110.326C430.791 111.532 429.826 112.527 429.555 113.733C429.163 115.511 429.374 116.476 428.56 118.255C428.138 119.16 427.686 120.155 426.902 120.697C425.846 121.421 424.49 121.24 423.344 120.878C422.168 120.516 420.992 120.034 419.786 120.275C417.133 120.788 417.284 123.411 416.349 125.461C415.716 126.818 414.57 127.873 413.274 128.476C411.616 129.26 409.656 129.32 408.088 128.446C405.766 127.149 404.681 124.104 405.163 121.33C405.344 120.305 405.766 119.371 406.068 118.406C406.189 118.044 406.279 117.682 406.339 117.29C406.55 115.934 406.038 113.974 407.395 113.039C407.726 112.828 408.118 112.738 408.45 112.466C408.691 112.255 408.872 111.954 408.992 111.622C409.234 110.989 409.294 110.295 409.204 109.662C409.143 109.18 408.992 108.728 408.751 108.336C408.359 107.642 407.726 107.13 407.515 106.346C407.304 105.441 407.696 104.476 407.847 103.542C408.269 101.281 407.304 98.8685 405.525 97.753C404.349 96.9992 403.264 96.5168 402.269 95.4917C402.239 95.4616 402.148 95.341 401.998 95.1902C401.847 95.3711 401.666 95.5219 401.545 95.5822C400.52 96.0947 400.882 95.4314 400.038 95.4013C397.958 95.341 395.817 96.5168 394.219 98.0243C393.345 98.8384 392.591 99.8032 391.988 100.858C390.902 102.728 390.239 104.899 390.179 107.039C390.088 110.115 391.686 111.471 390.209 114.547C389.877 115.24 389.485 115.873 389.033 116.476C387.767 118.135 386.078 119.401 384.179 120.004C383.968 120.004 383.757 120.004 383.546 119.974C382.49 119.883 381.465 119.582 380.501 119.099C379.566 118.617 378.692 117.984 377.968 117.17C376.883 115.994 376.068 114.486 375.737 112.858C375.556 111.954 375.466 110.959 374.862 110.295C374.38 109.783 373.656 109.572 373.174 109.059C371.154 106.919 375.013 103.059 374.139 100.135C373.596 98.2957 371.305 97.5721 370.822 95.7028C370.28 93.6827 372.45 91.5119 374.531 91.3913Z" fill="#3E3D3B"/>
<path d="M330.753 106.467C330.903 106.436 337.928 117.713 342.813 123.2C347.275 128.235 360.963 135.803 366.059 140.174C364.43 145.843 362.772 152.265 361.566 157.963C353.908 194.294 359.245 208.766 359.245 208.766C361.325 209.218 363.466 209.61 365.667 209.942C371.335 210.847 377.305 211.45 382.912 211.841C383.274 211.872 383.606 211.902 383.968 211.902C389.968 212.294 395.545 212.444 399.917 212.505C405.585 212.565 409.264 212.475 409.264 212.475L421.987 140.566L413.304 128.416C411.646 129.2 409.686 129.26 408.118 128.386C405.796 127.089 404.711 124.044 405.193 121.27C405.374 120.245 405.796 119.311 406.098 118.346L404.892 116.657L399.706 116.446C399.646 116.687 399.616 116.899 399.525 117.11C399.254 118.105 398.56 119.13 397.535 119.22C397.053 119.25 396.601 119.069 396.179 118.888C395.304 118.527 394.43 118.165 393.556 117.833C393.375 117.773 393.164 117.682 393.103 117.502C393.043 117.351 393.103 117.17 393.164 117.019C393.254 116.748 393.375 116.476 393.465 116.235L390.721 116.115C390.329 116.205 389.757 116.326 389.033 116.507C387.767 118.165 386.078 119.431 384.179 120.034C383.968 120.034 383.757 120.034 383.546 120.004C382.49 119.914 381.465 119.612 380.5 119.13C379.566 118.647 378.691 118.014 377.968 117.2C372.028 117.441 362.441 121.18 357.345 118.135C355.687 117.14 338.26 104.326 338.682 104.266C338.682 104.266 331.627 106.256 330.934 106.376C330.813 106.467 330.753 106.467 330.753 106.467Z" fill="white"/>
<path d="M357.104 166.586L355.596 164.264C354.692 164.475 353.787 164.747 352.883 165.048C351.978 165.35 351.104 165.712 350.26 166.104L350.501 168.847C350.772 171.983 347.516 174.184 344.712 172.767L342.24 171.5C340.883 172.797 339.647 174.214 338.531 175.782L340.099 178.043C341.908 180.606 340.16 184.163 337.054 184.314L334.31 184.465C333.768 186.274 333.406 188.143 333.225 190.013L335.728 191.188C338.562 192.515 338.833 196.435 336.21 198.153L333.888 199.661C334.099 200.565 334.371 201.47 334.672 202.374C334.974 203.279 335.336 204.153 335.728 204.997L338.471 204.756C341.607 204.485 343.808 207.741 342.391 210.545L341.124 213.017C342.421 214.374 343.838 215.61 345.406 216.726L347.667 215.158C350.23 213.349 353.787 215.098 353.938 218.203L354.089 220.947C355.898 221.489 357.767 221.851 359.637 222.032L360.812 219.53C362.139 216.696 366.059 216.424 367.777 219.047L369.285 221.369C370.189 221.158 371.094 220.886 371.998 220.585C372.903 220.283 373.777 219.922 374.621 219.53L374.38 216.786C374.109 213.65 377.365 211.449 380.169 212.866L382.641 214.133C383.998 212.836 385.234 211.419 386.35 209.851L384.782 207.59C382.973 205.027 384.722 201.47 387.827 201.319L390.571 201.168C391.113 199.359 391.475 197.49 391.656 195.621L389.154 194.445C386.32 193.118 386.048 189.199 388.671 187.48L390.993 185.973C390.782 185.068 390.51 184.163 390.209 183.259C389.907 182.354 389.546 181.48 389.154 180.636L386.41 180.877C383.274 181.148 381.073 177.892 382.49 175.088L383.757 172.616C382.46 171.259 381.043 170.023 379.475 168.907L377.214 170.475C374.651 172.284 371.094 170.536 370.943 167.43L370.792 164.686C368.983 164.144 367.114 163.782 365.245 163.601L364.069 166.104C362.742 168.938 358.823 169.209 357.104 166.586ZM373.837 188.927C376.008 195.198 372.661 202.043 366.39 204.213C360.119 206.384 353.275 203.038 351.104 196.766C348.933 190.495 352.28 183.651 358.551 181.48C364.822 179.309 371.667 182.626 373.837 188.927Z" fill="#485970"/>
<path d="M388.279 171.953L388.4 175.148L382.732 177.229L379.475 174.757V171.018L382.611 170.837L382.732 170.023L383.757 169.36L388.279 171.953Z" fill="#D2C3A8"/>
<path d="M354.481 143.732C354.722 142.074 354.903 140.386 354.963 138.697C355.024 137.039 354.994 135.411 354.843 133.783L346.431 131.793L344.109 123.562L350.23 117.441C348.692 114.456 346.853 111.683 344.682 109.18L336.723 112.527L329.969 107.25L331.326 98.6878C328.492 97.2406 325.446 96.1251 322.25 95.3412L317.728 102.728L309.165 102.336L305.276 94.5874C301.929 95.1 298.733 96.0045 295.688 97.2708L296.382 105.894L289.236 110.627L281.548 106.678C279.196 109.029 277.116 111.622 275.367 114.487L280.975 121.059L277.99 129.079L269.457 130.406C269.186 132.094 269.005 133.813 268.945 135.592C268.885 137.19 268.945 138.788 269.035 140.355L277.447 142.375L279.769 150.637L273.618 156.727C275.156 159.712 276.995 162.516 279.166 165.048L287.156 161.732L293.879 167.038L292.492 175.571C295.417 177.048 298.552 178.224 301.839 179.038L306.331 171.651L314.894 171.983L318.783 179.701C322.13 179.159 325.326 178.254 328.371 176.988L327.677 168.365L334.793 163.601L342.481 167.551C344.833 165.199 346.913 162.576 348.662 159.742L343.024 153.199L345.979 145.149L354.481 143.732ZM310.462 158.385C298.733 157.601 289.899 147.441 290.683 135.742C291.467 124.044 301.628 115.18 313.326 115.964C325.054 116.748 333.888 126.908 333.105 138.607C332.321 150.305 322.19 159.169 310.462 158.385Z" fill="#7797CD"/>
<path d="M45.0498 266.112L39.2911 260.805C37.6328 259.961 35.854 259.358 34.4068 259.388C33.3817 259.388 32.5073 259.75 31.9947 260.534C31.4822 261.288 31.3917 262.282 31.7234 263.097C31.844 263.398 32.0249 263.669 32.2359 263.911C32.4168 264.122 32.5977 264.333 32.7786 264.544C32.8992 264.664 33.0199 264.815 33.1706 264.966C34.3766 266.262 36.3665 268.373 37.1504 268.825C38.3263 269.519 40.8589 271.388 43.9041 269.277L43.8739 269.247C44.9593 268.493 45.2608 267.257 45.0498 266.112Z" fill="black"/>
<path d="M40.5273 219.801L40.075 226.464L37.7836 258.966L40.075 262.735C40.075 262.735 40.5273 265.75 37.06 265.539C36.0349 265.479 32.3566 260.805 32.3566 260.805L32.8993 258.665L30.3063 234.273L30.3365 227.188L29.1003 219.319L40.5273 219.801Z" fill="#D2C3A8"/>
<path d="M4.01534 257.85C2.92993 257.519 1.93498 257.579 1.15107 258.212C0.397317 258.815 -0.054936 259.81 0.00536438 260.745C0.0656647 261.378 0.337016 261.981 0.608368 262.554C1.99528 265.569 5.88465 272.383 10.377 271.147C12.2463 270.634 12.9699 268.704 12.578 267.016C12.0051 264.453 7.60321 258.996 4.01534 257.85Z" fill="black"/>
<path d="M26.5677 215.912L25.7838 225.53L6.93996 259.479C6.93996 259.479 9.65347 264.212 7.93491 264.634C6.21635 265.057 1.18127 263.609 1.15112 258.273C3.14103 251.79 10.9198 229.781 10.9198 229.781L14.568 224.113L14.5077 213.439L26.5677 215.912Z" fill="#D2C3A8"/>
<path d="M5.25153 183.741C5.10078 180.907 6.00529 173.52 6.93994 170.867C10.3469 161.219 10.9801 156.455 10.9801 148.586C10.9801 140.717 7.48265 115.813 7.48265 115.813L21.5025 108.607L34.1354 108.939L42.5172 112.858C42.5172 112.858 43.9041 142.948 44.3865 153.048C44.7181 160.254 45.2307 166.495 45.894 174.877C45.894 174.877 47.7331 193.932 44.899 214.374C44.899 214.374 44.2659 221.158 43.9644 221.761C43.9342 221.972 43.9041 222.062 43.9041 222.062H43.7835H11.4926V210.424C10.4072 206.685 9.38211 202.947 8.4173 199.178C7.18114 194.354 5.52288 188.987 5.25153 183.741Z" fill="#192657"/>
<path d="M12.0955 110.718L6.57805 114.878C6.57805 114.878 10.7689 143.581 11.0101 148.586C11.2212 153.591 4.76904 173.611 4.76904 173.611L31.5123 177.108C31.5123 177.108 35.4318 155.732 36.5775 145.119C37.7232 134.506 21.5325 108.577 21.5325 108.577L12.0955 110.718Z" fill="#C7EEFF"/>
<path d="M38.8991 110.205L43.7533 113.009C43.7533 113.009 43.6025 144.727 44.9894 152.807C45.8336 157.752 49.1502 173.762 49.1502 173.762L40.5272 176.716C40.5272 176.716 35.2208 156.697 34.1655 146.084C33.1103 135.471 34.256 109.059 34.256 109.059L38.8991 110.205Z" fill="#C7EEFF"/>
<path d="M38.6881 96.4865C38.5373 88.0445 27.3516 87.5922 22.9798 93.6524C20.1457 97.6021 21.7437 104.446 25.9949 107.22C25.9647 107.401 25.9346 107.582 25.8743 107.702C25.6331 108.396 25.5124 109.15 25.3617 109.873C25.3014 110.145 29.643 110.687 30.1556 110.748C30.3365 110.778 30.5174 110.778 30.638 110.687C30.8792 110.476 30.849 109.662 30.9395 109.391C30.9998 109.059 31.0902 108.697 31.1505 108.366C33.8339 108.004 36.0349 106.135 37.2409 103.903C38.4469 101.642 38.7484 99.0191 38.6881 96.4865Z" fill="#D2C3A8"/>
<path d="M37.844 98.5069C38.5374 101.251 36.9395 103.964 35.4923 106.255C34.9194 107.19 34.0149 108.517 34.7687 109.602C35.6129 110.808 37.6932 110.567 38.5977 109.662C39.2309 109.029 39.5626 108.155 39.8339 107.311C41.0701 103.542 42.7886 98.2355 42.457 94.2859C42.1856 91.0899 38.2962 85.4518 34.2561 87.4719C33.5325 87.8337 33.0501 88.5272 32.6582 89.2206C32.417 89.6126 32.1758 90.0648 32.1456 90.5171C31.9647 92.3562 33.7436 92.8386 34.8893 93.8336C36.3666 95.0396 37.3917 96.7582 37.844 98.5069Z" fill="#77634C"/>
<path d="M23.4924 97.6325C23.4019 98.6576 22.8894 99.743 22.7386 100.798C22.4673 102.728 22.9195 105.23 22.1959 107.009C20.2361 106.738 17.8543 105.502 16.4071 104.175C14.9297 102.788 15.2011 100.768 14.8694 98.7179C14.5679 96.8485 14.176 94.9491 14.2664 93.0798C14.8393 82.7081 25.2109 77.0399 34.3464 81.7132C37.7836 83.492 39.3212 87.9844 36.7584 90.9391C34.0148 94.135 28.4671 92.7481 25.2109 95.0998C24.4572 95.6124 23.9145 96.5471 23.4924 97.6325Z" fill="#77634C"/>
<path d="M42.0348 111.984L47.2809 115.15L54.6677 139.119L73.8432 141.531L69.1398 147.079L46.497 149.43L38.7183 125.702L42.0348 111.984Z" fill="#AEE1F7"/>
<path d="M114.908 161.43L118.465 159.591C118.104 156.908 117.47 154.224 116.596 151.632L112.616 151.571C108.094 151.511 105.41 146.476 107.853 142.677L110.023 139.33C108.365 137.159 106.496 135.139 104.446 133.361L100.948 135.32C96.9985 137.521 92.1443 134.506 92.3554 129.984L92.5664 126.004C91.3001 125.491 90.0338 125.039 88.7072 124.617C87.3806 124.225 86.054 123.893 84.7274 123.622L82.6772 127.029C80.3556 130.918 74.6572 130.738 72.5769 126.697L70.7377 123.14C68.0543 123.501 65.371 124.135 62.7781 125.009L62.7178 128.989C62.6575 133.511 57.6224 136.195 53.8235 133.753L50.4768 131.582C48.306 133.24 46.2859 135.109 44.507 137.159L46.4668 140.657C48.6678 144.607 45.6528 149.461 41.1302 149.25L37.1504 149.039C36.6378 150.305 36.1856 151.571 35.7635 152.898C35.3715 154.224 35.0399 155.551 34.7685 156.878L38.1755 158.928C42.0649 161.249 41.884 166.948 37.8439 169.028L34.2861 170.867C34.6479 173.551 35.2811 176.234 36.1554 178.827L40.1353 178.887C44.6578 178.948 47.3412 183.983 44.899 187.782L42.7282 191.128C44.3864 193.299 46.2558 195.319 48.306 197.098L51.8034 195.138C55.7531 192.937 60.6072 195.952 60.3962 200.475L60.1851 204.455C61.4515 204.967 62.7178 205.419 64.0444 205.842C65.371 206.234 66.6976 206.565 68.0242 206.837L70.0744 203.43C72.396 199.54 78.0943 199.721 80.1747 203.761L82.0139 207.319C84.6972 206.957 87.3806 206.324 89.9735 205.45L90.0338 201.47C90.0941 196.947 95.1292 194.264 98.9281 196.706L102.275 198.877C104.446 197.219 106.466 195.349 108.245 193.299L106.285 189.802C104.084 185.852 107.099 180.998 111.621 181.209L115.601 181.42C116.114 180.154 116.566 178.887 116.988 177.561C117.38 176.234 117.712 174.908 117.983 173.581L114.576 171.531C110.717 169.209 110.898 163.511 114.908 161.43ZM76.3758 185.973C64.9187 185.973 55.6325 176.686 55.6325 165.229C55.6325 153.772 64.9187 144.486 76.3758 144.486C87.8329 144.486 97.1191 153.772 97.1191 165.229C97.1191 176.686 87.8329 185.973 76.3758 185.973Z" fill="#648BBA"/>
<path d="M76.3759 140.416C62.6575 140.416 51.5623 151.511 51.5623 165.229C51.5623 178.947 62.6575 190.043 76.3759 190.043C90.0942 190.043 101.189 178.947 101.189 165.229C101.189 151.511 90.064 140.416 76.3759 140.416ZM76.3759 185.249C65.3107 185.249 56.3561 176.294 56.3561 165.229C56.3561 154.164 65.3107 145.209 76.3759 145.209C87.441 145.209 96.3956 154.164 96.3956 165.229C96.3956 176.294 87.441 185.249 76.3759 185.249Z" fill="#4A658D"/>
<path d="M66.2454 151.239L60.9088 148.224L64.1952 143.008L68.4765 142.918L70.9488 145.692L66.2454 151.239Z" fill="#D2C3A8"/>
<path d="M6.54793 114.818L11.4021 118.587L17.4321 154.616L34.5273 166.736L32.055 173.279L9.11069 162.425L2.29675 140.385L6.54793 114.818Z" fill="#AEE1F7"/>
<path d="M34.4972 173.279L30.6982 172.254L33.4419 166.737L38.1755 166.194L40.6478 169.42L34.4972 173.279Z" fill="#D2C3A8"/>
</svg>
