<svg width="132" height="141" viewBox="0 0 132 141" fill="none" xmlns="http://www.w3.org/2000/svg">
<path d="M72.4 140.113L3.39996 128.713V24.0127L72.4 30.9127V140.113Z" fill="#A6DCEA"/>
<path d="M72.2 140.113L128.3 129.813V24.0127L72.2 30.9127V140.113Z" fill="#39459D"/>
<path d="M128.3 25.2125L71.2998 31.6125L3.39984 25.1125V46.9125L71.2998 53.4125L128.3 46.9125V25.2125Z" fill="#F6F6F7"/>
<path d="M71.2999 50.0125L-6.10352e-05 43.1125V21.3125L71.2999 28.2125V50.0125Z" fill="#C7EEFF"/>
<path d="M71.3 50.0125L131.8 43.1125V21.3125L71.3 28.2125V50.0125Z" fill="#39459D"/>
<path d="M-6.10352e-05 21.3125L58.1999 17.1125L131.8 21.3125L71.2999 28.2125L-6.10352e-05 21.3125Z" fill="#E5F5F9"/>
<path d="M107.3 134.113L94.4999 136.513V25.6127L107.3 24.0127V134.113Z" fill="#FCC969"/>
<path d="M31.1998 133.412L43.8998 135.613V25.6125L31.1998 24.3125V133.412Z" fill="#FCC969"/>
<path d="M77.1998 18.2126L96.3998 19.2126L43.8998 25.6126L31.1998 24.3126L77.1998 18.2126Z" fill="#FCC969"/>
<path d="M37.3999 18.6128L21.2999 19.7128L94.2999 25.6128L107.3 24.0128L37.3999 18.6128Z" fill="#FCC969"/>
<path d="M96.3 6.01265C95.3 3.61265 93 3.11265 93 3.11265C93 3.11265 91 3.01265 88.5 3.21265C89.2 5.41265 89.2 11.8126 82 14.9126C78.7 16.3126 74.4 17.3126 70.6 17.9126C69.7 19.1126 69.2 19.9126 69.2 19.9126L69.7 22.1126C69.7 22.1126 82.5 21.2126 89.8 18.0126C97.2 14.8126 97 7.91265 96.3 6.01265Z" fill="#E9AE40"/>
<path d="M64.7 20.4126C64.7 20.4126 71 14.1126 75.9 5.6126C82.3 -4.4874 91.8 1.6126 95 4.2126C93.2 2.8126 87.5 2.9126 85 7.3126C82.5 11.6126 79.8 18.8126 70.6 22.5126C65.5 22.5126 64.7 20.4126 64.7 20.4126Z" fill="#FFD688"/>
<path d="M56.4 17.9127C57.7 19.6127 59 20.8127 60.1 21.7127C65.3 22.6127 70.2 22.6127 73.8 20.7127C73.8 20.7127 69.3 21.5127 64 14.7127C58.7 7.81272 54.1 2.21272 48.3 2.71272C46.3 2.91272 44.8 4.31272 43.9 6.31272C48.3 7.61272 52.1 12.4127 56.4 17.9127Z" fill="#E9AE40"/>
<path d="M48.7999 18.4127C40.0999 14.9127 42.4999 3.21267 48.2999 2.81267C49.3999 2.71267 50.3999 2.81267 51.3999 3.11267C51.3999 3.11267 42.9999 0.412671 37.1999 1.91267C31.3999 3.41267 29.3999 12.3127 35.8999 17.6127C41.9999 22.6127 60.1999 23.9127 67.4999 22.4127C61.7999 22.6127 54.8999 20.8127 48.7999 18.4127Z" fill="#FFD688"/>
<path d="M64.2999 15.1126C64.2999 15.1126 67.7999 19.2126 65.8999 22.6126C70.8999 23.7126 75.3999 21.9126 76.0999 21.4126C76.7999 20.8126 75.3999 13.7126 70.6999 13.4126C67.9999 15.2126 66.6999 15.3126 64.2999 15.1126Z" fill="#FEC355"/>
</svg>
