<svg width="110" height="110" viewBox="0 0 110 110" fill="none" xmlns="http://www.w3.org/2000/svg">
<mask id="mask0" mask-type="alpha" maskUnits="userSpaceOnUse" x="0" y="0" width="110" height="110">
<circle cx="55" cy="55" r="55" fill="white"/>
</mask>
<g mask="url(#mask0)">
<path fill-rule="evenodd" clip-rule="evenodd" d="M59.9487 43.1624C62.8956 39.7033 64.8901 35.4641 64.5568 30.714C63.5965 17.0277 44.5447 20.0385 40.8387 26.9462C37.1327 33.8539 37.5731 51.3758 42.3627 52.6104C44.2728 53.1028 48.3419 51.8967 52.4833 49.4005L49.8838 67.7908H65.2327L59.9487 43.1624Z" fill="#D2C3A8"/>
<path fill-rule="evenodd" clip-rule="evenodd" d="M61.128 46.2432C63.0545 37.6728 68.5426 31.8306 67.7044 27.9999C67.1456 25.4462 65.6563 23.8581 63.2365 23.2357C61.985 18.1727 57.9486 16.0193 51.1273 16.7753C40.8954 17.9093 34.6505 22.1585 37.3474 31.5086C39.8264 31.5086 42.8192 30.612 46.9576 32.1481C48.2707 32.6355 49.2099 34.1469 49.7751 36.6825H51.6452C53.4603 33.6735 55.2499 32.5678 57.0141 33.3653C58.7784 34.1629 59.1794 36.1001 58.2173 39.177L59.1385 46.2432H61.128Z" fill="#191847"/>
<path fill-rule="evenodd" clip-rule="evenodd" d="M56.4739 57.131L50.9438 56.1824C30.4254 73.9074 21.9977 107.959 -3.15281 125.998L2.90071 133.501C46.5323 128.099 57.3467 86.5641 56.4739 57.131Z" fill="#E87613"/>
<path fill-rule="evenodd" clip-rule="evenodd" d="M80.5812 126.628C58.4074 126.628 42.0968 126.628 31.6494 126.628C29.4135 126.628 29.8348 123.399 30.158 121.77C33.8884 102.967 48.4501 82.699 48.4501 55.934L62.5643 53.7207C74.2386 72.4964 78.2758 95.6131 80.5812 126.628Z" fill="#DDE3E9"/>
<path fill-rule="evenodd" clip-rule="evenodd" d="M80.188 72.1766C82.2379 71.5874 83.8612 70.2131 85.0579 68.0537C90.2167 58.7452 88.3536 53.6202 82.8405 51.9356C77.3274 50.2509 72.4109 53.721 63.6271 53.721C63.1493 53.721 62.7117 53.7509 62.3144 53.8108L57.8959 54.063C45.2188 97.0272 41.7225 125.692 47.407 140.058H85.9201C88.202 145.379 90.3855 149.856 92.4708 153.488H102.965C103.953 121.555 96.3602 94.4507 80.188 72.1766Z" fill="#FF9B21"/>
</g>
</svg>
