<svg width="110" height="110" viewBox="0 0 110 110" fill="none" xmlns="http://www.w3.org/2000/svg">
<mask id="mask0" mask-type="alpha" maskUnits="userSpaceOnUse" x="0" y="0" width="110" height="110">
<circle cx="55" cy="55" r="55" fill="white"/>
</mask>
<g mask="url(#mask0)">
<path fill-rule="evenodd" clip-rule="evenodd" d="M62.5066 52.7554C65.4536 49.2963 67.4481 45.0572 67.1148 40.3071C66.1545 26.6207 47.1026 29.6315 43.3967 36.5392C39.6907 43.4469 40.131 60.9689 44.9207 62.2035C46.8308 62.6958 50.8999 61.4897 55.0413 58.9935L52.4418 77.3838H67.7906L62.5066 52.7554Z" fill="#D2C3A8"/>
<path fill-rule="evenodd" clip-rule="evenodd" d="M73.8064 35.7513C74.3022 35.26 74.5726 34.5588 74.8065 33.893C75.0495 33.2013 75.2855 32.5025 75.4468 31.7826C75.7691 30.3441 75.7721 28.6898 74.746 27.5729C73.923 26.6772 72.6881 26.2754 71.5485 26.1881C70.7892 26.1299 70.0093 26.2362 69.2815 26.4755C68.5594 26.7129 67.9369 27.186 67.2368 27.4796C67.2101 25.9295 66.9445 24.3075 66.1581 22.9839C65.4014 21.7104 64.1948 20.9957 62.8208 20.8066C61.4104 20.6126 60.0178 20.9426 58.7552 21.6254C58.4391 21.7964 58.1259 21.9755 57.8263 22.1783C57.5753 22.3481 57.3144 22.5525 57.02 22.6216C56.6918 22.6986 56.5291 22.5091 56.3157 22.2696C56.0656 21.9888 55.7838 21.7415 55.4856 21.5223C54.1671 20.5531 52.4371 20.1546 50.9095 20.7356C50.2057 21.0032 49.5212 21.4578 49.0437 22.0842C48.6181 22.6425 48.3145 23.5282 47.727 23.9172C47.4777 24.0824 47.3016 23.8636 47.0747 23.7019C46.7337 23.4589 46.4086 23.1908 46.0635 22.9545C45.5788 22.6224 45.054 22.374 44.4921 22.244C43.6694 22.0537 42.5325 22.0983 42.2973 23.1758C42.209 23.5805 42.2767 24.0134 42.3052 24.4212C42.3444 24.9811 42.3852 25.5409 42.4338 26.1C42.4707 26.5245 42.5174 26.9345 42.5975 27.3514C42.6403 27.5737 42.774 27.9879 42.6787 28.2105C42.5596 28.4886 42.01 28.3305 41.7752 28.3402C41.3114 28.3593 40.8457 28.4406 40.4168 28.6388C40.0845 28.7924 39.7351 29.0183 39.5948 29.3993C39.5086 29.6333 39.5313 29.8736 39.572 30.1144C39.6209 30.4033 39.565 30.5565 39.5285 30.848C38.9056 30.5413 36.7471 29.8598 36.4755 30.9761C36.3851 31.3479 36.591 31.7679 36.7481 32.0813C37.0236 32.6312 37.3849 33.1337 37.7542 33.613C38.5245 34.6128 39.4442 35.4751 40.4337 36.2126C39.2744 36.728 38.9718 38.2482 39.9755 39.154C40.4187 39.5539 41.0146 39.6429 41.5736 39.6173C41.7783 39.608 42.0732 39.5293 42.2342 39.565C42.3209 39.5841 42.4136 39.6576 42.5337 39.6658C43.3226 39.7198 44.2132 39.5297 44.9845 39.3546C46.3587 39.0427 47.6597 38.3916 48.7222 37.4C48.9947 37.1457 49.2199 36.9992 49.5867 37.003C49.9081 37.0062 50.2235 37.0944 50.5447 37.1025C51.3945 37.1242 52.1606 36.7088 52.9497 36.4323C52.998 37.4983 53.3016 38.6723 53.7377 39.6313C54.0933 40.4134 54.8358 40.527 55.5655 40.5956C57.8989 40.8152 60.2405 40.5702 62.5768 40.5734C60.3152 41.0846 57.9782 41.2953 55.7366 41.8969C54.7234 42.1687 55.4971 42.8516 55.9304 43.325C56.6437 44.1046 57.1742 45.0705 57.5421 46.088C58.6484 44.6459 60.6039 43.6957 62.3364 44.1387C64.2507 44.6281 65.5986 47.2168 64.3745 49.0779C63.6639 50.1583 62.3805 50.5754 61.3127 51.0395C62.1457 51.9056 62.3472 53.1848 62.8486 54.2623C63.0959 54.7937 63.443 55.3945 63.996 55.5797C64.2006 55.6482 64.4406 55.6541 64.602 55.8209C64.8019 56.0274 64.8496 56.2582 65.1049 56.4357C66.1239 57.1441 67.7155 57.0895 68.6186 56.1651C69.4354 55.329 69.2229 54.006 68.5408 53.1583C69.6266 52.7058 71.6047 52.1237 71.1732 50.4321C73.526 50.2758 79.2385 46.46 76.0807 43.6717C77.8137 42.6922 79.4059 40.2986 78.2927 38.1886C77.4355 36.5638 75.442 35.8375 73.8064 35.7513Z" fill="#191847"/>
<path fill-rule="evenodd" clip-rule="evenodd" d="M39.243 90.6224L17.0449 78.4645C13.3535 74.081 9.71639 70.6765 6.13366 68.2512C5.03889 67.7941 3.12443 67.5175 4.91482 70.6953C6.70521 73.873 8.44552 77.2961 7.53339 78.2751C6.62125 79.2541 4.34677 77.8865 3.25861 79.5131C2.53316 80.5975 6.41894 82.3106 14.9159 84.6523L31.0456 99.4207L39.243 90.6224ZM4.47662 100.88L-5.27407 95.5237C-6.64223 90.3177 -8.27769 87.6984 -10.1805 87.6658C-11.6422 86.9857 -9.09661 93.5639 -11.8676 92.9935C-14.6386 92.423 -21.4017 87.393 -22.567 88.4143C-24.2911 89.9252 -22.7538 94.5646 -20.9426 96.8724C-17.5574 101.186 -14.7546 102.661 -7.827 104.592C-4.20491 105.602 -0.288792 107.627 3.92136 110.665L4.47662 100.88Z" fill="#997659"/>
<path fill-rule="evenodd" clip-rule="evenodd" d="M50.0537 87.9141C42.2785 87.8319 31.9103 86.1898 20.8473 79.1674L16.5026 88.8563C24.1336 96.4294 34.8635 102.652 44.2455 102.388C51.6391 102.181 55.4178 93.2374 50.0537 87.9141Z" fill="#263392"/>
<path fill-rule="evenodd" clip-rule="evenodd" d="M39.5844 103.452C31.3301 105.511 17.488 103.083 -1.94167 96.1691C-6.76103 106.139 -8.98891 113.248 -8.62528 117.493C8.04254 126.2 22.3283 130.082 34.0979 130.338C33.7238 137.322 34.5739 143.967 37.4294 150.039C43.2998 162.521 77.6746 150.961 89.2324 153.236C96.4703 129.731 82.4757 120.178 82.4644 105.137C82.4521 88.6665 69.2268 63.314 67.2809 63.314L49.5359 63.314C48.5568 75.893 43.6287 89.7562 39.5844 103.452Z" fill="#39459D"/>
</g>
</svg>
