<svg width="110" height="110" viewBox="0 0 110 110" fill="none" xmlns="http://www.w3.org/2000/svg">
<mask id="mask0" mask-type="alpha" maskUnits="userSpaceOnUse" x="0" y="0" width="110" height="110">
<circle cx="55" cy="55" r="55" fill="white"/>
</mask>
<g mask="url(#mask0)">
<path fill-rule="evenodd" clip-rule="evenodd" d="M56.1113 52.7554C59.0582 49.2963 61.0527 45.0572 60.7194 40.3071C59.7591 26.6207 40.7073 29.6315 37.0013 36.5392C33.2953 43.4469 33.7357 60.9689 38.5253 62.2035C40.4354 62.6958 44.5045 61.4897 48.6459 58.9935L46.0464 77.3838H61.3953L56.1113 52.7554Z" fill="#D2C3A8"/>
<path fill-rule="evenodd" clip-rule="evenodd" d="M45.7498 28.5779C47.7727 28.2462 53.2195 28.0181 54.224 28.0183C54.8659 28.0183 55.5616 28.1649 55.9418 27.5755C56.2531 27.0928 56.1391 26.2765 56.232 25.7164C56.3399 25.0657 56.4931 24.4235 56.6481 23.7828C57.0892 21.9598 57.7563 20.2254 58.6896 18.5971C60.4408 15.5421 63.0063 13.1491 66.2451 11.7566C69.8216 10.2191 73.8688 9.86701 77.7159 10.1789C81.8328 10.5125 85.5596 11.8716 89.4466 13.1505C93.1508 14.3693 97.0305 14.849 100.905 14.2538C104.808 13.6543 107.757 11.5387 111.05 9.53071C114.42 7.47505 118.272 6.13057 122.256 6.43963C125.976 6.72823 129.404 8.26398 132.479 10.3155C135.357 12.235 137.731 14.5443 139.072 17.7946C140.514 21.2909 140.513 25.1286 138.141 28.2185C134.704 32.6974 128.323 33.8556 123.014 33.7404C119.943 33.674 116.927 33.1135 114.028 32.0938C110.162 30.7339 106.821 28.4289 103.204 26.5588C101.506 25.6812 99.7515 24.9605 97.9124 24.4413C96.1277 23.9373 94.3699 23.7061 92.754 24.7842C91.0446 25.9248 89.5128 27.0451 87.5573 27.7591C85.6813 28.4441 83.6942 28.8272 81.6954 28.8118C77.8066 28.7817 73.9732 27.5701 70.1963 26.7585C67.1163 26.0967 63.8208 25.4372 60.6808 26.0733C59.3705 26.3388 57.4567 26.8869 56.9834 28.2486C64.9485 29.6921 68.0767 39.5427 65.8313 46.774C64.6193 50.6769 57.3344 55.2395 54.5019 53.1876C52.7074 51.8877 53.7969 50.1812 54.5019 49.0546C55.8521 46.8972 56.314 44.1259 53.8157 42.6239C51.6606 41.3285 49.3947 44.4048 49.3519 44.4014C48.7596 44.3547 43.6415 41.4603 40.1153 37.2365C36.6367 37.4427 36.1089 35.149 36.9396 33.2732C37.7702 31.3974 42.9547 29.0366 45.7498 28.5779Z" fill="#191847"/>
<path fill-rule="evenodd" clip-rule="evenodd" d="M7.67437 112.953L-15.4989 102.776C-19.5583 98.7312 -23.4783 95.6567 -27.2587 93.5529C-28.3892 93.193 -30.3205 93.0843 -28.2599 96.0939C-26.1994 99.1035 -24.1674 102.362 -24.9907 103.417C-25.814 104.471 -28.1991 103.307 -29.1413 105.023C-29.7695 106.166 -25.7492 107.534 -17.0804 109.126L0.274979 122.433L7.67437 112.953ZM101.361 115.756L88.2558 118.357C101.435 142.918 108.503 155.936 109.46 157.409C111.611 160.725 109.604 166.802 108.862 170.002C113.515 171.085 111.68 164.083 117.567 165.545C122.941 166.879 127.498 170.304 132.509 165.685C133.125 165.117 133.576 163.342 131.476 162.432C126.242 160.164 118.511 155.917 117.257 154.268C115.548 152.019 110.249 139.182 101.361 115.756Z" fill="#B28B67"/>
<path fill-rule="evenodd" clip-rule="evenodd" d="M52.6369 66.7242L47.1068 65.7757C35.0616 77.4601 30.1462 105.531 22.119 109.247C14.5295 112.76 3.77095 109.361 -9.01732 104.77L-12.9337 113.521C-1.31428 126.091 23.4394 136.712 33.4732 130.649C49.515 120.955 53.2184 86.3334 52.6369 66.7242Z" fill="#E8B149"/>
<path fill-rule="evenodd" clip-rule="evenodd" d="M76.7441 136.221C54.5703 136.221 38.2598 136.221 27.8124 136.221C25.5765 136.221 25.9978 132.993 26.321 131.364C30.0513 112.561 44.6131 92.2928 44.6131 65.5277L58.7273 63.3145C70.4016 82.0902 74.4387 105.207 76.7441 136.221Z" fill="#DDE3E9"/>
<path fill-rule="evenodd" clip-rule="evenodd" d="M81.6247 117.185C91.5997 135.178 99.9843 148.132 106.778 156.047L117.035 154.038C110.428 113.064 91.2958 82.8231 59.6379 63.3145H59.4768L54.0494 63.3145C41.3786 106.507 37.8855 135.286 43.5701 149.652H87.6163C86.9195 139.14 84.6851 128.023 81.6247 117.185H81.6247Z" fill="#FCC969"/>
</g>
</svg>
