<svg width="110" height="110" viewBox="0 0 110 110" fill="none" xmlns="http://www.w3.org/2000/svg">
<mask id="mask0" mask-type="alpha" maskUnits="userSpaceOnUse" x="0" y="0" width="110" height="110">
<circle cx="55" cy="55" r="55" fill="white"/>
</mask>
<g mask="url(#mask0)">
<path fill-rule="evenodd" clip-rule="evenodd" d="M59.9483 52.1157C62.8952 48.6567 64.8897 44.4175 64.5565 39.6674C63.5962 25.9811 44.5443 28.9919 40.8383 35.8996C37.1323 42.8073 37.5727 60.3292 42.3623 61.5638C44.2724 62.0562 48.3415 60.8501 52.4829 58.3539L49.8835 76.7442H65.2323L59.9483 52.1157Z" fill="#D2C3A8"/>
<path fill-rule="evenodd" clip-rule="evenodd" d="M46.9011 28.376C48.9984 27.7364 52.043 27.5196 53.3237 27.6663C52.5952 25.9207 52.3061 23.976 52.5417 22.0824C52.7708 20.2424 53.593 18.6758 54.3534 17.0341C54.7039 16.2774 55.1011 15.5248 55.6933 14.946C56.2965 14.3563 57.0602 13.9671 57.861 13.7814C58.6804 13.5913 59.5373 13.6071 60.358 13.7796C60.7211 13.8559 61.0469 14.022 61.403 14.1142C61.7676 14.2088 61.9445 13.9806 62.2092 13.7512C62.847 13.1985 63.7821 12.9257 64.589 12.8281C65.4944 12.7186 66.4338 12.8551 67.2972 13.1528C68.1376 13.4425 68.945 13.913 69.5526 14.5984C69.8232 14.9035 70.0688 15.2507 70.2284 15.6341C70.2938 15.7915 70.3046 15.8847 70.4617 15.9423C70.6069 15.9957 70.7767 15.9972 70.9266 16.048C72.3756 16.5388 73.6146 17.6585 74.2892 19.096C74.6828 19.9347 74.8692 21.4113 74.8181 23.0664C74.7671 24.7214 73.2727 29.0399 71.8749 30.615C70.6273 32.021 68.7935 32.9488 67.0237 33.355C68.1984 34.6977 68.9804 36.3756 69.5586 38.082C70.1867 39.9356 70.5754 41.8616 70.719 43.824C70.8553 45.6885 70.868 47.6602 70.4309 49.4849C70.022 51.1913 69.1475 52.5911 67.6877 53.4792C67.019 53.886 66.2996 54.1916 65.576 54.4709C64.8628 54.7462 64.1476 55.0138 63.4005 55.1683C61.9868 55.4605 60.3578 55.4103 59.2687 54.285C58.8762 53.8793 58.4445 53.3695 58.1582 52.874C58.0552 52.6957 57.9931 52.5792 58.1182 52.405C58.2681 52.1963 58.5105 52.0365 58.703 51.8732C59.8008 50.9426 60.4803 49.7003 60.6517 48.2239C60.8255 46.7259 60.4231 44.7924 58.9666 44.1386C57.1688 43.3316 55.1889 44.2579 53.591 45.1214C52.9119 42.7246 51.5175 40.5665 49.3314 39.467C46.9128 38.2507 44.1375 38.1084 41.652 37.0648C41.0043 36.7928 40.3446 36.4841 39.8678 35.93C39.6685 35.6985 39.4347 35.3981 39.3552 35.0918C39.2506 34.6894 39.5101 34.3521 39.7106 34.0385C40.7733 32.3754 44.8038 29.0155 46.9011 28.376Z" fill="#191847"/>
<path fill-rule="evenodd" clip-rule="evenodd" d="M15.6966 64.1711L-8.54421 56.8942C-13.0663 53.3739 -17.3318 50.8001 -21.3405 49.1726C-22.5063 48.9532 -24.4365 49.0806 -22.0245 51.8167C-19.6125 54.5528 -17.1986 57.5392 -17.8872 58.6865C-18.5759 59.8337 -21.085 58.9689 -21.8112 60.7862C-22.2953 61.9977 -18.1383 62.8655 -9.3401 63.3894L9.50759 74.4815L15.6966 64.1711ZM17.8386 106.91L-2.56143 121.89C-8.09435 123.383 -12.7169 125.24 -16.4291 127.462C-17.306 128.261 -18.3658 129.88 -14.7292 129.6C-11.0925 129.32 -7.25465 129.19 -6.75286 130.43C-6.25106 131.67 -8.45178 133.154 -7.43744 134.827C-6.76122 135.943 -3.56645 133.145 2.14685 126.434L22.3483 118.057L17.8386 106.91Z" fill="#B28B67"/>
<path fill-rule="evenodd" clip-rule="evenodd" d="M49.5249 66.567C38.4158 87.2813 22.3515 103.16 -0.937527 119.667L7.88061 129.61C33.8837 119.946 47.6075 114.116 54.3469 94.5454C56.0383 89.6335 57.2205 73.9754 58.2347 65.7369L49.5249 66.567Z" fill="#100E42"/>
<path fill-rule="evenodd" clip-rule="evenodd" d="M80.5813 135.581H31.3371C42.4917 101.561 48.19 78.2124 48.4317 65.534C48.4441 64.8877 49.6378 63.7487 50.1659 63.8979C54.0281 64.9886 58.161 64.5808 62.5645 62.6743C74.2387 81.45 78.2759 104.567 80.5813 135.581Z" fill="#F2F2F2"/>
<path fill-rule="evenodd" clip-rule="evenodd" d="M58.3622 62.7046C44.2466 62.8202 21.345 65.3978 -5.06694 56.9185L-7.67454 69.948C12.2874 82.7865 32.5005 92.7318 50.2122 91.3195C42.521 124.311 42.8756 151.318 59.8556 151.318C67.9644 151.318 76.7167 151.318 86.1125 151.318C90.2828 123.292 79.3226 84.4336 69.1618 64.8337C68.7738 64.0853 67.9476 62.6743 66.0018 62.6743C64.3064 62.6743 61.7632 62.6743 58.3723 62.6743C58.369 62.6844 58.3656 62.6945 58.3622 62.7046Z" fill="#171550"/>
</g>
</svg>
