<svg width="110" height="110" viewBox="0 0 110 110" fill="none" xmlns="http://www.w3.org/2000/svg">
<mask id="mask0" mask-type="alpha" maskUnits="userSpaceOnUse" x="0" y="0" width="110" height="110">
<circle cx="55" cy="55" r="55" fill="white"/>
</mask>
<g mask="url(#mask0)">
<path fill-rule="evenodd" clip-rule="evenodd" d="M57.3904 48.918C60.3373 45.4589 62.3319 41.2197 61.9986 36.4697C61.0383 22.7833 41.9864 25.7941 38.2804 32.7018C34.5745 39.6095 35.0148 57.1315 39.8045 58.3661C41.7146 58.8584 45.7837 57.6523 49.9251 55.1561L47.3256 73.5464H62.6744L57.3904 48.918Z" fill="#D2C3A8"/>
<path fill-rule="evenodd" clip-rule="evenodd" d="M31.4806 23.1263C31.7984 22.009 32.6534 21.0525 33.8055 20.7687C34.0849 20.6998 34.3734 20.672 34.6609 20.6836C34.764 20.6877 34.793 20.7175 34.8412 20.6453C34.8769 20.5919 34.8777 20.4613 34.8924 20.3984C34.9382 20.2031 34.9955 20.0101 35.0661 19.8222C35.3072 19.1811 35.7123 18.6138 36.2007 18.1359C37.1142 17.2418 38.3484 16.6247 39.6308 16.5131C40.3326 16.452 41.0293 16.5661 41.6928 16.7944C42.0364 16.9126 42.3695 17.0597 42.6939 17.2224C42.7916 17.2714 43.1085 17.5113 43.2065 17.4957C43.3148 17.4786 43.5323 17.2095 43.6204 17.142C44.7085 16.3072 46.0522 15.979 47.4075 15.989C48.9372 16.0003 50.4103 16.0767 51.6861 17.0093C51.9562 17.2067 52.2134 17.4229 52.4583 17.6505C52.5873 17.7703 52.7122 17.8946 52.8314 18.0241C52.9032 18.1022 52.9732 18.1821 53.0406 18.2641C53.1549 18.4034 53.1366 18.4491 53.2966 18.352C53.9107 17.9789 54.6222 17.8045 55.3389 17.8925C55.7644 17.9449 56.1785 18.0726 56.5716 18.2408C56.7055 18.298 57.0153 18.5264 57.158 18.5286C57.2995 18.5308 57.605 18.3191 57.7508 18.2653C58.5382 17.9746 59.3869 17.903 60.2146 18.0373C61.0683 18.1759 61.9069 18.5165 62.6303 18.9872C62.9782 19.2136 63.2817 19.4645 63.5255 19.8012C63.6308 19.9465 63.726 20.1003 63.8453 20.2351C63.9151 20.314 64.0535 20.3949 64.0909 20.4948C64.0685 20.435 65.0246 20.0664 65.1148 20.0429C65.5955 19.9173 66.0849 19.9428 66.5556 20.0977C67.4407 20.3889 68.2018 21.0421 68.8274 21.7118C69.1487 22.0558 69.4298 22.436 69.6685 22.8411C69.7829 23.0351 69.8875 23.2347 69.9832 23.4385C70.0296 23.5373 70.0603 23.6608 70.1214 23.7497C70.2001 23.8644 70.253 23.8665 70.3957 23.9165C71.12 24.1703 71.7803 24.5998 72.2832 25.1802C72.7918 25.7674 73.1218 26.4905 73.2602 27.252C73.2683 27.2968 73.2732 27.4827 73.2994 27.507C73.3354 27.5404 73.4811 27.5257 73.5362 27.5321C73.727 27.5545 73.9165 27.5878 74.1034 27.6321C74.448 27.7137 74.7835 27.8337 75.1007 27.9907C76.3376 28.6027 77.2221 29.75 77.655 31.0409C78.1093 32.3958 78.1012 33.9479 77.5583 35.2775C77.4706 35.4922 77.3663 35.7007 77.2437 35.8978C77.1685 36.0189 77.1442 36.0192 77.1931 36.1462C77.2475 36.2875 77.347 36.4248 77.4117 36.5628C77.6227 37.0133 77.7702 37.4912 77.8634 37.9792C78.0163 38.7798 78.092 39.6211 77.9412 40.4277C77.8712 40.8022 77.7492 41.1684 77.563 41.502C77.4681 41.6721 77.3571 41.8334 77.2317 41.9826C77.1666 42.0601 77.0975 42.1341 77.0252 42.205C76.9838 42.2455 76.9296 42.281 76.8944 42.3262C76.8086 42.4365 76.7906 42.3458 76.8348 42.5078C76.8967 42.7342 77.037 42.9576 77.1229 43.1779C77.2115 43.405 77.2915 43.6351 77.3647 43.8675C77.5129 44.3382 77.6383 44.8174 77.7166 45.3048C77.8671 46.2405 77.8407 47.2377 77.3981 48.0965C77.2088 48.4639 76.9373 48.7861 76.608 49.0368C76.4468 49.1595 76.2722 49.2652 76.0891 49.352C75.995 49.3967 75.8748 49.4158 75.8319 49.5068C75.7857 49.6047 75.8543 49.799 75.87 49.9084C76.006 50.8602 76.0743 51.8596 75.7914 52.7923C75.5308 53.6514 74.957 54.4099 74.2121 54.9121C72.767 55.8863 70.819 55.8313 69.3006 55.0515C68.9048 54.8481 68.5345 54.5957 68.2042 54.298C67.3631 55.4303 65.6322 55.3945 64.4029 55.0718C62.8713 54.6699 61.6423 53.6049 60.9343 52.2057C59.9661 53.3843 57.9341 53.0019 57.2627 51.7232C57.0984 51.4103 57.0009 51.0654 56.9529 50.7164C56.9277 50.5329 56.9438 50.3477 56.9248 50.1656C56.9006 49.9336 56.7456 49.7082 56.6566 49.4837C56.4831 49.047 56.3754 48.5957 56.3707 48.1246C56.3683 47.8786 56.3995 47.6389 56.4229 47.3949C56.4439 47.1752 56.383 46.9705 56.3484 46.7537C56.7412 46.8184 57.2197 46.7125 57.5898 46.5986C57.953 46.4868 58.2931 46.1925 58.5494 45.9236C59.1446 45.2993 59.5082 44.481 59.7569 43.6665C60.3027 41.8788 60.079 39.734 58.2809 38.7529C57.4433 38.2959 54.9338 38.2974 53.9362 38.5233C52.8872 38.7608 51.698 41.0754 51.6395 41.293C51.6032 41.4276 51.6215 41.5943 51.4978 41.684C51.2259 41.8813 50.7776 41.5389 50.5771 41.37C50.2311 41.0784 49.9843 40.6904 49.7705 40.2971C49.3048 39.4403 48.9293 38.5215 48.6641 37.5835C48.4596 36.8603 48.3289 36.1146 48.0616 35.4099C47.7957 34.7087 47.3764 34.0819 46.7246 33.6847C46.0155 33.2526 45.2027 33.025 44.4243 32.7534C43.6527 32.4843 42.8944 32.1553 42.2963 31.5843C42.1648 31.4587 42.037 31.3253 41.9312 31.1774C41.8476 31.0607 41.765 30.8373 41.6377 30.7633C41.4397 30.6482 41.1509 30.9475 40.9797 31.0562C40.1352 31.5926 39.4307 32.3406 38.8625 33.1577C38.2974 33.9704 37.8337 34.7524 37.457 35.6599C37.1775 36.3329 37.0031 37.1949 36.5115 37.7464C36.2921 37.9927 34.6609 38.1417 34.1326 37.9267C33.6042 37.7117 33.0121 37.1534 32.8348 36.8035C32.6532 36.4453 32.6098 36.0519 32.6874 35.6599C32.733 35.4292 32.8262 35.2138 32.8772 34.9872C32.9201 34.7969 32.9591 34.617 33.0517 34.4427C33.2272 34.1123 33.5272 33.8749 33.8888 33.7756C33.5124 33.4285 33.2005 33.0134 32.9847 32.5493C32.7605 32.0671 32.5704 31.4808 32.5165 30.9516C32.4727 30.5217 32.5403 30.0764 32.7756 29.707C33.0225 29.3195 33.4597 29.0667 33.8381 28.825C33.2602 28.3729 32.7655 27.823 32.3589 27.2142C31.5681 26.0302 31.079 24.5378 31.4806 23.1263Z" fill="#191847"/>
<path fill-rule="evenodd" clip-rule="evenodd" d="M53.916 62.8868L48.3859 61.9383C38.8647 85.7227 22.2419 107.334 -1.4827 126.772L16.4448 148.552C40.1666 120.875 54.7888 92.32 53.916 62.8868Z" fill="#191847"/>
<path fill-rule="evenodd" clip-rule="evenodd" d="M78.0232 132.384H28.779C40.1878 104.644 45.8921 81.0797 45.8921 61.6903L60.7467 59.4771C72.4209 78.2528 75.7178 101.369 78.0232 132.384Z" fill="#DDE3E9"/>
<path fill-rule="evenodd" clip-rule="evenodd" d="M61.0612 59.4876C61.0592 59.4841 61.0573 59.4806 61.0553 59.4771L60.0857 59.4771C58.9254 59.517 57.1582 59.589 54.784 59.693L51.1946 69.9506C50.8149 82.4571 48.5977 107.661 44.5428 145.562H76.8234C76.7388 148.18 76.5992 150.822 76.4048 153.489H100.407C96.8166 112.983 83.7053 81.6459 61.073 59.4771L61.0612 59.4876V59.4876Z" fill="#2F3676"/>
</g>
</svg>
